<svg id="visual" viewBox="0 0 1500 1500" width="1500" height="1500" xmlns="http://www.w3.org/2000/svg" xmlns:xlink="http://www.w3.org/1999/xlink" version="1.1"><rect x="0" y="0" width="1500" height="1500" fill="#25252b"></rect><defs><linearGradient id="grad1_0" x1="0%" y1="0%" x2="100%" y2="100%"><stop offset="30%" stop-color="#25252b" stop-opacity="1"></stop><stop offset="70%" stop-color="#25252b" stop-opacity="1"></stop></linearGradient></defs><defs><linearGradient id="grad2_0" x1="0%" y1="0%" x2="100%" y2="100%"><stop offset="30%" stop-color="#25252b" stop-opacity="1"></stop><stop offset="70%" stop-color="#25252b" stop-opacity="1"></stop></linearGradient></defs><g transform="translate(1500, 0)"><path d="M0 954.6C-73.9 822.5 -147.9 690.3 -275.1 664.3C-402.4 638.2 -583.1 718.3 -675 675C-766.9 631.7 -770.1 465.2 -801.9 332.2C-833.7 199.1 -894.2 99.6 -954.6 0L0 0Z" fill="#b6efda"></path></g><g transform="translate(0, 1500)"><path d="M0 -954.6C74.3 -841.5 148.5 -728.3 292.8 -706.8C437 -685.2 651.2 -755.3 675 -675C698.8 -594.7 532.1 -364.1 546.9 -226.5C561.8 -89 758.2 -44.5 954.6 0L0 0Z" fill="#b6efda"></path></g></svg>