<?xml version="1.0" encoding="iso-8859-1"?>
<!-- Generator: Adobe Illustrator 19.0.0, SVG Export Plug-In . SVG Version: 6.00 Build 0)  -->
<svg version="1.1" id="Layer_1" xmlns="http://www.w3.org/2000/svg" xmlns:xlink="http://www.w3.org/1999/xlink" x="0px" y="0px"
	 viewBox="0 0 281.757 281.757" style="enable-background:new 0 0 281.757 281.757;" xml:space="preserve">
<g>
	<path style="fill:#1D1D1B;" d="M183.126,78.024c4.782,3.938,8.881,9.564,7.193,16.114c-0.924,3.576-3.416,6.028-6.59,7.314
		c4.501,9.283,4.461,20.736,0.362,30.139c9.685,7.314,9.042,25.438-3.135,29.657c0.161,0.362,0.201,0.764,0.04,1.286
		c-14.266,38.779-25.317,78.242-36.408,118.025c-0.201,0.844-1.125,1.406-1.969,1.125c-0.764-0.241-1.326-0.402-1.849-0.563
		c-0.482,0.201-1.045,0.161-1.567-0.322c-0.201-0.161-0.322-0.362-0.522-0.522c-0.121-0.08-0.201-0.201-0.322-0.362
		c-10.006-9.886-11.935-24.634-15.351-37.935c-5.144-20.053-10.247-40.266-13.141-60.761c-17.642-2.21-18.325-32.671-11.774-44.686
		c-2.773-2.21-3.135-7.595-3.335-10.81c-0.402-5.867,0.683-12.136,3.938-17.079c-1.326-0.161-2.692-0.603-4.019-1.447
		c-5.666-3.456-3.657-11.011-1.648-16.034c2.411-5.988,6.47-11.332,11.935-14.828C81.455,47.2,104.924,4.724,139.966,0.344
		C180.272-4.678,200.044,46.438,183.126,78.024z M186.662,146.5c0.241-5.144-2.612-8.76-5.023-12.98
		c-0.161-0.321-0.201-0.643-0.161-1.005c-0.161-0.241-0.201-0.563-0.121-0.884c2.893-10.368,2.451-19.128-0.723-29.295
		c-0.362,0.08-0.683,0.12-1.045,0.161c-10.247,1.085-19.932-6.39-22.826-15.954c-1.648,2.371-5.184,3.858-7.796,3.657
		c-2.09-0.121-3.978-1.165-5.385-2.652c-1.487,4.822-7.675,8.6-12.377,8.479c-5.787-0.161-10.609-4.26-12.136-9.484
		c-2.009,8.359-9.444,20.977-17.963,22.102c-1.246,4.139-2.612,8.198-2.853,12.578c-0.241,4.019-0.08,10.93,3.094,13.784
		c0.884,0.804,0.241,2.693-1.045,2.532c-0.281-0.04-0.522-0.161-0.764-0.241c-2.21,11.453-4.702,31.626,7.555,38.618
		c10.85,6.189,14.708-8.037,14.427-15.713c-0.201-6.349-2.693-11.774-5.867-17.079c-1.005-1.607,1.407-3.536,2.612-2.049
		c0.08,0.12,0.161,0.241,0.241,0.321c2.773,2.853,6.831,4.3,10.609,2.532c3.416-1.648,3.858-4.501,4.943-7.475
		c-1.567-0.322-3.014-0.844-4.139-1.527c-0.924-0.603-0.322-2.13,0.764-1.808c1.889,0.563,3.978,0.844,5.947,0.603
		c1.889-0.201,3.496-1.286,5.345-1.487c0.924-0.08,1.648,1.165,1.085,1.889c-0.844,1.165-2.13,1.889-3.576,2.25
		c0.763,3.416,4.621,5.023,7.957,4.059c3.134-0.884,4.903-3.577,7.716-4.863c0.924-0.402,2.411,0.281,1.929,1.487
		c-0.04,0.12-0.121,0.201-0.161,0.322c0,0.04,0,0.04,0,0.08c-1.567,2.974,3.898,2.893,5.264,2.532
		c1.728-0.442,2.934-1.607,4.42-2.492c1.407-0.844,2.572,0.764,2.049,2.049c-0.08,0.161-0.241,0.322-0.322,0.482
		c-0.482,3.536-1.406,7.233-0.643,10.73c1.045,4.943,5.586,7.716,10.448,6.751C183.206,156.467,186.421,151.483,186.662,146.5z
		 M184.813,95.987c2.411-3.295,1.447-8.198-0.723-11.212c-1.125-1.567-2.371-2.733-3.858-4.019
		c-0.402-0.362-0.563-0.723-0.603-1.085c-0.804-0.563-1.326-1.607-0.683-2.733c16.637-30.421-3.898-80.612-43.039-71.691
		c-33.917,7.756-43.2,42.436-28.331,70.285c0.321,0.241,0.522,0.603,0.442,1.005c0.322,0.844-0.442,1.688-1.206,1.567
		c-2.974,2.974-5.787,6.028-7.917,9.685c-1.808,3.134-4.782,8.64-4.139,12.498c2.09,11.975,14.306-1.768,16.235-4.702
		c2.532-3.818,3.697-7.917,5.264-12.136c-1.085-0.161-2.09-0.402-2.934-0.763c-1.125-0.522-0.281-2.25,0.844-1.969
		c1.447,0.362,2.893,0.522,4.38,0.201c0.121,0,0.201-0.04,0.321-0.08c0.201-0.482,0.764-0.603,1.206-0.482
		c0.643-0.281,1.326-0.563,2.049-0.683c0.884-0.12,1.929,0.764,1.286,1.688c-0.563,0.804-1.326,1.326-2.21,1.688
		c1.246,4.461,3.777,8.278,8.881,9.002c3.456,0.522,6.832-0.924,8.64-3.898c1.085-1.849,1.005-3.898,1.688-5.867
		c0.241-0.763,1.085-1.125,1.768-0.964c0.522-0.121,1.085,0.12,1.286,0.683c0.884,2.813,3.335,5.345,6.55,4.822
		c2.813-0.442,3.617-2.733,5.264-4.621c0.683-0.804,1.688-0.442,2.17,0.241c0.241,0.121,0.482,0.281,0.563,0.563
		c2.853,6.912,7.917,12.98,15.431,14.949C176.736,98.84,182.483,99.162,184.813,95.987z M177.017,162.012
		c-4.42,0.161-8.921-1.768-11.373-5.546c-2.532-4.019-2.371-9.002-0.924-13.462c-1.969,0.763-4.26,0.964-6.108,0.522
		c-1.688-0.402-3.295-1.607-3.978-3.094c-2.773,2.532-6.872,4.059-10.207,3.617c-3.135-0.402-5.827-2.411-6.912-5.184
		c-0.603,3.818-4.42,7.555-7.676,8.68c-2.652,0.965-5.546,0.764-8.037-0.321c5.305,12.377,6.59,33.475-9.122,34.158
		c-0.12,0-0.241,0-0.362,0c4.059,14.989,7.193,30.22,10.85,45.289c3.818,15.672,6.59,35.484,16.195,49.187
		c3.777-2.813,9.122-24.714,9.524-26.161c2.692-9.926,5.546-19.812,8.56-29.657C163.395,200.51,169.985,181.181,177.017,162.012z"/>
	<path style="fill:#683C11;" d="M181.639,133.521c2.411,4.219,5.264,7.836,5.023,12.98c-0.241,4.983-3.456,9.966-8.519,11.011
		c-4.863,0.964-9.404-1.808-10.448-6.751c-0.764-3.496,0.161-7.193,0.643-10.73c0.08-0.161,0.241-0.322,0.322-0.482
		c0.522-1.286-0.643-2.893-2.049-2.049c-1.487,0.884-2.692,2.049-4.42,2.492c-1.366,0.362-6.832,0.442-5.264-2.532
		c0-0.04,0-0.04,0-0.08c0.04-0.121,0.12-0.201,0.161-0.322c0.482-1.206-1.005-1.889-1.929-1.487
		c-2.813,1.286-4.581,3.978-7.716,4.863c-3.335,0.964-7.193-0.643-7.957-4.059c1.447-0.362,2.733-1.085,3.576-2.25
		c0.563-0.723-0.161-1.969-1.085-1.889c-1.849,0.201-3.456,1.286-5.345,1.487c-1.969,0.241-4.059-0.04-5.947-0.603
		c-1.085-0.322-1.688,1.206-0.764,1.808c1.125,0.683,2.572,1.206,4.139,1.527c-1.085,2.974-1.527,5.827-4.943,7.475
		c-3.778,1.768-7.836,0.322-10.609-2.532c-0.08-0.08-0.161-0.201-0.241-0.321c-1.205-1.487-3.617,0.442-2.612,2.049
		c3.175,5.305,5.666,10.73,5.867,17.079c0.281,7.675-3.576,21.901-14.427,15.713c-12.257-6.992-9.765-27.166-7.555-38.618
		c0.241,0.08,0.482,0.201,0.764,0.241c1.286,0.161,1.929-1.728,1.045-2.532c-3.175-2.853-3.335-9.765-3.094-13.784
		c0.241-4.38,1.607-8.439,2.853-12.578c8.519-1.125,15.954-13.743,17.963-22.102c1.527,5.224,6.349,9.323,12.136,9.484
		c4.702,0.121,10.89-3.657,12.377-8.479c1.406,1.487,3.295,2.532,5.385,2.652c2.612,0.201,6.148-1.286,7.796-3.657
		c2.893,9.564,12.578,17.039,22.826,15.954c0.362-0.04,0.683-0.08,1.045-0.161c3.175,10.167,3.617,18.927,0.723,29.295
		c-0.08,0.322-0.04,0.643,0.121,0.884C181.438,132.878,181.478,133.199,181.639,133.521z M178.665,154.096
		c3.536-0.241,6.108-3.135,5.586-6.671c-0.121-0.804-1.366-0.563-1.366,0.161c-0.08,2.371-1.768,4.581-4.219,4.742
		C177.54,152.448,177.54,154.176,178.665,154.096z M180.473,142.562c0.04-0.884-1.326-1.085-1.567-0.201
		c-0.482,2.049-1.286,4.059-2.532,5.787c-0.603,0.804,0.764,1.849,1.406,1.085C179.469,147.224,180.393,145.174,180.473,142.562z
		 M168.86,109.208c0.924-0.201,0.683-1.688-0.241-1.688c-2.331,0.04-4.621-0.201-6.791-1.005c-1.005-0.402-1.728,1.326-0.723,1.728
		C163.636,109.329,166.087,109.771,168.86,109.208z M167.614,103.462c0.844,0,1.005-1.246,0.201-1.447
		c-2.451-0.643-4.621-1.688-6.349-3.576c-0.764-0.804-1.848,0.362-1.206,1.205C162.109,101.975,164.64,103.381,167.614,103.462z
		 M131.969,116.201c0.482,1.165,2.411,0.683,1.929-0.522c-0.442-1.085-0.522-2.09-0.482-3.255c0-1.045-1.607-1.286-1.849-0.241
		C131.246,113.589,131.447,114.874,131.969,116.201z M129.237,111.097c0.322,0.844,1.648,0.522,1.366-0.362
		c-0.643-2.13-0.402-4.019-0.04-6.189c0.12-0.723-0.965-1.366-1.326-0.563C128.192,106.275,128.393,108.766,129.237,111.097z
		 M106.612,167.116c0.563,0.884,1.969,0.08,1.447-0.844c-1.527-2.612-2.331-5.425-2.853-8.399c-0.161-1.005-1.849-0.764-1.768,0.241
		C103.638,161.409,104.804,164.343,106.612,167.116z M106.773,172.541c0.603,0.241,0.965-0.683,0.402-1.005
		c-2.853-1.648-4.621-4.541-4.742-7.876c0-0.924-1.326-0.884-1.407,0C100.665,167.638,102.995,171.215,106.773,172.541z
		 M103.558,125.885c0.322,0.603,1.366,0.201,1.125-0.442c-1.045-2.692-1.005-5.546-0.161-8.278c0.201-0.603-0.723-1.045-1.045-0.442
		C101.87,119.737,102.031,122.871,103.558,125.885z"/>
	<path style="fill:#FACCE3;" d="M184.09,84.775c2.17,3.014,3.134,7.917,0.723,11.212c-2.331,3.175-8.077,2.853-11.372,1.969
		c-7.515-1.969-12.578-8.037-15.431-14.949c-0.08-0.281-0.322-0.442-0.563-0.563c-0.482-0.683-1.487-1.045-2.17-0.241
		c-1.648,1.889-2.451,4.179-5.264,4.621c-3.215,0.522-5.666-2.009-6.55-4.822c-0.201-0.563-0.764-0.804-1.286-0.683
		c-0.683-0.161-1.527,0.201-1.768,0.964c-0.683,1.969-0.603,4.019-1.688,5.867c-1.808,2.974-5.184,4.42-8.64,3.898
		c-5.104-0.723-7.635-4.541-8.881-9.002c0.884-0.362,1.648-0.884,2.21-1.688c0.643-0.924-0.402-1.808-1.286-1.688
		c-0.723,0.121-1.407,0.402-2.049,0.683c-0.442-0.121-1.005,0-1.206,0.482c-0.12,0.04-0.201,0.08-0.321,0.08
		c-1.487,0.322-2.934,0.161-4.38-0.201c-1.125-0.281-1.969,1.447-0.844,1.969c0.844,0.362,1.848,0.603,2.934,0.763
		c-1.567,4.22-2.733,8.318-5.264,12.136c-1.929,2.934-14.145,16.677-16.235,4.702c-0.643-3.858,2.331-9.363,4.139-12.498
		c2.13-3.657,4.943-6.711,7.917-9.685c0.764,0.121,1.527-0.723,1.206-1.567c0.08-0.402-0.121-0.764-0.442-1.005
		C92.71,47.68,101.993,13,135.91,5.244c39.141-8.921,59.676,41.271,43.039,71.691c-0.643,1.125-0.121,2.17,0.683,2.733
		c0.04,0.362,0.201,0.723,0.603,1.085C181.719,82.043,182.965,83.208,184.09,84.775z M183.286,90.401
		c0.844-0.723-0.241-1.808-1.085-1.407c-1.567,0.683-3.134,0.884-4.782,0.402c-1.045-0.322-1.808,1.326-0.764,1.808
		C178.987,92.25,181.317,92.089,183.286,90.401z M182.402,93.255c0.482-0.643-0.482-1.567-1.125-1.125
		c-2.09,1.527-4.38,2.25-6.872,1.286c-0.964-0.362-1.688,1.286-0.723,1.728C176.736,96.469,180.313,96.027,182.402,93.255z
		 M178.705,35.709c0.241,0.683,1.286,0.402,1.125-0.321c-0.804-2.893-2.451-5.104-4.903-6.832c-0.643-0.442-1.165,0.563-0.603,1.005
		C176.374,31.127,177.861,33.257,178.705,35.709z M177.339,43.585c0.12-2.532-0.362-4.903-1.286-7.274
		c-0.402-0.965-2.009-0.563-1.607,0.442c0.884,2.21,1.326,4.461,1.487,6.832C175.973,44.509,177.299,44.509,177.339,43.585z
		 M158.934,64.843c2.21-1.607,3.215-3.978,2.974-6.671c-0.08-1.045-1.728-1.085-1.648,0c0.121,2.13-0.723,4.019-2.21,5.505
		C157.487,64.24,158.251,65.326,158.934,64.843z M132.532,42.942c0.482-0.723-0.643-1.366-1.125-0.643
		c-0.804,1.205-0.804,2.411,0.04,3.617c0.402,0.563,1.326,0.08,0.964-0.563C131.969,44.509,132.009,43.706,132.532,42.942z
		 M129.719,38.562c0.563-0.764-0.683-1.768-1.326-1.005c-1.607,1.969-2.291,4.34-1.326,6.791c0.321,0.924,1.648,0.603,1.487-0.402
		C128.192,41.978,128.513,40.169,129.719,38.562z M127.629,18.228c0.884-0.201,0.723-1.648-0.201-1.567
		c-1.688,0.161-3.054,0.603-4.501,1.527c-0.964,0.643-0.08,2.25,0.964,1.607C125.057,19.072,126.303,18.549,127.629,18.228z
		 M126.102,14.129c0.804-0.321,0.482-1.487-0.362-1.286c-2.773,0.683-4.943,2.049-6.872,4.099c-0.643,0.683,0.362,1.688,1.005,1.045
		C121.642,16.259,123.812,14.973,126.102,14.129z M105.688,97.836c0.683,0.161,0.964-0.884,0.281-1.045
		c-1.607-0.402-2.773-1.487-3.255-3.054c-0.121-0.322-0.402-0.402-0.643-0.362c-0.08-0.482-0.522-0.924-1.085-0.563
		c-1.929,1.246-2.532,3.938-0.723,5.586c0.563,0.563,1.527-0.121,1.085-0.844c-0.643-1.085-0.723-2.572,0.442-3.376
		C102.352,96.067,103.719,97.394,105.688,97.836z"/>
	<path style="fill:#1D1D1B;" d="M184.251,147.425c0.522,3.536-2.05,6.43-5.586,6.671c-1.125,0.08-1.125-1.648,0-1.768
		c2.451-0.161,4.139-2.371,4.219-4.742C182.885,146.862,184.13,146.621,184.251,147.425z"/>
	<path style="fill:#1D1D1B;" d="M182.201,88.995c0.844-0.402,1.929,0.683,1.085,1.407c-1.969,1.688-4.3,1.849-6.631,0.804
		c-1.045-0.482-0.281-2.13,0.764-1.808C179.067,89.879,180.634,89.678,182.201,88.995z"/>
	<path style="fill:#1D1D1B;" d="M181.277,92.129c0.643-0.442,1.607,0.482,1.125,1.125c-2.09,2.773-5.666,3.215-8.72,1.889
		c-0.965-0.442-0.241-2.09,0.723-1.728C176.897,94.38,179.187,93.656,181.277,92.129z"/>
	<path style="fill:#1D1D1B;" d="M178.906,142.361c0.241-0.884,1.607-0.683,1.567,0.201c-0.08,2.612-1.005,4.662-2.693,6.671
		c-0.643,0.764-2.009-0.281-1.406-1.085C177.62,146.42,178.424,144.411,178.906,142.361z"/>
	<path style="fill:#1D1D1B;" d="M179.83,35.387c0.161,0.723-0.884,1.005-1.125,0.321c-0.844-2.451-2.331-4.581-4.38-6.148
		c-0.563-0.442-0.04-1.447,0.603-1.005C177.379,30.283,179.027,32.494,179.83,35.387z"/>
	<path style="fill:#1D1D1B;" d="M176.053,36.311c0.924,2.371,1.406,4.742,1.286,7.274c-0.04,0.924-1.366,0.924-1.406,0
		c-0.161-2.371-0.603-4.621-1.487-6.832C174.044,35.749,175.651,35.347,176.053,36.311z"/>
	<path style="fill:#FDE9CC;" d="M165.645,156.467c2.451,3.777,6.952,5.706,11.373,5.546c-7.032,19.169-13.623,38.498-19.57,58.028
		c-3.014,9.846-5.867,19.731-8.56,29.657c-0.402,1.447-5.747,23.348-9.524,26.161c-9.604-13.703-12.377-33.515-16.195-49.187
		c-3.657-15.07-6.791-30.3-10.85-45.289c0.12,0,0.241,0,0.362,0c15.713-0.683,14.427-21.781,9.122-34.158
		c2.492,1.085,5.385,1.286,8.037,0.321c3.255-1.125,7.073-4.862,7.676-8.68c1.085,2.773,3.777,4.782,6.912,5.184
		c3.335,0.442,7.434-1.085,10.207-3.617c0.683,1.487,2.291,2.692,3.978,3.094c1.849,0.442,4.139,0.241,6.108-0.522
		C163.274,147.465,163.113,152.448,165.645,156.467z M161.305,197.818c0.04-0.804-1.286-1.005-1.406-0.201
		c-0.522,2.974-1.406,5.787-2.893,8.399c-0.442,0.723,0.643,1.326,1.125,0.643C160.059,204.006,161.144,201.113,161.305,197.818z
		 M157.728,197.215c0.442-0.884-0.723-1.567-1.286-0.764c-1.407,2.21-2.25,4.621-2.692,7.193c-0.201,0.884,1.165,1.286,1.406,0.362
		C155.759,201.635,156.683,199.425,157.728,197.215z M145.432,189.78c0.12-1.085-1.607-1.286-1.849-0.241
		c-0.522,2.13-0.884,4.3-1.206,6.47c-0.201,1.246,1.688,1.848,1.929,0.563C144.748,194.281,145.15,192.071,145.432,189.78z
		 M136.47,167.156c2.09-2.451,2.25-5.626,0.804-8.479c-0.482-0.924-1.728-0.121-1.366,0.804c0.964,2.25,0.522,4.702-0.683,6.751
		C134.822,166.955,135.867,167.839,136.47,167.156z M134.622,228.198c0.201,0.964,1.889,0.763,1.768-0.241
		c-0.321-2.291-0.563-4.541-1.085-6.751c-0.201-0.964-1.808-0.764-1.728,0.241C133.778,223.697,134.22,225.948,134.622,228.198z
		 M133.095,234.186c0.362,0.643,1.326,0.08,0.964-0.563c-1.808-3.376-2.893-7.073-3.576-10.85c-0.121-0.683-1.286-0.522-1.206,0.161
		C129.639,227.033,130.965,230.689,133.095,234.186z M130.884,163.821c0.241,0.764,1.246,0.442,1.125-0.321
		c-0.402-2.773-0.844-5.546-1.005-8.399c-0.04-0.723-1.085-0.723-1.125,0C129.759,158.074,129.96,160.967,130.884,163.821z"/>
	<path style="fill:#1D1D1B;" d="M168.619,107.52c0.924,0,1.165,1.487,0.241,1.688c-2.773,0.563-5.224,0.121-7.756-0.964
		c-1.005-0.402-0.281-2.13,0.723-1.728C163.997,107.319,166.288,107.561,168.619,107.52z"/>
	<path style="fill:#1D1D1B;" d="M167.815,102.015c0.804,0.201,0.643,1.447-0.201,1.447c-2.974-0.08-5.505-1.487-7.354-3.818
		c-0.643-0.844,0.442-2.009,1.206-1.205C163.194,100.327,165.364,101.372,167.815,102.015z"/>
	<path style="fill:#1D1D1B;" d="M161.908,58.172c0.241,2.692-0.764,5.063-2.974,6.671c-0.683,0.482-1.447-0.603-0.884-1.165
		c1.487-1.487,2.331-3.376,2.21-5.505C160.18,57.087,161.827,57.128,161.908,58.172z"/>
	<path style="fill:#1D1D1B;" d="M159.898,197.617c0.121-0.804,1.447-0.603,1.406,0.201c-0.161,3.295-1.246,6.189-3.175,8.841
		c-0.482,0.683-1.567,0.08-1.125-0.643C158.492,203.403,159.376,200.59,159.898,197.617z"/>
	<path style="fill:#1D1D1B;" d="M156.442,196.451c0.563-0.804,1.728-0.12,1.286,0.764c-1.045,2.21-1.969,4.42-2.572,6.791
		c-0.241,0.924-1.607,0.522-1.406-0.362C154.192,201.073,155.036,198.661,156.442,196.451z"/>
	<path style="fill:#1D1D1B;" d="M143.583,189.539c0.241-1.045,1.969-0.844,1.849,0.241c-0.281,2.291-0.683,4.501-1.125,6.791
		c-0.241,1.286-2.13,0.683-1.929-0.563C142.699,193.839,143.061,191.669,143.583,189.539z"/>
	<path style="fill:#1D1D1B;" d="M137.274,158.677c1.447,2.853,1.286,6.028-0.804,8.479c-0.603,0.683-1.648-0.201-1.246-0.924
		c1.206-2.049,1.648-4.501,0.683-6.751C135.546,158.556,136.792,157.752,137.274,158.677z"/>
	<path style="fill:#1D1D1B;" d="M136.39,227.957c0.121,1.005-1.567,1.205-1.768,0.241c-0.402-2.25-0.844-4.501-1.045-6.751
		c-0.08-1.005,1.527-1.206,1.728-0.241C135.827,223.416,136.068,225.666,136.39,227.957z"/>
	<path style="fill:#1D1D1B;" d="M134.059,233.623c0.362,0.643-0.603,1.206-0.964,0.563c-2.13-3.496-3.456-7.153-3.818-11.252
		c-0.08-0.683,1.085-0.844,1.206-0.161C131.166,226.55,132.251,230.248,134.059,233.623z"/>
	<path style="fill:#1D1D1B;" d="M133.898,115.678c0.482,1.206-1.447,1.688-1.929,0.522c-0.522-1.326-0.723-2.612-0.402-4.019
		c0.241-1.045,1.849-0.804,1.849,0.241C133.376,113.589,133.456,114.593,133.898,115.678z"/>
	<path style="fill:#1D1D1B;" d="M131.407,42.299c0.482-0.723,1.607-0.08,1.125,0.643c-0.523,0.764-0.563,1.567-0.121,2.411
		c0.362,0.643-0.563,1.125-0.964,0.563C130.603,44.71,130.603,43.505,131.407,42.299z"/>
	<path style="fill:#1D1D1B;" d="M132.009,163.499c0.121,0.764-0.884,1.085-1.125,0.321c-0.924-2.853-1.125-5.747-1.005-8.72
		c0.04-0.723,1.085-0.723,1.125,0C131.166,157.953,131.608,160.726,132.009,163.499z"/>
	<path style="fill:#1D1D1B;" d="M130.603,110.735c0.281,0.884-1.045,1.205-1.366,0.362c-0.844-2.331-1.045-4.822,0-7.113
		c0.362-0.804,1.447-0.161,1.326,0.563C130.201,106.717,129.96,108.605,130.603,110.735z"/>
	<path style="fill:#1D1D1B;" d="M128.393,37.557c0.643-0.764,1.889,0.241,1.326,1.005c-1.206,1.607-1.527,3.416-1.165,5.385
		c0.161,1.005-1.165,1.326-1.487,0.402C126.102,41.897,126.785,39.526,128.393,37.557z"/>
	<path style="fill:#1D1D1B;" d="M127.428,16.661c0.924-0.08,1.085,1.366,0.201,1.567c-1.326,0.322-2.572,0.844-3.737,1.567
		c-1.045,0.643-1.929-0.965-0.964-1.607C124.374,17.263,125.741,16.821,127.428,16.661z"/>
	<path style="fill:#1D1D1B;" d="M125.741,12.843c0.844-0.201,1.165,0.964,0.362,1.286c-2.291,0.844-4.461,2.13-6.229,3.858
		c-0.643,0.643-1.648-0.362-1.005-1.045C120.798,14.892,122.968,13.526,125.741,12.843z"/>
	<path style="fill:#1D1D1B;" d="M108.059,166.272c0.522,0.924-0.884,1.728-1.447,0.844c-1.808-2.773-2.974-5.706-3.175-9.002
		c-0.08-1.005,1.607-1.246,1.768-0.241C105.728,160.847,106.532,163.66,108.059,166.272z"/>
	<path style="fill:#1D1D1B;" d="M107.175,171.536c0.563,0.322,0.201,1.246-0.402,1.005c-3.777-1.326-6.108-4.903-5.747-8.881
		c0.08-0.884,1.407-0.924,1.407,0C102.553,166.995,104.322,169.889,107.175,171.536z"/>
	<path style="fill:#1D1D1B;" d="M105.969,96.791c0.683,0.161,0.402,1.206-0.281,1.045c-1.969-0.442-3.335-1.768-3.898-3.657
		c-1.165,0.804-1.085,2.291-0.442,3.376c0.442,0.723-0.522,1.407-1.085,0.844c-1.808-1.648-1.206-4.34,0.723-5.586
		c0.563-0.362,1.005,0.08,1.085,0.563c0.241-0.04,0.522,0.04,0.643,0.362C103.196,95.304,104.362,96.389,105.969,96.791z"/>
	<path style="fill:#1D1D1B;" d="M104.683,125.443c0.241,0.643-0.804,1.045-1.125,0.442c-1.527-3.014-1.688-6.148-0.08-9.162
		c0.322-0.603,1.246-0.161,1.045,0.442C103.679,119.898,103.638,122.751,104.683,125.443z"/>
</g>
<g>
</g>
<g>
</g>
<g>
</g>
<g>
</g>
<g>
</g>
<g>
</g>
<g>
</g>
<g>
</g>
<g>
</g>
<g>
</g>
<g>
</g>
<g>
</g>
<g>
</g>
<g>
</g>
<g>
</g>
</svg>
