<?xml version="1.0" encoding="iso-8859-1"?>
<!-- Generator: Adobe Illustrator 19.0.0, SVG Export Plug-In . SVG Version: 6.00 Build 0)  -->
<svg version="1.1" id="Layer_1" xmlns="http://www.w3.org/2000/svg" xmlns:xlink="http://www.w3.org/1999/xlink" x="0px" y="0px"
	 viewBox="0 0 271.794 271.794" style="enable-background:new 0 0 271.794 271.794;" xml:space="preserve">
<g>
	<path style="fill:#1D1D1B;" d="M248.986,69.664c0.362,0.683,0.402,1.487-0.281,2.049c-19.731,16.557-41.592,31.666-63.976,45.249
		c5.666,5.104,6.108,12.297,3.737,18.968c5.184,5.144,7.595,14.869,4.421,21.499c1.045,0,2.09,0,3.134,0
		c0.764,0,1.286,0.402,1.567,0.924c0.362,0.04,0.764,0.161,1.045,0.603c2.009,3.054,4.983,21.54-1.567,21.178
		c-0.322,0.764-1.085,1.366-2.09,1.246c-0.924-0.121-1.889-0.241-2.813-0.362c-5.907,28.572-13.141,56.461-17.923,85.274
		c0.964,1.165,0.482,3.335-1.407,3.215c-28.25-1.889-56.26,1.206-84.47,1.607c-7.675,0.121-37.614,3.335-43.762-5.345
		c-0.482-0.161-0.884-0.522-1.005-1.246c-4.099-28.17-8.6-56.943-8.841-85.435c-1.889-0.201-3.777-0.402-5.626-0.643
		c-0.281,0.201-0.643,0.281-0.964,0.08c-5.827-3.777-8.118-15.391-1.969-20.093c-0.161-0.683,0.121-1.447,1.005-1.487
		c0.764,0,1.487,0,2.21,0c-12.98-10.569-2.291-36.047,12.9-38.819c0.161-0.04,0.281,0,0.402,0
		c-0.924-4.501-0.764-9.323,0.522-13.784c4.26-14.949,18.405-25.438,33.716-25.96c0.08,0,0.08,0.04,0.161,0.04
		c-1.085-6.189,0.683-12.859,5.345-18.726c7.233-9.122,17.159-14.708,13.181-28.733c-3.536-12.457-8.72-7.555-13.703-15.592
		c-1.728-2.773-2.813-4.501-1.406-7.796c5.706-13.342,35.002-5.706,43.883-2.25c17.441,6.711,36.328,21.338,38.257,40.829
		c4.059-10.649,8.117-21.298,11.975-31.907c0.201-0.522,0.522-0.844,0.924-1.005c0.161-0.322,0.442-0.563,0.924-0.522
		c31.827,4.179,58.912,26.563,72.455,55.215C249.228,68.579,249.187,69.182,248.986,69.664z M245.289,69.825
		c-13.864-28.251-37.815-45.611-67.552-54.211c-0.804,2.13-1.567,4.3-2.371,6.43c-11.172,30.702-21.298,62.248-34.68,92.025
		c0.402,1.728,0.161,3.617-0.603,5.304c2.532-0.965,5.465-0.844,7.796,0.763c2.09,1.407,3.295,3.858,3.576,6.349
		c0.04,0.321,0.04,0.683,0.04,1.085c2.17-0.402,4.461,0.643,5.747,2.451c6.51-4.38,12.98-8.76,19.45-13.221
		C199.598,101.17,222.303,85.256,245.289,69.825z M197.79,170.61c0.08-3.295-0.844-6.309-1.406-9.444
		c-0.121,0-0.241,0.08-0.362,0.08c-16.798,0.08-33.635,0.12-50.473,0.12c-38.9,0-77.799-0.362-116.579-2.009
		c-1.246,3.054-2.974,5.264-2.934,8.72c0,2.853,0.964,5.506,2.451,7.876c0.04,0,0.121-0.04,0.201-0.04
		c55.697,2.773,111.877-5.947,167.253,1.929c0.161,0.04,0.281,0.08,0.402,0.161C197.107,175.553,197.75,173.303,197.79,170.61z
		 M190.315,157.108c0.362-3.777,1.165-7.153,0.362-11.011c-0.563-2.853-1.768-5.345-3.215-7.796
		c-1.246,2.652-2.893,5.184-4.863,7.354c-1.125,1.286-3.014-0.362-2.291-1.768c4.581-8.6,10.087-17.28,2.371-25.638
		c-8.117,4.862-16.315,9.564-24.473,14.025c0.04,0.322,0.121,0.603,0.121,0.924c2.934-0.482,6.028-0.08,8.238,2.13
		c2.25,2.21,2.893,5.385,1.487,8.158c-0.804,1.567-3.456,0.482-2.853-1.165c2.049-5.626-4.501-6.711-8.439-5.586
		c-1.406,0.402-2.29-1.125-1.768-2.291c1.447-3.175-1.487-4.742-3.898-3.978c-0.442,1.326-1.206,2.411-2.451,2.693
		c-0.804,0.201-1.567-0.362-1.567-1.165c-0.04-1.567,1.085-2.773,1.165-4.34c0.121-1.728-0.522-3.536-1.768-4.742
		c-2.371-2.25-5.827-1.607-8.118,0.322c0.844,0.683,1.527,1.487,1.567,2.612c0.04,0.522-0.522,1.125-1.085,1.085
		c-1.246-0.161-1.969-0.924-2.773-1.728c-0.442-0.04-0.804-0.362-0.804-0.804c-0.04-0.04-0.08-0.08-0.121-0.121
		c-1.527-1.366-3.215-2.411-4.943-3.496c-0.924-0.603-0.362-2.21,0.764-1.849c1.648,0.563,3.175,1.407,4.621,2.331
		c1.085-3.295,4.3-7.515-0.884-9.202c-3.295-1.045-6.51,0.121-9.122,2.13c-1.125,0.884-2.17-0.884-1.407-1.808
		c3.175-3.818,9.243-5.063,13.542-2.451c0.844,0.522,1.487,1.125,1.969,1.849c5.827-19.972,13.101-39.623,20.535-59.194
		c-0.241-0.241-0.402-0.563-0.402-1.005c-0.362-24.634-25.598-41.431-47.419-46.013c-4.782-1.005-28.532-5.546-22.986,10.529
		c0.764,2.21,5.586,5.184,7.153,7.836c3.335,5.666,4.501,12.819,2.893,19.289c-0.804,3.175-1.969,5.465-3.818,8.198
		C88,62.795,65.054,71.917,89.326,90.402c1.607,1.246,0.161,3.938-1.648,2.813c-5.626-3.456-9.002-8.238-10.328-13.422
		c-0.04,0.04-0.08,0.121-0.201,0.161c-11.574,2.853-22.383,8.64-28.009,19.731c-6.751,13.342-2.532,26.563,10.408,33.475
		c1.326,0.683,0.402,2.612-0.965,2.291c-7.796-1.688-12.819-7.394-15.11-14.346c-0.08,0.08-0.161,0.161-0.281,0.201
		c-7.274,2.813-12.297,7.033-14.668,14.708c-2.17,6.952-1.768,15.592,3.737,20.937c52.683-0.563,105.447,0.322,158.131,0.442
		C190.356,157.309,190.275,157.229,190.315,157.108z M182.921,202.518c2.17-7.394,4.541-14.708,7.394-21.7
		c-11.051-1.326-22.142-1.929-33.193-2.049c4.541,3.536,8.921,7.354,13.181,11.292C174.563,193.998,179.224,197.977,182.921,202.518
		z M175.567,234.064c1.688-9.363,3.777-18.767,6.269-27.929c-5.023-3.978-9.323-9.203-13.944-13.703
		c-4.742-4.541-9.645-8.921-14.346-13.502c-0.08-0.08-0.08-0.121-0.121-0.201c-9.564-0.04-19.128,0.201-28.692,0.522
		C142.575,196.048,160.779,214.493,175.567,234.064z M175.045,237.037c-0.161-0.04-0.322-0.12-0.482-0.241
		c-18.244-17.561-35.243-37.574-51.88-56.662c-0.201-0.241-0.281-0.522-0.241-0.804c-9.363,0.362-18.686,0.764-28.05,1.045
		c24.634,27.326,46.977,56.662,72.093,83.586c0.362,0.402,0.482,0.884,0.402,1.326c1.406,0.04,2.773,0.121,4.179,0.201
		C172.071,256.166,173.397,246.601,175.045,237.037z M136.868,265.127c8.72-0.281,17.441-0.402,26.201-0.04
		c-25.277-26.723-48.986-55.336-71.209-84.631c-12.779,0.402-25.598,0.563-38.377,0C81.935,207.822,110.346,235.912,136.868,265.127
		z M110.386,266.453c7.434-0.442,14.788-0.844,22.183-1.165c-28.451-27.125-55.778-56.019-82.34-84.993
		c-4.42-0.241-8.801-0.522-13.221-0.965c1.246,8.56,2.291,17.119,3.255,25.719c19.369,20.374,39.744,40.628,57.907,62.006
		C102.228,266.895,106.327,266.694,110.386,266.453z M81.01,267.498c4.38,0,8.72-0.121,13.101-0.281
		c-19.49-17.119-37.413-37.975-53.407-58.51c1.165,10.489,2.25,21.017,3.456,31.506c4.26,4.541,8.278,9.323,12.699,13.784
		c4.661,4.702,10.448,8.72,14.828,13.703C75.304,267.619,78.599,267.498,81.01,267.498z M46.852,264.926
		c4.903,2.411,13.141,2.853,20.736,2.813c-4.621-3.376-8.76-8.037-12.538-11.975c-3.657-3.818-7.314-7.836-10.488-12.176
		c0.804,6.671,1.608,13.342,2.612,19.972C47.254,264.082,47.094,264.524,46.852,264.926z"/>
	<path style="fill:#1D1D1B;" d="M241.351,69.463c0.201,0.964-1.125,1.326-1.447,0.402c-0.764-2.21-1.607-4.38-2.813-6.39
		c-0.482-0.804,0.723-1.447,1.246-0.723C239.784,64.842,240.869,67.012,241.351,69.463z"/>
	<path style="fill:#1D1D1B;" d="M236.047,70.91c0.241,1.045-1.206,1.447-1.567,0.442c-0.643-1.768-1.125-3.657-1.607-5.465
		c-0.281-1.125,1.366-1.567,1.688-0.482C235.122,67.213,235.685,69.061,236.047,70.91z"/>
	<path style="fill:#1D1D1B;" d="M227.166,56.644c1.125-0.442,1.929,1.447,0.844,1.929c-1.527,0.643-3.054,1.326-4.541,1.969
		c1.527,2.853,2.974,5.706,4.139,8.64c0.522,1.246-1.406,1.849-2.09,0.884c-1.768-2.692-3.416-5.425-5.104-8.198
		c-4.139,1.808-8.278,3.617-12.377,5.505c1.406,2.692,2.853,5.425,4.219,8.158c0.683,1.366-1.326,2.572-2.13,1.206
		c-1.607-2.692-3.135-5.425-4.702-8.158c-4.139,1.889-8.278,3.778-12.417,5.747c2.492,5.184,4.742,10.448,6.631,15.632
		c0.482,1.326-1.608,2.17-2.25,0.964c-2.612-4.943-5.144-9.966-7.635-14.989c-4.139,1.969-8.278,3.978-12.377,5.988
		c1.648,3.778,3.175,7.555,4.581,11.373c3.054-1.246,6.148-2.411,9.202-3.576c1.005-0.362,1.648,1.286,0.723,1.688
		c-3.094,1.286-6.148,2.612-9.202,3.938c1.005,2.933,1.969,5.827,2.773,8.68c0.322,1.125-1.326,1.848-1.889,0.804
		c-1.326-2.612-2.612-5.385-3.818-8.198c-2.853,1.206-5.706,2.411-8.56,3.657c1.728,4.099,3.135,8.238,4.019,12.377
		c0.12,0.522-0.201,0.924-0.603,1.085c-0.402,0.161-0.844,0.08-1.125-0.362c-2.17-3.576-3.898-7.595-5.465-11.774
		c-3.617,1.567-7.274,3.094-10.89,4.621c1.688,3.456,3.496,6.832,5.224,10.368c0.482,0.924-0.764,1.607-1.366,0.804
		c-2.371-3.094-4.139-6.671-5.586-10.448c-0.321,0.161-0.643,0.281-0.964,0.442c-0.683,0.281-1.125-0.884-0.482-1.206
		c0.322-0.201,0.643-0.362,1.005-0.522c-1.085-2.934-1.969-5.867-2.692-8.72c-0.121-0.563,0.683-0.764,0.844-0.241
		c0.924,2.853,2.13,5.546,3.376,8.198c3.577-1.848,7.193-3.617,10.85-5.264c-1.286-3.576-2.451-7.233-3.577-10.77
		c-1.688,0.844-3.376,1.688-5.023,2.572c-0.603,0.281-1.125-0.563-0.563-0.924c1.688-1.045,3.416-2.049,5.104-3.094
		c-0.563-1.688-1.085-3.376-1.648-4.983c-0.281-0.764,0.964-1.286,1.286-0.563c0.643,1.487,1.326,3.014,2.049,4.541
		c2.934-1.728,5.867-3.456,8.881-5.104c-1.688-4.862-3.255-9.765-4.621-14.467c-0.161-0.563,0.683-0.924,0.965-0.402
		c2.13,4.3,4.26,8.801,6.269,13.422c4.019-2.21,8.037-4.3,12.096-6.349c-2.612-5.264-5.224-10.569-7.796-15.873
		c-4.38,1.808-8.68,3.858-12.819,6.309c-0.683,0.402-1.165-0.563-0.603-1.005c3.898-2.933,8.077-5.305,12.417-7.354
		c-1.527-3.134-3.054-6.269-4.581-9.403c-0.362-0.804,0.683-1.406,1.165-0.683c2.009,2.893,3.978,5.907,5.907,9.002
		c4.139-1.848,8.439-3.456,12.819-4.943c-2.09-4.019-4.179-7.997-6.229-12.015c-3.577,1.366-7.193,2.692-10.81,3.898
		c-0.683,0.201-1.165-0.884-0.522-1.165c3.456-1.567,6.912-3.054,10.448-4.501c-1.487-2.893-3.014-5.827-4.461-8.76
		c-0.08-0.161-0.12-0.281-0.12-0.442c0-0.764,1.125-1.246,1.607-0.442c1.688,2.934,3.416,5.907,5.104,8.841
		c2.049-0.804,4.099-1.648,6.189-2.371c0.964-0.322,1.607,1.246,0.683,1.648c-1.929,0.844-3.898,1.608-5.867,2.371
		c2.291,3.978,4.541,7.957,6.791,11.975c4.018-1.366,8.077-2.652,12.056-4.019c-0.924-1.487-1.849-3.014-2.813-4.501
		c-0.603-0.924,0.844-2.09,1.567-1.206c1.246,1.567,2.492,3.215,3.737,4.863c2.009-0.723,3.978-1.407,5.907-2.17
		c0.884-0.362,1.527,1.165,0.643,1.567c-1.728,0.804-3.496,1.527-5.305,2.25c3.094,4.179,6.068,8.6,8.68,13.141
		C223.951,57.89,225.558,57.247,227.166,56.644z M219.088,59.778c-2.692-4.42-5.305-8.921-7.997-13.342
		c-3.978,1.527-7.957,2.974-11.975,4.38c2.612,4.662,5.184,9.403,7.676,14.145C210.89,63.154,214.949,61.426,219.088,59.778z
		 M204.059,66.168c-2.652-4.742-5.264-9.524-7.836-14.346c-4.26,1.487-8.519,3.054-12.739,4.702
		c2.974,4.983,5.787,10.127,8.359,15.351C195.861,69.905,199.96,68.016,204.059,66.168z M178.862,94.579
		c-1.527-3.657-2.974-7.434-4.34-11.212c-2.974,1.487-5.907,3.014-8.881,4.541c1.567,3.376,3.175,6.832,4.702,10.328
		C173.156,96.99,176.009,95.744,178.862,94.579z"/>
	<path style="fill:#FDE9CC;" d="M228.009,58.573c1.085-0.482,0.281-2.371-0.844-1.929c-1.607,0.603-3.215,1.246-4.822,1.889
		c-2.612-4.541-5.586-8.961-8.68-13.141c1.808-0.723,3.577-1.447,5.305-2.25c0.884-0.402,0.241-1.929-0.643-1.567
		c-1.929,0.764-3.898,1.447-5.907,2.17c-1.246-1.648-2.492-3.295-3.737-4.863c-0.723-0.884-2.17,0.281-1.567,1.206
		c0.964,1.487,1.889,3.014,2.813,4.501c-3.978,1.366-8.037,2.652-12.056,4.019c-2.25-4.019-4.501-7.997-6.791-11.975
		c1.969-0.763,3.938-1.527,5.867-2.371c0.924-0.402,0.281-1.969-0.683-1.648c-2.09,0.723-4.139,1.567-6.189,2.371
		c-1.688-2.934-3.416-5.907-5.104-8.841c-0.482-0.804-1.607-0.321-1.607,0.442l-1.768-0.804c0.321-0.683,0.643-1.326,0.964-1.969
		c0.402-0.804-0.683-1.447-1.206-0.723c-0.844,1.085-1.487,2.25-1.969,3.416l-1.406-0.08c0.08-0.08,0.12-0.161,0.12-0.241
		c0.402-1.929,1.165-3.617,2.049-5.305c0.442-0.804-0.683-1.768-1.286-1.005c-0.723,0.884-1.246,1.808-1.648,2.853l-1.848-0.683
		c0.804-2.13,1.567-4.3,2.371-6.43c29.737,8.6,53.688,25.96,67.552,54.211c-22.986,15.431-45.691,31.345-68.597,46.977l-2.09-3.054
		c0.402-0.161,0.723-0.563,0.603-1.085c-0.884-4.139-2.291-8.278-4.019-12.377c2.853-1.246,5.706-2.451,8.56-3.657
		c1.206,2.813,2.492,5.586,3.818,8.198c0.563,1.045,2.21,0.322,1.889-0.804c-0.804-2.853-1.768-5.747-2.773-8.68
		c3.054-1.326,6.108-2.652,9.202-3.938c0.924-0.402,0.281-2.049-0.723-1.688c-3.054,1.165-6.148,2.331-9.202,3.576
		c-1.406-3.818-2.934-7.595-4.581-11.373c4.099-2.009,8.238-4.019,12.377-5.988c2.492,5.023,5.023,10.046,7.635,14.989
		c0.643,1.206,2.733,0.362,2.25-0.964c-1.889-5.184-4.139-10.448-6.631-15.632c4.139-1.969,8.278-3.858,12.417-5.747
		c1.567,2.733,3.094,5.465,4.702,8.158c0.804,1.366,2.813,0.161,2.13-1.206c-1.366-2.733-2.813-5.465-4.219-8.158
		c4.099-1.889,8.238-3.697,12.377-5.505c1.688,2.773,3.335,5.505,5.104,8.198c0.683,0.964,2.612,0.362,2.09-0.884
		c-1.165-2.934-2.612-5.787-4.139-8.64C224.955,59.899,226.482,59.216,228.009,58.573z M239.904,69.865
		c0.321,0.924,1.648,0.563,1.447-0.402c-0.482-2.451-1.567-4.621-3.014-6.711c-0.522-0.723-1.728-0.08-1.246,0.723
		C238.297,65.485,239.141,67.655,239.904,69.865z M234.479,71.352c0.362,1.005,1.808,0.603,1.567-0.442
		c-0.362-1.849-0.924-3.697-1.487-5.506c-0.322-1.085-1.969-0.643-1.688,0.482C233.354,67.695,233.836,69.584,234.479,71.352z
		 M209.645,88.833c0.764-0.643-0.241-1.969-1.045-1.366c-2.492,1.808-4.863,3.697-7.193,5.666c-0.603,0.522,0.201,1.648,0.924,1.165
		C204.822,92.53,207.274,90.761,209.645,88.833z"/>
	<path style="fill:#FDE9CC;" d="M211.091,46.437c2.692,4.42,5.305,8.921,7.997,13.342c-4.139,1.648-8.198,3.376-12.297,5.184
		c-2.492-4.742-5.063-9.484-7.676-14.145C203.135,49.41,207.113,47.964,211.091,46.437z"/>
	<path style="fill:#1D1D1B;" d="M208.6,87.466c0.804-0.603,1.808,0.723,1.045,1.366c-2.371,1.929-4.822,3.697-7.314,5.465
		c-0.723,0.482-1.527-0.643-0.924-1.165C203.737,91.163,206.108,89.275,208.6,87.466z"/>
	<path style="fill:#FDE9CC;" d="M196.223,51.822c2.572,4.822,5.184,9.604,7.836,14.346c-4.099,1.849-8.198,3.737-12.216,5.706
		c-2.572-5.224-5.385-10.368-8.359-15.351C187.703,54.876,191.963,53.308,196.223,51.822z"/>
	<path style="fill:#EF67AC;" d="M196.383,161.167c0.563,3.135,1.487,6.148,1.406,9.444c-0.04,2.693-0.683,4.943-1.447,7.394
		c-0.12-0.08-0.241-0.121-0.402-0.161c-55.376-7.876-111.556,0.844-167.253-1.929c-0.08,0-0.161,0.04-0.201,0.04
		c-1.487-2.371-2.451-5.023-2.451-7.876c-0.04-3.456,1.688-5.666,2.934-8.72c38.779,1.648,77.679,2.009,116.579,2.009
		c16.838,0,33.676-0.04,50.473-0.12C196.142,161.247,196.263,161.167,196.383,161.167z M183.966,169.244
		c0.764-0.04,0.764-1.206,0-1.246c-1.366-0.08-2.692-0.121-4.018-0.08c-0.924,0-0.924,1.406,0,1.406
		C181.274,169.365,182.6,169.324,183.966,169.244z M183.444,166.311c0.683-0.08,0.964-1.085,0.161-1.286
		c-3.255-0.804-6.832-0.603-10.207-0.723c-1.045-0.04-1.045,1.527,0,1.607C176.692,166.15,180.148,166.753,183.444,166.311z
		 M96.562,169.244c0.723,0.08,0.884-1.125,0.161-1.286c-2.009-0.362-4.018-0.643-6.028-0.924c-0.965-0.121-1.366,1.326-0.402,1.487
		C92.383,168.802,94.432,169.083,96.562,169.244z M45.325,169.324c0.804,0.04,1.005-1.326,0.161-1.447
		c-3.054-0.402-6.148-0.723-9.202-1.045c-0.924-0.08-0.884,1.326,0,1.447C39.298,168.641,42.271,169.043,45.325,169.324z
		 M39.78,172.7c0.764,0,0.764-1.125,0-1.165c-2.532-0.121-4.983-0.643-7.434-1.326c-0.522-0.201-0.924,0.683-0.402,0.924
		C34.475,172.218,37.047,172.7,39.78,172.7z"/>
	<path style="fill:#FDE9CC;" d="M188.828,37.556c2.049,4.019,4.139,7.997,6.229,12.015c-4.38,1.487-8.68,3.094-12.819,4.943
		c-1.929-3.094-3.898-6.108-5.907-9.002c-0.482-0.723-1.527-0.12-1.165,0.683c1.527,3.135,3.054,6.269,4.581,9.403
		c-4.34,2.049-8.519,4.421-12.417,7.354c-0.563,0.442-0.08,1.407,0.603,1.005c4.139-2.451,8.439-4.501,12.819-6.309
		c2.572,5.305,5.184,10.609,7.796,15.873c-4.059,2.049-8.077,4.139-12.096,6.349c-2.009-4.621-4.139-9.122-6.269-13.422
		c-0.281-0.522-1.125-0.161-0.965,0.402c1.366,4.702,2.934,9.604,4.621,14.467c-3.014,1.648-5.947,3.376-8.881,5.104
		c-0.723-1.527-1.407-3.054-2.049-4.541c-0.321-0.723-1.567-0.201-1.286,0.563c0.563,1.607,1.085,3.295,1.648,4.983
		c-1.688,1.045-3.416,2.049-5.104,3.094c-0.563,0.362-0.04,1.206,0.563,0.924c1.648-0.884,3.335-1.728,5.023-2.572
		c1.125,3.536,2.291,7.193,3.577,10.77c-3.657,1.648-7.274,3.416-10.85,5.264c-1.246-2.652-2.451-5.345-3.376-8.198
		c-0.161-0.522-0.964-0.321-0.844,0.241c0.723,2.853,1.607,5.787,2.692,8.72c-0.362,0.161-0.683,0.322-1.005,0.522
		c-0.643,0.322-0.201,1.487,0.482,1.206c0.322-0.161,0.643-0.281,0.964-0.442c1.447,3.777,3.215,7.354,5.586,10.448
		c0.603,0.804,1.849,0.121,1.366-0.804c-1.728-3.536-3.536-6.912-5.224-10.368c3.617-1.527,7.274-3.054,10.89-4.621
		c1.567,4.179,3.295,8.198,5.465,11.774c0.281,0.442,0.723,0.522,1.125,0.362l2.09,3.054c-6.47,4.461-12.94,8.841-19.45,13.221
		c-1.286-1.808-3.577-2.853-5.747-2.451c0-0.402,0-0.764-0.04-1.085c-0.281-2.492-1.487-4.943-3.576-6.349
		c-2.331-1.607-5.264-1.728-7.796-0.763c0.764-1.688,1.005-3.576,0.603-5.304c13.382-29.778,23.509-61.323,34.68-92.025l1.848,0.683
		c-0.362,1.005-0.563,2.09-0.643,3.215c-0.08,0.804,1.085,1.045,1.407,0.482l1.406,0.08c-0.522,1.206-0.884,2.451-1.206,3.778
		c-0.201,0.964,1.165,1.326,1.487,0.402c0.522-1.688,1.206-3.335,1.929-4.903l1.768,0.804c0,0.161,0.04,0.281,0.12,0.442
		c1.447,2.934,2.974,5.867,4.461,8.76c-3.536,1.447-6.992,2.934-10.448,4.501c-0.643,0.281-0.161,1.366,0.522,1.165
		C181.635,40.248,185.252,38.922,188.828,37.556z"/>
	<path style="fill:#FFFBCC;" d="M190.677,146.097c0.804,3.858,0,7.233-0.362,11.011c-0.04,0.121,0.04,0.201,0.08,0.281
		c-52.683-0.12-105.447-1.005-158.131-0.442c-5.505-5.345-5.907-13.985-3.737-20.937c2.371-7.675,7.394-11.895,14.668-14.708
		c0.121-0.04,0.201-0.121,0.281-0.201c2.291,6.952,7.314,12.659,15.11,14.346c1.366,0.321,2.291-1.607,0.965-2.291
		c-12.94-6.912-17.159-20.133-10.408-33.475C54.769,88.59,65.579,82.803,77.152,79.95c0.121-0.04,0.161-0.12,0.201-0.161
		c1.326,5.184,4.702,9.966,10.328,13.422c1.808,1.125,3.255-1.567,1.648-2.813c-24.272-18.485-1.326-27.608,6.309-38.98
		c1.849-2.733,3.014-5.023,3.818-8.198c1.607-6.47,0.442-13.623-2.893-19.289c-1.567-2.652-6.389-5.626-7.153-7.836
		C83.863,0.022,107.613,4.563,112.395,5.568c21.821,4.581,47.057,21.379,47.419,46.013c0,0.442,0.161,0.764,0.402,1.005
		c-7.434,19.57-14.708,39.221-20.535,59.194c-0.482-0.723-1.125-1.326-1.969-1.849c-4.3-2.612-10.368-1.366-13.542,2.451
		c-0.764,0.924,0.281,2.692,1.407,1.808c2.612-2.009,5.827-3.175,9.122-2.13c5.184,1.688,1.969,5.907,0.884,9.202
		c-1.447-0.924-2.974-1.768-4.621-2.331c-1.125-0.362-1.688,1.246-0.764,1.849c1.728,1.085,3.416,2.13,4.943,3.496
		c0.04,0.04,0.08,0.08,0.121,0.121c0,0.442,0.362,0.763,0.804,0.804c0.804,0.804,1.527,1.567,2.773,1.728
		c0.563,0.04,1.125-0.563,1.085-1.085c-0.04-1.125-0.723-1.929-1.567-2.612c2.291-1.929,5.747-2.572,8.118-0.322
		c1.246,1.206,1.889,3.014,1.768,4.742c-0.08,1.567-1.206,2.773-1.165,4.34c0,0.804,0.763,1.366,1.567,1.165
		c1.246-0.281,2.009-1.366,2.451-2.693c2.411-0.763,5.345,0.804,3.898,3.978c-0.522,1.165,0.362,2.692,1.768,2.291
		c3.938-1.125,10.488-0.04,8.439,5.586c-0.603,1.648,2.049,2.733,2.853,1.165c1.406-2.773,0.763-5.947-1.487-8.158
		c-2.21-2.21-5.304-2.612-8.238-2.13c0-0.322-0.08-0.603-0.121-0.924c8.158-4.461,16.356-9.162,24.473-14.025
		c7.716,8.359,2.21,17.039-2.371,25.638c-0.723,1.407,1.165,3.054,2.291,1.768c1.969-2.17,3.617-4.702,4.863-7.354
		C188.909,140.752,190.114,143.244,190.677,146.097z M181.635,137.658c0.442-2.17,0.241-4.3-0.522-6.389
		c-0.322-0.884-1.688-0.522-1.406,0.362c0.643,1.969,0.763,3.858,0.522,5.867C180.148,138.261,181.474,138.462,181.635,137.658z
		 M174.964,143.847c2.411-3.215,3.376-6.912,3.094-10.89c-0.04-0.844-1.326-0.844-1.286,0c0.08,3.657-0.964,7.113-2.934,10.207
		C173.397,143.887,174.482,144.49,174.964,143.847z M152.621,65.364c0.241-0.884-1.125-1.527-1.527-0.643
		c-1.889,3.898-3.215,8.158-4.461,12.297c-0.201,0.683,0.884,1.165,1.206,0.482C149.607,73.602,151.456,69.543,152.621,65.364z
		 M149.728,58.894c0.362-1.206-1.406-1.648-1.808-0.522c-1.206,3.295-2.291,6.59-3.215,9.966c-0.281,1.085,1.246,1.447,1.648,0.482
		C147.638,65.565,148.723,62.23,149.728,58.894z M138.034,28.152c0.844,0.924,2.13-0.402,1.366-1.326
		c-2.692-3.094-6.43-5.425-10.488-6.229c-0.964-0.201-1.326,1.125-0.402,1.447C132.247,23.33,135.382,25.259,138.034,28.152z
		 M135.301,20.678c0.763,0.603,1.808-0.723,1.045-1.366c-3.576-3.094-7.756-4.983-12.417-5.787
		c-1.165-0.201-1.688,1.527-0.522,1.768C127.746,16.217,131.725,18.106,135.301,20.678z M119.95,76.897
		c1.045-2.773,0.964-5.666-0.121-8.439c-0.281-0.723-1.447-0.442-1.206,0.321c0.804,2.612,0.643,5.144-0.362,7.676
		C117.861,77.5,119.548,77.942,119.95,76.897z M100.38,149.151c0.804,0.161,1.165-1.005,0.362-1.246
		c-2.692-0.804-5.425-1.045-8.238-1.005c-0.763,0-0.763,1.246,0,1.246C95.196,148.187,97.808,148.589,100.38,149.151z
		 M97.044,152.768c0.924-0.04,0.965-1.406,0-1.447c-3.014-0.241-6.028-0.201-9.042-0.161c-1.125,0-1.125,1.768,0,1.768
		C91.017,152.969,94.03,153.009,97.044,152.768z M92.905,118.329c0.603,0.12,0.844-0.764,0.241-0.924
		c-2.291-0.603-4.3-1.889-5.706-3.777c-0.402-0.522-1.286-0.04-0.884,0.522C88.163,116.36,90.213,117.726,92.905,118.329z
		 M91.017,65.645c0.563-0.522-0.161-1.487-0.844-1.085c-2.934,1.969-4.42,5.104-4.42,8.6c0,0.924,1.326,0.884,1.407,0
		C87.4,70.186,88.847,67.695,91.017,65.645z M69.156,86.622c0.764-0.482,0.281-1.808-0.603-1.487
		c-4.621,1.688-8.359,5.304-10.287,9.765c-0.442,1.005,0.884,1.849,1.487,0.884C62.123,91.887,65.298,88.953,69.156,86.622z
		 M66.182,94.217c0.844-0.523,0.121-1.608-0.723-1.246c-3.416,1.407-5.827,4.501-6.309,8.118c-0.161,1.045,1.286,1.527,1.608,0.442
		C61.641,98.437,63.409,95.945,66.182,94.217z M36.927,136.854c0.402-0.884-0.844-1.688-1.366-0.804
		c-1.487,2.652-2.291,5.465-2.652,8.479c-0.121,0.924,1.527,1.165,1.688,0.201C34.998,141.998,35.842,139.386,36.927,136.854z
		 M32.185,140.109c0.241-0.643-0.804-1.085-1.085-0.482c-1.607,3.536-1.487,7.193,0.08,10.73c0.241,0.522,1.206,0.121,0.964-0.402
		C30.979,146.7,31.1,143.364,32.185,140.109z"/>
	<path style="fill:#1D1D1B;" d="M185.413,184.354c0.442-0.924,1.768-0.12,1.366,0.804c-1.165,2.693-2.25,5.425-3.617,7.997
		c-0.402,0.804-1.808,0.241-1.487-0.603C182.76,189.739,184.127,187.046,185.413,184.354z"/>
	<path style="fill:#FACCE3;" d="M190.315,180.818c-2.853,6.992-5.224,14.306-7.394,21.7c-3.697-4.541-8.359-8.519-12.618-12.457
		c-4.26-3.938-8.64-7.756-13.181-11.292C168.173,178.889,179.264,179.491,190.315,180.818z M186.779,185.158
		c0.402-0.924-0.924-1.728-1.366-0.804c-1.286,2.693-2.652,5.385-3.737,8.198c-0.322,0.844,1.085,1.407,1.487,0.603
		C184.529,190.583,185.614,187.85,186.779,185.158z"/>
	<path style="fill:#1D1D1B;" d="M183.966,167.998c0.764,0.04,0.764,1.205,0,1.246c-1.366,0.08-2.692,0.121-4.018,0.08
		c-0.924,0-0.924-1.406,0-1.406C181.274,167.878,182.6,167.918,183.966,167.998z"/>
	<path style="fill:#1D1D1B;" d="M183.604,165.025c0.804,0.201,0.522,1.206-0.161,1.286c-3.295,0.442-6.751-0.161-10.046-0.402
		c-1.045-0.08-1.045-1.648,0-1.607C176.773,164.422,180.349,164.221,183.604,165.025z"/>
	<path style="fill:#1D1D1B;" d="M181.354,23.089c0.522-0.723,1.607-0.08,1.206,0.723c-0.321,0.643-0.643,1.286-0.964,1.969
		c-0.723,1.567-1.407,3.215-1.929,4.903c-0.322,0.924-1.688,0.563-1.487-0.402c0.322-1.326,0.683-2.572,1.206-3.778
		C179.867,25.339,180.51,24.174,181.354,23.089z"/>
	<path style="fill:#1D1D1B;" d="M181.113,131.269c0.764,2.09,0.964,4.219,0.522,6.389c-0.161,0.804-1.487,0.603-1.406-0.161
		c0.241-2.009,0.12-3.898-0.522-5.867C179.425,130.746,180.791,130.385,181.113,131.269z"/>
	<path style="fill:#1D1D1B;" d="M178.862,19.874c0.603-0.764,1.728,0.201,1.286,1.005c-0.884,1.688-1.648,3.376-2.049,5.305
		c0,0.08-0.04,0.161-0.12,0.241c-0.322,0.563-1.487,0.321-1.407-0.482c0.08-1.125,0.281-2.21,0.643-3.215
		C177.617,21.682,178.139,20.758,178.862,19.874z"/>
	<path style="fill:#1D1D1B;" d="M178.059,132.956c0.281,3.978-0.683,7.676-3.094,10.89c-0.482,0.643-1.567,0.04-1.125-0.683
		c1.969-3.094,3.014-6.55,2.934-10.207C176.733,132.112,178.019,132.112,178.059,132.956z"/>
	<path style="fill:#EF67AC;" d="M181.836,206.135c-2.492,9.162-4.581,18.566-6.269,27.929
		c-14.788-19.57-32.992-38.016-50.835-54.813c9.564-0.321,19.128-0.563,28.692-0.522c0.04,0.08,0.04,0.121,0.121,0.201
		c4.702,4.581,9.604,8.961,14.346,13.502C172.513,196.932,176.813,202.156,181.836,206.135z M170.504,218.994
		c0.844,0.402,1.527-0.723,0.723-1.246c-2.693-1.889-5.224-3.978-7.314-6.51c-0.563-0.643-1.768,0.241-1.206,0.964
		C164.838,215.056,167.329,217.386,170.504,218.994z M169.459,213.529c0.844,0.522,1.567-0.723,0.764-1.286
		c-2.893-2.13-5.546-4.501-7.675-7.394c-0.563-0.764-1.889-0.04-1.326,0.804C163.431,208.827,166.124,211.56,169.459,213.529z"/>
	<path style="fill:#FDE9CC;" d="M174.522,83.367c1.366,3.778,2.813,7.555,4.34,11.212c-2.853,1.165-5.706,2.411-8.519,3.657
		c-1.527-3.496-3.135-6.952-4.702-10.328C168.615,86.381,171.549,84.854,174.522,83.367z"/>
	<path style="fill:#FACCE3;" d="M174.563,236.796c0.161,0.121,0.321,0.201,0.482,0.241c-1.648,9.564-2.974,19.128-3.978,28.451
		c-1.407-0.08-2.773-0.161-4.179-0.201c0.08-0.442-0.04-0.924-0.402-1.326c-25.116-26.924-47.459-56.26-72.093-83.586
		c9.363-0.281,18.686-0.683,28.05-1.045c-0.04,0.281,0.04,0.563,0.241,0.804C139.32,199.223,156.318,219.235,174.563,236.796z
		 M117.298,199.866c0.764,0.522,1.447-0.683,0.723-1.206c-3.014-2.17-5.706-4.782-7.836-7.756c-0.522-0.723-1.688-0.08-1.205,0.683
		C111.23,194.923,113.922,197.655,117.298,199.866z M110.185,197.012c0.201,0.482,1.085,0.121,0.884-0.402
		c-1.165-2.813-2.733-5.345-4.661-7.716c-0.281-0.322-0.844,0.121-0.603,0.482C107.533,191.748,108.939,194.32,110.185,197.012z"/>
	<path style="fill:#1D1D1B;" d="M171.227,217.748c0.804,0.522,0.12,1.648-0.723,1.246c-3.175-1.607-5.666-3.938-7.796-6.791
		c-0.563-0.723,0.643-1.607,1.206-0.964C166.003,213.77,168.535,215.859,171.227,217.748z"/>
	<path style="fill:#1D1D1B;" d="M170.222,212.243c0.804,0.563,0.08,1.808-0.764,1.286c-3.335-1.969-6.028-4.702-8.238-7.876
		c-0.563-0.844,0.764-1.567,1.326-0.804C164.677,207.742,167.329,210.113,170.222,212.243z"/>
	<path style="fill:#EF67AC;" d="M163.069,265.087c-8.761-0.362-17.481-0.241-26.201,0.04
		c-26.523-29.215-54.934-57.305-83.385-84.671c12.779,0.563,25.598,0.402,38.377,0C114.083,209.751,137.793,238.363,163.069,265.087
		z M132.85,251.625c0.804,0.442,1.447-0.723,0.723-1.246c-2.733-1.889-5.224-4.179-7.233-6.791c-0.563-0.723-1.808-0.04-1.246,0.723
		C127.184,247.325,129.675,249.736,132.85,251.625z M132.368,257.894c0.442,0.442,1.125-0.241,0.683-0.723
		c-1.125-1.206-2.291-2.371-3.456-3.536c-0.522-0.522-1.286,0.281-0.804,0.764C129.997,255.563,131.122,256.768,132.368,257.894z
		 M80.809,196.651c0.563,0.764,1.889,0.04,1.326-0.764c-0.844-1.206-1.688-2.371-2.492-3.536c-0.603-0.844-1.969-0.04-1.366,0.804
		C79.081,194.32,79.925,195.485,80.809,196.651z"/>
	<path style="fill:#1D1D1B;" d="M151.094,64.721c0.402-0.884,1.768-0.241,1.527,0.643c-1.165,4.179-3.014,8.238-4.782,12.136
		c-0.321,0.683-1.406,0.201-1.206-0.482C147.879,72.879,149.205,68.619,151.094,64.721z"/>
	<path style="fill:#1D1D1B;" d="M147.919,58.372c0.402-1.125,2.17-0.683,1.808,0.522c-1.005,3.335-2.09,6.671-3.376,9.926
		c-0.402,0.964-1.929,0.603-1.648-0.482C145.629,64.962,146.714,61.667,147.919,58.372z"/>
	<path style="fill:#1D1D1B;" d="M139.4,26.826c0.764,0.924-0.522,2.25-1.366,1.326c-2.652-2.893-5.787-4.822-9.524-6.108
		c-0.924-0.321-0.563-1.648,0.402-1.447C132.97,21.401,136.708,23.732,139.4,26.826z"/>
	<path style="fill:#1D1D1B;" d="M136.346,19.311c0.764,0.643-0.281,1.969-1.045,1.366c-3.577-2.572-7.555-4.461-11.895-5.385
		c-1.165-0.241-0.643-1.969,0.522-1.768C128.59,14.328,132.769,16.217,136.346,19.311z"/>
	<path style="fill:#1D1D1B;" d="M133.573,250.379c0.723,0.522,0.08,1.688-0.723,1.246c-3.175-1.889-5.666-4.3-7.756-7.314
		c-0.563-0.764,0.683-1.447,1.246-0.723C128.349,246.2,130.841,248.49,133.573,250.379z"/>
	<path style="fill:#1D1D1B;" d="M133.051,257.17c0.442,0.482-0.241,1.165-0.683,0.723c-1.246-1.125-2.371-2.331-3.576-3.496
		c-0.482-0.482,0.281-1.286,0.804-0.764C130.76,254.799,131.926,255.965,133.051,257.17z"/>
	<path style="fill:#FACCE3;" d="M132.569,265.288c-7.394,0.322-14.748,0.723-22.183,1.165c-4.059,0.241-8.158,0.442-12.216,0.603
		c-18.164-21.379-38.538-41.632-57.907-62.006c-0.965-8.6-2.009-17.159-3.255-25.719c4.421,0.442,8.801,0.723,13.221,0.965
		C76.791,209.269,104.117,238.162,132.569,265.288z M95.517,260.586c0.603,0.522,1.688-0.201,1.165-0.924
		c-1.929-2.773-4.42-5.144-6.711-7.635c-0.683-0.723-1.728,0.362-1.085,1.125C91.017,255.643,93.026,258.376,95.517,260.586z
		 M94.03,253.031c0.603,0.563,1.808-0.201,1.246-0.964c-1.567-2.009-3.376-3.858-5.144-5.706c-0.764-0.844-2.009,0.402-1.246,1.246
		C90.574,249.455,92.182,251.343,94.03,253.031z M58.426,194.682c0.563,0.523,1.366-0.281,0.844-0.844
		c-2.773-3.054-5.666-6.028-8.6-9.001c-0.442-0.442-1.165,0.241-0.723,0.723C52.76,188.654,55.533,191.708,58.426,194.682z
		 M57.341,199.584c0.442,0.563,1.447,0.04,1.005-0.603c-1.688-2.492-3.737-4.581-6.148-6.349c-0.683-0.442-1.326,0.643-0.643,1.125
		C53.805,195.365,55.734,197.294,57.341,199.584z"/>
	<path style="fill:#1D1D1B;" d="M119.83,68.458c1.085,2.773,1.165,5.666,0.121,8.439c-0.402,1.045-2.09,0.603-1.688-0.442
		c1.005-2.532,1.165-5.063,0.362-7.676C118.383,68.016,119.548,67.735,119.83,68.458z"/>
	<path style="fill:#1D1D1B;" d="M118.021,198.66c0.723,0.522,0.04,1.728-0.723,1.206c-3.376-2.21-6.068-4.943-8.318-8.278
		c-0.482-0.764,0.683-1.406,1.205-0.683C112.315,193.878,115.007,196.49,118.021,198.66z"/>
	<path style="fill:#1D1D1B;" d="M111.069,196.611c0.201,0.522-0.683,0.884-0.884,0.402c-1.246-2.692-2.652-5.264-4.38-7.635
		c-0.241-0.362,0.322-0.804,0.603-0.482C108.337,191.266,109.904,193.798,111.069,196.611z"/>
	<path style="fill:#1D1D1B;" d="M100.741,147.905c0.804,0.241,0.442,1.406-0.362,1.246c-2.572-0.563-5.184-0.964-7.876-1.005
		c-0.763,0-0.763-1.246,0-1.246C95.316,146.861,98.049,147.102,100.741,147.905z"/>
	<path style="fill:#1D1D1B;" d="M97.044,151.321c0.965,0.04,0.924,1.407,0,1.447c-3.014,0.241-6.028,0.201-9.042,0.161
		c-1.125,0-1.125-1.768,0-1.768C91.017,151.12,94.03,151.08,97.044,151.321z"/>
	<path style="fill:#1D1D1B;" d="M96.723,167.958c0.723,0.161,0.563,1.366-0.161,1.286c-2.13-0.161-4.179-0.442-6.269-0.723
		c-0.964-0.161-0.563-1.607,0.402-1.487C92.704,167.315,94.714,167.596,96.723,167.958z"/>
	<path style="fill:#1D1D1B;" d="M96.683,259.662c0.522,0.723-0.563,1.447-1.165,0.924c-2.492-2.21-4.501-4.943-6.631-7.434
		c-0.643-0.764,0.402-1.848,1.085-1.125C92.262,254.518,94.754,256.889,96.683,259.662z"/>
	<path style="fill:#1D1D1B;" d="M95.276,252.067c0.563,0.764-0.643,1.527-1.246,0.964c-1.849-1.688-3.456-3.576-5.144-5.425
		c-0.763-0.844,0.482-2.09,1.246-1.246C91.901,248.209,93.709,250.057,95.276,252.067z"/>
	<path style="fill:#1D1D1B;" d="M93.146,117.405c0.603,0.161,0.362,1.045-0.241,0.924c-2.692-0.603-4.742-1.969-6.349-4.179
		c-0.402-0.563,0.482-1.045,0.884-0.522C88.847,115.516,90.856,116.802,93.146,117.405z"/>
	<path style="fill:#1D1D1B;" d="M90.173,64.56c0.683-0.402,1.406,0.563,0.844,1.085c-2.17,2.049-3.617,4.541-3.858,7.515
		c-0.08,0.884-1.407,0.924-1.407,0C85.752,69.664,87.239,66.529,90.173,64.56z"/>
	<path style="fill:#EF67AC;" d="M94.111,267.217c-4.38,0.161-8.72,0.281-13.101,0.281c-2.411,0-5.706,0.121-9.323,0.201
		c-4.38-4.983-10.167-9.002-14.828-13.703c-4.421-4.461-8.439-9.243-12.699-13.784c-1.206-10.488-2.291-21.017-3.456-31.506
		C56.698,229.241,74.621,250.098,94.111,267.217z M60.315,245.034c0.764,0.603,1.808-0.362,1.085-1.085
		c-2.652-2.612-5.224-5.345-7.354-8.399c-0.603-0.844-1.929-0.08-1.366,0.764C54.849,239.569,57.301,242.543,60.315,245.034z"/>
	<path style="fill:#1D1D1B;" d="M82.135,195.887c0.563,0.804-0.764,1.527-1.326,0.764c-0.884-1.165-1.728-2.331-2.532-3.496
		c-0.603-0.844,0.764-1.648,1.366-0.804C80.448,193.516,81.292,194.682,82.135,195.887z"/>
	<path style="fill:#1D1D1B;" d="M68.553,85.135c0.884-0.322,1.366,1.005,0.603,1.487c-3.858,2.331-7.032,5.264-9.403,9.162
		c-0.603,0.965-1.929,0.121-1.487-0.884C60.194,90.44,63.931,86.823,68.553,85.135z"/>
	<path style="fill:#FACCE3;" d="M67.588,267.739c-7.595,0.04-15.833-0.402-20.736-2.813c0.241-0.402,0.402-0.844,0.321-1.366
		c-1.005-6.631-1.808-13.301-2.612-19.972c3.175,4.34,6.832,8.359,10.488,12.176C58.828,259.702,62.967,264.364,67.588,267.739z
		 M54.97,263.962c0.522,0.442,1.326-0.321,0.764-0.804c-1.286-1.206-2.652-2.371-3.978-3.536c-0.563-0.442-1.366,0.322-0.844,0.844
		C52.237,261.631,53.604,262.796,54.97,263.962z"/>
	<path style="fill:#1D1D1B;" d="M65.458,92.972c0.844-0.362,1.567,0.723,0.723,1.246c-2.773,1.728-4.541,4.219-5.425,7.314
		c-0.322,1.085-1.768,0.603-1.608-0.442C59.632,97.472,62.043,94.378,65.458,92.972z"/>
	<path style="fill:#1D1D1B;" d="M61.4,243.949c0.723,0.723-0.321,1.688-1.085,1.085c-3.014-2.492-5.465-5.465-7.635-8.72
		c-0.563-0.844,0.764-1.607,1.366-0.764C56.176,238.605,58.747,241.337,61.4,243.949z"/>
	<path style="fill:#1D1D1B;" d="M59.27,193.838c0.522,0.563-0.281,1.366-0.844,0.844c-2.893-2.974-5.666-6.028-8.479-9.122
		c-0.442-0.482,0.281-1.165,0.723-0.723C53.604,187.81,56.497,190.784,59.27,193.838z"/>
	<path style="fill:#1D1D1B;" d="M58.346,198.981c0.442,0.643-0.563,1.165-1.005,0.603c-1.607-2.291-3.536-4.219-5.787-5.827
		c-0.683-0.482-0.04-1.567,0.643-1.125C54.608,194.4,56.658,196.49,58.346,198.981z"/>
	<path style="fill:#1D1D1B;" d="M55.734,263.158c0.563,0.482-0.241,1.246-0.764,0.804c-1.366-1.165-2.733-2.331-4.059-3.496
		c-0.522-0.522,0.281-1.286,0.844-0.844C53.081,260.787,54.448,261.952,55.734,263.158z"/>
	<path style="fill:#1D1D1B;" d="M45.486,167.878c0.844,0.121,0.643,1.487-0.161,1.447c-3.054-0.281-6.028-0.683-9.042-1.045
		c-0.884-0.121-0.924-1.527,0-1.447C39.338,167.154,42.432,167.476,45.486,167.878z"/>
	<path style="fill:#1D1D1B;" d="M39.78,171.535c0.764,0.04,0.764,1.165,0,1.165c-2.733,0-5.305-0.482-7.836-1.567
		c-0.522-0.241-0.121-1.125,0.402-0.924C34.797,170.892,37.248,171.414,39.78,171.535z"/>
	<path style="fill:#1D1D1B;" d="M35.56,136.051c0.522-0.884,1.768-0.08,1.366,0.804c-1.085,2.532-1.929,5.144-2.331,7.876
		c-0.161,0.964-1.808,0.723-1.688-0.201C33.27,141.516,34.073,138.703,35.56,136.051z"/>
	<path style="fill:#1D1D1B;" d="M31.1,139.627c0.281-0.603,1.326-0.161,1.085,0.482c-1.085,3.255-1.206,6.59-0.04,9.846
		c0.241,0.522-0.723,0.924-0.964,0.402C29.613,146.82,29.492,143.164,31.1,139.627z"/>
</g>
<g>
</g>
<g>
</g>
<g>
</g>
<g>
</g>
<g>
</g>
<g>
</g>
<g>
</g>
<g>
</g>
<g>
</g>
<g>
</g>
<g>
</g>
<g>
</g>
<g>
</g>
<g>
</g>
<g>
</g>
</svg>
