<svg width="0" height="0" class="hidden">
  <symbol version="1.1" id="delivery-motorbike-svgrepo-com" xmlns="http://www.w3.org/2000/svg" xmlns:xlink="http://www.w3.org/1999/xlink" x="0px" y="0px" xml:space="preserve" viewBox="0 0 512 512">
    <g transform="translate(1 1)">
      <g>
        <path d="M161.133,429.933c0-23.893-18.773-42.667-42.667-42.667S75.8,406.04,75.8,429.933
			c0,23.893,18.773,42.667,42.667,42.667S161.133,453.827,161.133,429.933"></path>
        <path d="M493.933,429.933c0-23.893-18.773-42.667-42.667-42.667c-23.893,0-42.667,18.773-42.667,42.667
			c0,23.893,18.773,42.667,42.667,42.667C475.16,472.6,493.933,453.827,493.933,429.933"></path>
        <path d="M489.667,347.16c-11.093-12.8-29.013-19.627-46.933-19.627H434.2
			c-5.12-26.453-23.893-48.64-48.64-58.88L383,267.8v-93.867h-85.333v8.533c9.387,0,17.067,7.68,17.067,17.067
			s-7.68,17.067-17.067,17.067v8.533h51.2v102.4V395.8H212.333l11.947-26.453c3.413-11.093,5.12-22.187,5.12-33.28
			c0-14.507-11.093-25.6-25.6-25.6H41.667c-14.507,0-25.6,11.093-25.6,25.6v10.24c0,4.267,2.56,8.533,5.973,10.24
			c11.093,7.68,14.507,22.187,7.68,34.133l-11.093,18.773c-5.12,6.827-3.413,16.213,4.267,19.627c2.56,0,4.267,0.853,5.973,0.853
			H50.2c0-37.547,30.72-68.267,68.267-68.267s68.267,30.72,68.267,68.267H383c0-37.547,30.72-68.267,68.267-68.267
			c30.72,0,40.107,5.973,51.2,17.067C502.467,366.787,497.347,356.547,489.667,347.16"></path>
      </g>
      <path d="M48.493,428.227c-7.68-3.413-9.387-13.653-4.267-19.627l11.093-18.773
		c6.827-11.093,3.413-25.6-7.68-33.28c-3.413-1.707-5.973-5.12-5.973-10.24v-10.24c0-14.507,11.093-25.6,25.6-25.6h-25.6
		c-14.507,0-25.6,11.093-25.6,25.6v10.24c0,4.267,2.56,8.533,5.973,10.24c11.093,7.68,14.507,22.187,7.68,34.133l-11.093,18.773
		c-5.12,6.827-3.413,16.213,4.267,19.627c2.56,0,4.267,0.853,5.973,0.853H50.2v-0.853C49.347,429.08,49.347,429.08,48.493,428.227"></path>
      <polygon points="417.133,208.067 400.067,208.067 383,199.533 383,165.4 400.067,156.867 417.133,156.867 	
		"></polygon>
      <g>
        <path d="M237.933,80.067c0-23.893-18.773-42.667-42.667-42.667S152.6,56.173,152.6,80.067
			s18.773,42.667,42.667,42.667S237.933,103.96,237.933,80.067"></path>
        <path d="M285.72,275.48c-3.413-9.387-11.947-16.213-22.187-16.213l0,0h-42.667V216.6h75.947
			c8.533,0,16.213-5.973,17.92-14.507c1.707-11.093-6.827-19.627-17.067-19.627h-59.733V152.6c0-16.213-13.653-29.867-29.867-29.867
			H191c-16.213,0-29.867,13.653-29.867,29.867v128c0,16.213,13.653,29.867,29.867,29.867h64l25.6,85.333h42.667L285.72,275.48z"></path>
      </g>
      <polygon points="7.533,310.467 127,310.467 127,191 7.533,191 	"></polygon>
      <polygon points="7.533,310.467 24.6,310.467 24.6,191 7.533,191 	"></polygon>
      <polygon points="50.2,225.133 84.333,225.133 84.333,191 50.2,191 	"></polygon>
      <path d="M118.467,447c-9.387,0-17.067-7.68-17.067-17.067s7.68-17.067,17.067-17.067s17.067,7.68,17.067,17.067
		S127.853,447,118.467,447"></path>
      <path d="M118.467,481.133c-28.16,0-51.2-23.04-51.2-51.2s23.04-51.2,51.2-51.2s51.2,23.04,51.2,51.2
		S146.627,481.133,118.467,481.133z M118.467,395.8c-18.773,0-34.133,15.36-34.133,34.133s15.36,34.133,34.133,34.133
		s34.133-15.36,34.133-34.133S137.24,395.8,118.467,395.8z"></path>
      <path d="M451.267,447c-9.387,0-17.067-7.68-17.067-17.067s7.68-17.067,17.067-17.067s17.067,7.68,17.067,17.067
		S460.653,447,451.267,447"></path>
      <path d="M451.267,481.133c-28.16,0-51.2-23.04-51.2-51.2s23.04-51.2,51.2-51.2s51.2,23.04,51.2,51.2
		S479.427,481.133,451.267,481.133z M451.267,395.8c-18.773,0-34.133,15.36-34.133,34.133s15.36,34.133,34.133,34.133
		s34.133-15.36,34.133-34.133S470.04,395.8,451.267,395.8z"></path>
      <path d="M127,319H7.533C2.413,319-1,315.587-1,310.467V191c0-5.12,3.413-8.533,8.533-8.533H127c5.12,0,8.533,3.413,8.533,8.533
		v119.467C135.533,315.587,132.12,319,127,319z M16.067,301.933h102.4v-102.4h-102.4V301.933z"></path>
      <path d="M195.267,131.267c-28.16,0-51.2-23.04-51.2-51.2s23.04-51.2,51.2-51.2s51.2,23.04,51.2,51.2
		S223.427,131.267,195.267,131.267z M195.267,45.933c-18.773,0-34.133,15.36-34.133,34.133s15.36,34.133,34.133,34.133
		S229.4,98.84,229.4,80.067S214.04,45.933,195.267,45.933z"></path>
      <path d="M417.133,216.6h-17.067c-1.707,0-2.56,0-3.413-0.853l-17.067-8.533c-3.413-1.707-5.12-4.267-5.12-7.68V165.4
		c0-3.413,1.707-5.973,5.12-7.68l17.067-8.533c0.853-0.853,1.707-0.853,3.413-0.853h17.067c5.12,0,8.533,3.413,8.533,8.533v51.2
		C425.667,213.187,422.253,216.6,417.133,216.6z M401.773,199.533h6.827V165.4h-6.827l-10.24,5.12v23.893L401.773,199.533z"></path>
      <path d="M220.867,225.133c-14.507,0-25.6-11.093-25.6-25.6v-25.6c0-5.12,3.413-8.533,8.533-8.533c5.12,0,8.533,3.413,8.533,8.533
		v25.6c0,5.12,3.413,8.533,8.533,8.533c5.12,0,8.533,3.413,8.533,8.533C229.4,221.72,225.987,225.133,220.867,225.133z"></path>
      <path d="M323.267,404.333H280.6c-3.413,0-6.827-2.56-8.533-5.973L249.027,319H191c-21.333,0-38.4-17.067-38.4-38.4v-128
		c0-21.333,17.067-38.4,38.4-38.4h17.067c21.333,0,38.4,17.067,38.4,38.4v21.333h51.2c7.68,0,14.507,3.413,19.627,9.387
		c5.12,5.973,6.827,13.653,5.973,20.48c-1.707,11.947-12.8,21.333-26.453,21.333H229.4v25.6h34.133
		c13.653,0,26.453,8.533,29.867,22.187l38.4,120.32c0.853,2.56,0,5.12-0.853,7.68C328.387,402.627,325.827,404.333,323.267,404.333z
		 M286.573,387.267h24.747L277.187,278.04l0,0c-1.707-5.973-6.827-10.24-13.653-10.24h-42.667c-5.12,0-8.533-3.413-8.533-8.533
		V216.6c0-2.56,0.853-4.267,2.56-5.973c1.707-1.707,3.413-2.56,5.973-2.56h75.947c4.267,0,8.533-3.413,9.387-6.827
		c0-2.56,0-5.12-1.707-6.827c-1.707-2.56-4.267-3.413-6.827-3.413h-59.733c-5.12,0-8.533-3.413-8.533-8.533V152.6
		c0-11.947-9.387-21.333-21.333-21.333H191c-11.947,0-21.333,9.387-21.333,21.333v128c0,11.947,9.387,21.333,21.333,21.333h64
		c3.413,0,6.827,2.56,8.533,5.973L286.573,387.267z"></path>
      <path d="M383,438.467H186.733c-5.12,0-8.533-3.413-8.533-8.533c0-33.28-26.453-59.733-59.733-59.733s-59.733,26.453-59.733,59.733
		c0,5.12-3.413,8.533-8.533,8.533H28.867c-3.413,0-6.827-0.853-9.387-2.56c-5.973-2.56-10.24-8.533-11.093-14.507
		c-1.707-5.973,0-12.8,3.413-17.067l10.24-17.92c4.267-7.68,2.56-17.067-5.12-21.333c-5.973-5.12-9.387-11.093-9.387-18.773v-10.24
		c0-18.773,15.36-34.133,34.133-34.133H203.8c9.387,0,17.92,3.413,23.893,10.24c6.827,6.827,10.24,15.36,10.24,23.893
		c0,11.947-1.707,23.893-5.973,35.84l-6.827,15.36h115.2v-153.6h-42.667c-5.12,0-8.533-3.413-8.533-8.533V216.6
		c0-5.12,3.413-8.533,8.533-8.533s8.533-3.413,8.533-8.533c0-5.12-3.413-8.533-8.533-8.533s-8.533-3.413-8.533-8.533v-8.533
		c0-5.12,3.413-8.533,8.533-8.533H383c5.12,0,8.533,3.413,8.533,8.533v87.893C415.427,272.92,433.347,293.4,441.027,319h1.707
		c21.333,0,40.96,8.533,53.76,23.04l0,0C505.88,353.133,511,365.08,511,378.733c0,3.413-1.707,6.827-5.12,7.68
		c-3.413,1.707-6.827,0.853-9.387-1.707c-9.387-9.387-17.067-14.507-45.227-14.507c-33.28,0-59.733,26.453-59.733,59.733
		C391.533,435.053,388.12,438.467,383,438.467z M194.413,421.4h180.053c4.267-38.4,36.693-68.267,75.947-68.267
		c16.213,0,27.307,1.707,35.84,5.12c-0.853-1.707-2.56-3.413-4.267-5.12l0,0c-9.387-11.093-24.747-17.067-40.96-17.067h-8.533
		c-4.267,0-7.68-2.56-8.533-6.827c-5.12-23.893-21.333-43.52-43.52-52.907l-2.56-0.853c-1.707-0.853-3.413-4.267-3.413-7.68v-85.333
		H316.44c4.267,4.267,6.827,10.24,6.827,17.067s-2.56,12.8-6.827,17.067h32.427c5.12,0,8.533,3.413,8.533,8.533V395.8
		c0,5.12-3.413,8.533-8.533,8.533H212.333c-2.56,0-5.973-1.707-6.827-4.267s-1.707-5.12-0.853-7.68l11.947-26.453
		c3.413-9.387,4.267-19.627,4.267-29.867c0-4.267-1.707-8.533-5.12-11.947c-3.413-3.413-7.68-5.12-11.947-5.12H41.667
		c-9.387,0-17.067,7.68-17.067,17.067v10.24c0,1.707,1.707,2.56,2.56,3.413c14.507,9.387,19.627,29.013,10.24,44.373l-11.093,18.773
		l-0.853,0.853c-0.853,1.707-0.853,3.413-0.853,4.267c0,0.853,0.853,2.56,2.56,3.413c0.853,0,0.853,0,1.707,0h12.8
		c4.267-38.4,36.693-68.267,75.947-68.267S190.147,383,194.413,421.4z"></path>
      <path d="M84.333,233.667H50.2c-5.12,0-8.533-3.413-8.533-8.533V191c0-5.12,3.413-8.533,8.533-8.533h34.133
		c5.12,0,8.533,3.413,8.533,8.533v34.133C92.867,230.253,89.453,233.667,84.333,233.667z M58.733,216.6H75.8v-17.067H58.733V216.6z"></path>
    </g>
    <g></g>
    <g></g>
    <g></g>
    <g></g>
    <g></g>
    <g></g>
    <g></g>
    <g></g>
    <g></g>
    <g></g>
    <g></g>
    <g></g>
    <g></g>
    <g></g>
    <g></g>
  </symbol>
  <symbol id="facebook-5-logo-svgrepo-com" xmlns="http://www.w3.org/2000/svg" viewBox="0 -171.95 426.4 426.4">
    <title>facebook</title>
    <g id="_Group_">
      <path id="_Path_" d="M33.4 13c-5 0-6.5 2.2-6.5 7.1v8.1h13.4L39 41.4H26.9v39.9H10.8V41.4H0V28.3h10.8v-7.9C10.8 7 16.2 0 31.1 0c3.1 0 6.3.2 9.4.6V13"></path>
      <path id="_Compound_Path_" d="M41.4 53.1c0-14.8 7-26 21.8-26 8 0 12.9 4.1 15.3 9.3v-8.1h15.4v53.1H78.4v-8c-2.2 5.1-7.3 9.1-15.3 9.1-14.7 0-21.8-11.1-21.8-26m16.2.2c0 7.9 2.9 13.2 10.4 13.2 6.6 0 9.9-4.8 9.9-12.4v-5.4c0-7.6-3.4-12.4-9.9-12.4-7.5 0-10.4 5.2-10.4 13.2v3.8z"></path>
      <path id="_Path_2" d="M127.3 27.1c6.2 0 12.2 1.3 15.4 3.6l-3.6 11.4c-3.3-1.6-7-2.4-10.7-2.4-8.7 0-12.5 5-12.5 13.6v3.1c0 8.6 3.8 13.6 12.5 13.6 3.7 0 7.4-.9 10.7-2.5l3.6 11.4c-3.2 2.2-9.1 3.6-15.4 3.6-18.9 0-27.4-10.1-27.4-26.4v-2.5c0-16.3 8.5-26.5 27.4-26.5"></path>
      <path id="_Compound_Path_2" d="M144.8 56.8v-4.7c0-15.1 8.6-25 26.1-25 16.5 0 23.8 10 23.8 24.8v8.5h-33.8c.3 7.3 3.6 10.5 12.5 10.5 5.8 0 11.6-1.1 17.1-3.2l2.9 11c-4.2 2.2-12.9 3.9-20.6 3.9-20.4-.1-28-10.2-28-25.8m16.1-7h19.4v-1.3c0-5.8-2.3-10.4-9.4-10.4-7.2 0-10 4.6-10 11.7"></path>
      <path id="_Compound_Path_3" d="M254.3 56.5c0 14.8-7.1 26-21.9 26-8 0-13.6-4-15.8-9.1v8h-15.2V1.6L217.5.2v35.5c2.3-4.7 7.5-8.5 15-8.5 14.7 0 21.9 11.1 21.9 26m-16.2-.4c0-7.5-2.9-13.1-10.6-13.1-6.6 0-10.1 4.7-10.1 12.3v5.6c0 7.6 3.6 12.3 10.1 12.3 7.7 0 10.6-5.6 10.6-13.1v-4z"></path>
      <path id="_Compound_Path_4" d="M259.6 56.1v-2.7c0-15.3 8.7-26.3 26.4-26.3s26.4 11 26.4 26.3v2.7c0 15.3-8.7 26.3-26.4 26.3s-26.4-10.9-26.4-26.3m36.8-3.8c0-7-2.9-12.6-10.4-12.6s-10.4 5.6-10.4 12.6v5c0 7 2.9 12.6 10.4 12.6s10.4-5.6 10.4-12.6v-5z"></path>
      <path id="_Compound_Path_5" d="M317.9 56.1v-2.7c0-15.3 8.7-26.3 26.4-26.3s26.4 11 26.4 26.3v2.7c0 15.3-8.7 26.3-26.4 26.3s-26.4-10.9-26.4-26.3m36.8-3.8c0-7-2.9-12.6-10.4-12.6s-10.4 5.6-10.4 12.6v5c0 7 2.9 12.6 10.4 12.6s10.4-5.6 10.4-12.6v-5z"></path>
      <path id="_Path_3" d="M392.8 53.6l15.9-25.4h17l-16.6 26.3 17.3 26.9h-17.1l-16.5-26v26h-16V1.6l16-1.5"></path>
    </g>
  </symbol>
  <symbol version="1.1" xmlns="http://www.w3.org/2000/svg" xmlns:xlink="http://www.w3.org/1999/xlink" preserveAspectRatio="xMidYMid" viewBox="0 -183 512 512" id="instagram-svgrepo-com">
    <g fill="#343433">
      <path d="M27.1265503,0.902013423 C16.6803758,5.27806711 5.19645638,17.6253423 1.56950336,33.1348188 C-3.02389262,52.7806711 16.0910604,61.0895034 17.6588456,58.3688591 C19.5041074,55.168 14.2337718,54.0855839 13.1487785,43.8919732 C11.7467919,30.7260134 17.8675973,16.014604 25.571651,9.55962416 C27.0028456,8.36037584 26.9349799,10.0295302 26.9349799,13.1169933 C26.9349799,18.6381745 26.6300134,68.2016644 26.6300134,78.5456107 C26.6300134,92.5422819 26.0518658,96.9621477 25.0132617,101.329611 C23.9617718,105.75549 22.2702819,108.745879 23.5511409,109.897879 C24.9831946,111.18647 31.0971275,108.121342 34.6364564,103.181745 C38.8802148,97.2576644 40.3655302,90.1429262 40.632698,82.4165369 C40.9548456,73.102604 40.9411007,58.3233289 40.9548456,49.8933691 C40.9668725,42.1618255 41.0845638,19.5221477 40.8191141,5.91205369 C40.7538255,2.57374497 31.4957315,-0.928644295 27.1265503,0.902013423"></path>
      <path d="M398.069691,66.4053691 C397.73294,73.6816107 396.122201,79.3694497 394.123168,83.3812617 C390.253101,91.1480268 382.222604,93.5594094 378.812993,82.3950604 C376.954846,76.3094765 376.868081,66.1450738 378.203919,57.6524027 C379.563812,49.0008054 383.360859,42.4667919 389.648322,43.0561074 C395.849879,43.6385503 398.752644,51.6295302 398.069691,66.4053691 L398.069691,66.4053691 Z M293.520322,111.550711 C293.436134,123.641128 291.533315,134.241933 287.452779,137.320805 C281.665289,141.68655 273.886497,138.411812 275.497235,129.589262 C276.922416,121.782121 283.662604,113.809181 293.536644,104.067436 C293.536644,104.067436 293.557262,106.288966 293.520322,111.550711 L293.520322,111.550711 Z M291.939651,66.3340671 C291.585718,72.9617181 289.867597,79.6194362 287.993128,83.3812617 C284.123919,91.1480268 276.035007,93.5757315 272.682953,82.3950604 C270.39098,74.7554362 270.939919,64.8685101 272.073879,58.638604 C273.54545,50.5557047 277.112268,43.0569664 283.518282,43.0569664 C289.74647,43.0569664 292.817611,49.8899329 291.939651,66.3340671 L291.939651,66.3340671 Z M231.375034,66.233557 C230.995329,73.2520805 229.625987,79.1194631 227.42851,83.3812617 C223.452779,91.0947651 215.587221,93.5405101 212.118336,82.3950604 C209.617611,74.3576913 210.46894,63.3995168 211.509262,57.4797315 C213.052993,48.6949799 216.918765,42.4667919 222.953664,43.0569664 C229.152644,43.662604 232.166228,51.6295302 231.375034,66.233557 L231.375034,66.233557 Z M508.928,74.4315705 C507.412617,74.4315705 506.721074,75.9942013 506.14894,78.6229262 C504.16451,87.765906 502.078711,89.8293691 499.388993,89.8293691 C496.384,89.8293691 493.683973,85.3029799 492.989852,76.2407517 C492.444349,69.1148456 492.531973,55.9969933 493.22953,42.9478658 C493.372134,40.2667383 492.632483,37.6139597 485.441289,35.001557 C482.346953,33.877906 477.848913,32.2233557 475.609342,37.6294228 C469.281503,52.9026577 466.805691,65.0282953 466.223248,69.9532886 C466.193181,70.2084295 465.880483,70.2608322 465.825503,69.6646443 C465.454389,65.7198389 464.624537,58.5501208 464.52145,43.4882148 C464.501691,40.5493691 463.878872,38.0477852 460.63506,35.9997852 C458.530362,34.6708188 452.138953,32.3204295 449.83753,35.1166711 C447.843651,37.4034899 445.534497,43.5577987 443.135141,50.8529396 C441.185074,56.7821745 439.826899,60.7931275 439.826899,60.7931275 C439.826899,60.7931275 439.852671,44.7948456 439.875866,38.726443 C439.886174,36.437047 438.315812,35.6742013 437.84247,35.5358926 C435.711141,34.9182282 431.512054,33.8847785 429.729503,33.8847785 C427.530309,33.8847785 426.991678,35.1132349 426.991678,36.9043758 C426.991678,37.1397584 426.644617,57.9676779 426.644617,72.5321879 C426.644617,73.1653154 426.645477,73.8551409 426.648054,74.5887785 C425.431624,81.2825772 421.486819,90.3697181 417.196671,90.3697181 C412.901369,90.3697181 410.874846,86.570953 410.874846,69.2076242 C410.874846,59.079302 411.178953,54.6740403 411.32843,47.3479732 C411.415195,43.1282685 411.582711,39.8878926 411.573262,39.1525369 C411.541477,36.8975034 407.642201,35.7609664 405.827866,35.3408859 C404.00494,34.9182282 402.420832,34.7532886 401.183785,34.8237315 C399.43302,34.9233826 398.194255,36.0710872 398.194255,37.6508993 C398.194255,38.4987919 398.203705,40.1086711 398.203705,40.1086711 C395.948671,36.565047 392.321718,34.0986846 389.908617,33.3839463 C383.408966,31.4536376 376.626685,33.1648859 371.51098,40.3225772 C367.445047,46.0104161 364.994148,52.4525101 364.029423,61.7080268 C363.324134,68.4748456 363.554362,75.3361611 364.807732,81.1391141 C363.293208,87.6868725 360.481503,90.3697181 357.402631,90.3697181 C352.93294,90.3697181 349.692564,83.0745772 350.068832,70.456698 C350.317101,62.1581745 351.977664,56.333745 353.792859,47.9080805 C354.566872,44.316349 353.93804,42.4358658 352.360805,40.633557 C350.914148,38.9807248 347.831839,38.1362685 343.400805,39.1748725 C340.244617,39.9153826 335.731973,40.7117315 331.603329,41.3233826 C331.603329,41.3233826 331.852456,40.3294497 332.056913,38.5769664 C333.130738,29.3867383 323.144161,30.1324027 319.957906,33.0678121 C318.055946,34.8202953 316.761342,36.8871946 316.26996,40.6034899 C315.490792,46.5009396 320.300671,49.2825772 320.300671,49.2825772 C318.722577,56.5072752 314.854228,65.9431946 310.860456,72.7658523 C308.721396,76.4211544 307.084886,79.1297718 304.972456,82.0093423 C304.964725,80.9372349 304.958711,79.8642685 304.955275,78.7973154 C304.907168,63.6099866 305.109047,51.6578792 305.198389,47.3488322 C305.285154,43.1291275 305.454389,39.9746577 305.44494,39.239302 C305.420886,37.5907651 304.457879,36.9670872 302.45455,36.1784698 C300.683168,35.4809128 298.588779,34.9981208 296.416215,34.829745 C293.674094,34.616698 292.022121,36.0702282 292.065074,37.7900671 C292.073664,38.1147919 292.073664,40.1086711 292.073664,40.1086711 C289.818631,36.565047 286.191678,34.0986846 283.778577,33.3839463 C277.278926,31.4544966 270.496644,33.1648859 265.38094,40.3225772 C261.315866,46.0104161 258.653638,53.9919463 257.899383,61.6375839 C257.196671,68.7634899 257.326389,74.8181477 258.284242,79.9201074 C257.250792,85.0280805 254.279302,90.3697181 250.919517,90.3697181 C246.624215,90.3697181 244.180188,86.570953 244.180188,69.2076242 C244.180188,59.079302 244.484295,54.6740403 244.633772,47.3488322 C244.720537,43.1291275 244.888054,39.8878926 244.878604,39.153396 C244.846819,36.8983624 240.947544,35.7618255 239.133208,35.3408859 C237.234685,34.901906 235.595597,34.7404027 234.337074,34.8340403 C232.67651,34.9568859 231.509047,36.4439195 231.509047,37.5529664 L231.509047,40.1086711 C229.254013,36.565047 225.62706,34.0986846 223.21396,33.3839463 C216.714309,31.4544966 209.969826,33.1923758 204.816322,40.3225772 C201.455678,44.9718121 198.735034,50.1261745 197.334765,61.5362148 C196.930148,64.8332886 196.751463,67.9216107 196.774658,70.8071946 C195.434523,79.0034899 189.515597,88.4488591 184.673933,88.4488591 C181.840752,88.4488591 179.142443,82.9534497 179.142443,71.2418792 C179.142443,55.6413423 180.108027,33.4303356 180.271248,31.289557 C180.271248,31.289557 186.388617,31.1856107 187.573262,31.1718658 C190.624644,31.1383624 193.388242,31.2105235 197.452456,31.0026309 C199.491007,30.8986846 201.454819,23.5829262 199.35098,22.6774765 C198.397423,22.2677047 191.658094,21.9086174 188.986416,21.8519195 C186.739973,21.8012349 180.486013,21.3382013 180.486013,21.3382013 C180.486013,21.3382013 181.04698,6.59500671 181.177557,5.0375302 C181.288376,3.73948993 179.608913,3.07114094 178.645906,2.66566443 C176.304107,1.67516779 174.208859,1.20096644 171.725315,0.688966443 C168.294228,-0.0188993289 166.737611,0.673503356 166.433503,3.56939597 C165.975624,7.96434899 165.738523,20.8373691 165.738523,20.8373691 C163.220617,20.8373691 154.619705,20.3451275 152.10094,20.3451275 C149.760859,20.3451275 147.235221,30.4090201 150.470443,30.5327248 C154.192752,30.677047 160.679517,30.8024698 164.979973,30.9313289 C164.979973,30.9313289 164.788403,53.5091544 164.788403,60.4804295 C164.788403,61.2217987 164.791839,61.9356779 164.796134,62.6289396 C162.429423,74.9641879 154.093101,81.6279195 154.093101,81.6279195 C155.883383,73.4668456 152.226362,67.3383087 145.639087,62.150443 C143.212242,60.2390336 138.421262,56.6198121 133.060725,52.6535302 C133.060725,52.6535302 136.165369,49.5944161 138.918658,43.4375302 C140.869584,39.0760805 140.953772,34.0866577 136.165369,32.9862013 C128.253423,31.1667114 121.729718,36.977396 119.783946,43.1806711 C118.276295,47.9871141 119.080376,51.5522148 122.033826,55.2564832 C122.24945,55.5270872 122.483114,55.8037047 122.72451,56.0820403 C120.938523,59.5242953 118.485047,64.1589262 116.40698,67.7532349 C110.639248,77.7320805 106.282094,85.6251275 102.989315,85.6251275 C100.357154,85.6251275 100.392376,77.610953 100.392376,70.1079195 C100.392376,63.6400537 100.870013,53.9154899 101.251436,43.847302 C101.377718,40.5175839 99.7128591,38.6207785 96.9217718,36.9026577 C95.2259866,35.8588993 91.6067651,33.806604 89.5106577,33.806604 C86.3733691,33.806604 77.3214497,34.233557 68.7686443,58.9736376 C67.6905235,62.0920268 65.5729396,67.7738523 65.5729396,67.7738523 L65.7559195,38.0228725 C65.7559195,37.3253154 65.3839463,36.650953 64.5334765,36.1896376 C63.0919732,35.4070336 59.2425235,33.806604 55.8200268,33.806604 C54.1895302,33.806604 53.3751409,34.5651544 53.3751409,36.0771007 L53.077047,82.6227114 C53.077047,86.1603221 53.1689664,90.2855302 53.518604,92.089557 C53.8673826,93.8961611 54.4317852,95.3660134 55.1302013,96.2405369 C55.8286174,97.1133423 56.6361342,97.7791141 57.9668188,98.0540134 C59.2055839,98.3091544 65.990443,99.1802416 66.3426577,96.5875973 C66.7653154,93.4803758 66.7816376,90.1197315 70.3441611,77.5860403 C75.890255,58.0724832 83.1201074,48.5515168 86.5202685,45.170255 C87.1147383,44.5792215 87.793396,44.544 87.7607517,45.511302 C87.6155705,49.7894228 87.1052886,60.4804295 86.7616644,69.561557 C85.8407517,93.866094 90.2623356,98.3710067 96.5807248,98.3710067 C101.414658,98.3710067 108.228725,93.568 115.533315,81.4097181 C120.087195,73.8328054 124.508779,66.403651 127.685584,61.0491275 C129.899383,63.0988456 132.383785,65.3040537 134.86647,67.6604564 C140.635919,73.1361074 142.530148,78.3394362 141.273342,83.2755973 C140.312054,87.0494497 136.691973,90.9384161 130.24902,87.1585503 C128.371114,86.0555168 127.569611,85.2033289 125.681396,83.9602685 C124.666846,83.2927785 123.11796,83.0926174 122.189315,83.7927517 C119.777074,85.6113826 118.397423,87.9248322 117.609664,90.7889396 C116.843383,93.5757315 119.63447,95.0490201 122.527785,96.3376107 C125.01906,97.4466577 130.373584,98.4517584 133.788349,98.5660134 C147.093477,99.0110067 157.751839,92.1419597 165.171544,74.4229799 C166.499651,89.7262819 172.152268,98.3847517 181.973047,98.3847517 C188.538846,98.3847517 195.121826,89.898094 198.000537,81.5488859 C198.826953,84.9524832 200.050255,87.9119463 201.630067,90.4152483 C209.19753,102.405154 223.878013,99.8245369 231.252188,89.642953 C233.532134,86.4970738 233.879195,85.3665503 233.879195,85.3665503 C234.954738,94.9802953 242.696591,98.3392215 247.129342,98.3392215 C252.093852,98.3392215 257.219866,95.9922685 260.812456,87.9042148 C261.233396,88.7821745 261.692993,89.6206174 262.194685,90.4152483 C269.762148,102.405154 284.442631,99.8245369 291.816805,89.642953 C292.164725,89.1653154 292.466255,88.732349 292.729987,88.3431946 L292.94647,94.6581477 C292.94647,94.6581477 288.739651,98.517047 286.157315,100.884617 C274.777342,111.31447 266.132617,119.225557 265.496913,128.438121 C264.687678,140.184913 274.208644,144.550658 281.423034,145.122792 C289.070389,145.730148 295.631034,141.501852 299.65745,135.584644 C303.201074,130.376161 305.520537,119.166282 305.350443,108.094711 C305.282577,103.661101 305.170899,98.0239463 305.083275,91.9813154 C309.077906,87.3423893 313.578523,81.478443 317.722631,74.6162685 C322.238711,67.1372886 327.078658,57.0931544 329.557047,49.2765638 C329.557047,49.2765638 333.762148,49.3126443 338.249879,49.0188456 C339.685369,48.9252081 340.097718,49.2181477 339.832268,50.2704966 C339.511839,51.541906 334.16247,72.1748188 339.04451,85.9197852 C342.386255,95.3290738 349.919356,98.3564027 354.385611,98.3564027 C359.613852,98.3564027 364.615302,94.4081611 367.29557,88.5450738 C367.618577,89.1988188 367.956188,89.8310872 368.324725,90.4152483 C375.892188,102.405154 390.521128,99.8090738 397.946846,89.642953 C399.622872,87.3492617 400.573852,85.3665503 400.573852,85.3665503 C402.167409,95.3161879 409.904966,98.389906 414.336859,98.389906 C418.95345,98.389906 423.334658,96.497396 426.88945,88.0863356 C427.038067,91.789745 427.271732,94.8179329 427.641128,95.772349 C427.866201,96.3565101 429.177987,97.0892886 430.132403,97.4432215 C434.355544,99.0092886 438.662872,98.2687785 440.25643,97.9466309 C441.360322,97.7232752 442.221101,96.8375839 442.338792,94.5507651 C442.648054,88.5459329 442.458201,78.4571275 444.27855,70.9583893 C447.334228,58.3748725 450.184591,53.4936913 451.536752,51.0771544 C452.293584,49.7232752 453.14749,49.4999195 453.178416,50.9328322 C453.241987,53.8321611 453.386309,62.3463087 454.570094,73.785557 C455.439463,82.1983356 456.600913,87.1714362 457.493477,88.7452349 C460.040591,93.2458523 463.18647,93.4588993 465.748188,93.4588993 C467.377826,93.4588993 470.785718,93.0087517 470.480752,90.1446443 C470.332134,88.7486711 470.59243,80.1211275 473.605154,67.7240268 C475.572403,59.6282416 478.852295,52.3142013 480.035221,49.6390872 C480.471624,48.6528859 480.674362,49.4303356 480.66749,49.5815302 C480.418362,55.1568322 479.859114,73.3929664 482.13047,83.3666577 C485.209342,96.8779597 494.116081,98.389906 497.219866,98.389906 C503.845799,98.389906 509.264752,93.3497987 511.090255,80.0876242 C511.530094,76.8962148 510.878926,74.4315705 508.928,74.4315705 L508.928,74.4315705 Z"></path>
    </g>
  </symbol>
  <symbol version="1.1" id="ice-cream-cone-svgrepo-com" xmlns="http://www.w3.org/2000/svg" xmlns:xlink="http://www.w3.org/1999/xlink" x="0px" y="0px" xml:space="preserve" viewBox="0 0 256.624 256.624">
    <g>
      <path d="M176.591,84.912c8.273-21.265,13.047-45.287-3.316-64.016C159.785,5.459,136.154-2.423,116.041,0.66
		c-39.721,6.088-57.95,55.025-30.421,84.538c-6.822,2.992-10.533,9.849-11.769,17.432c-1.47,9.023-1.939,22.559,6.077,28.983
		c4.03,3.23,8.983,3.753,13.072,1.688c4.433,25.709,11.36,51.009,18.394,76.112c4.246,15.154,6.289,33.998,16.632,46.339
		c1.444,1.723,4.3,0.68,4.85-1.281c13.376-47.706,25.23-95.756,35.074-144.319c0.018-0.091-0.01-0.164,0.001-0.252
		c1.614,0.081,3.263-0.168,4.837-0.913c9.547-4.515,9.309-16.339,3.505-23.61C176.392,85.221,176.518,85.1,176.591,84.912z
		 M162.365,108.612c-4.441,20.751-8.977,41.478-13.901,62.12c-4.277,17.93-6.543,52.225-16.97,66.848
		c-7.343,10.298-5.474,1.504-8.676-9.146c-3.078-10.236-6.05-20.502-8.918-30.798c-6.171-22.154-11.28-44.605-17.743-66.672
		c0.42-0.428,0.847-0.844,1.222-1.35c4.002-5.388,4.57-13.393,3.664-20.634c2.552,1.297,5.538,1.801,8.52,1.209
		c4.165-0.827,9.38-4.674,11.458-9.193c2.364,4.225,7.235,6.843,12.33,5.822c3.194-0.64,6.593-3.216,8.582-6.403
		c1.533,3.407,5.029,6.084,8.945,6.109c2.71,0.017,5.347-1.237,7.4-3.144c0.82,1.966,2.364,3.646,4.266,4.823
		C162.49,108.347,162.401,108.447,162.365,108.612z M170.012,86.525c3.379,4.333,6.969,10.33,2.551,15.381
		c-1.659,1.897-4.263,3.214-6.736,2.252c-2.718-1.057-4.511-4.464-3.333-7.25c0.371-0.877,0.066-1.603-0.43-2.105
		c-0.055-1.042-0.238-2.083-0.705-3.088c-0.746-1.608-2.887-0.884-3.402,0.445c-1.306,3.372-2.117,7.581-6.17,8.671
		c-3.832,1.03-7.343-3.231-6.172-6.822c0.556-1.705-1.408-2.616-2.672-1.84c-0.103-0.233-0.124-0.476-0.255-0.704
		c-1.116-1.948-4.035-1.456-4.664,0.609c-1.158,3.805-0.824,7.962-5.628,9.37c-4.264,1.249-8.437-1.814-10.226-5.495
		c-0.091-0.188-0.267-0.263-0.421-0.369c-0.028-0.123-0.003-0.248-0.038-0.371c-0.43-1.532-2.633-2.317-3.763-0.994
		c-2.912,3.41-3.053,7.844-7.479,10.259c-3.479,1.898-7.587,1.211-10.441-1.157c-0.244-1.007-0.501-1.995-0.785-2.909
		c-0.582-1.875-3.047-1.93-3.933-0.53c-0.467,0.355-0.81,0.873-0.618,1.544c0.072,0.253,0.198,0.473,0.285,0.717
		c0.216,4.445,0.716,8.885,0.482,13.34c-0.116,2.219,0.14,5.68-1.202,7.623c-4.509,6.529-10.79,6.647-13.87-0.952
		c-4.678-11.545-1.185-29.415,10.162-35.304c1.647-0.855,0.453-3.182-1.203-2.853c-0.122,0.024-0.224,0.075-0.345,0.102
		c-0.041-0.198,0.023-0.387-0.109-0.585c-10.922-16.502-12.432-35.689-6.116-50.867c0.732,4.138,3.179,7.923,7.435,10.236
		c19.434,10.561,30.44-20.255,50.186,3.498c6.609,7.951,12.686,18.359,24.562,11.339c9.551-5.646,10.225-17.023,8.325-27.415
		c9.489,15.885,4.907,34.84-1.33,51.575C169.959,81.726,168.622,84.742,170.012,86.525z"></path>
      <path d="M132.514,204.588c-1.489,2.191-2.893,4.466-4.238,6.775c-0.609-0.46-1.23-0.904-1.805-1.407
		c-1.955-1.712-3.721-3.615-5.429-5.57c-0.952-1.09-2.878,0.361-2.027,1.564c2.062,2.916,4.689,5.934,7.692,8.254
		c-0.521,0.951-1.078,1.888-1.572,2.846c-0.672,1.303,1.115,2.313,1.944,1.136c0.589-0.837,1.134-1.719,1.706-2.575
		c0.815,0.495,1.622,1.015,2.486,1.368c1.248,0.509,2.2-1.357,1.285-2.208c-0.658-0.611-1.383-1.142-2.097-1.686
		c1.501-2.364,2.944-4.765,4.258-7.211C135.501,204.416,133.431,203.237,132.514,204.588z"></path>
      <path d="M153.765,122.124c-0.454,0.36-0.843,0.788-1.292,1.154c-3.588-2.603-7.141-5.249-10.551-8.074
		c0.286-0.318,0.541-0.659,0.829-0.976c1.019-1.127-0.586-2.759-1.677-1.677c-0.354,0.351-0.674,0.734-1.025,1.088
		c-0.782-0.676-1.617-1.286-2.379-1.988c-1.516-1.396-3.763,0.825-2.271,2.271c0.765,0.742,1.557,1.448,2.339,2.169
		c-3.281,3.441-6.419,7.003-9.407,10.69c-3.295-2.577-6.648-5.044-10.047-7.207c1.716-1.981,3.459-3.937,5.115-5.974
		c0.918-1.13-0.589-2.736-1.634-1.634c-1.924,2.026-3.753,4.13-5.604,6.215c-0.222-0.134-0.441-0.304-0.663-0.435
		c-1.186-0.705-2.528,0.967-1.492,1.933c0.145,0.136,0.306,0.254,0.453,0.389c-3.287,3.764-6.518,7.576-9.704,11.438
		c-0.833,1.01,0.539,2.455,1.465,1.465c3.457-3.695,6.856-7.431,10.199-11.218c3.105,2.718,6.303,5.34,9.464,8
		c-2.184,2.815-4.261,5.71-6.277,8.652c-2.386-2.048-4.831-4.012-7.448-5.697c-0.794-0.512-1.418,0.569-0.927,1.202
		c1.97,2.546,4.225,4.901,6.557,7.194c-1.872,2.837-3.703,5.703-5.42,8.645c-0.582,0.997,0.892,1.824,1.529,0.894
		c1.819-2.651,3.825-5.144,5.715-7.733c2.665,2.526,5.402,4.974,8.028,7.452c-2.819,4.04-5.43,8.207-7.836,12.515
		c-2.796-2.38-5.553-4.818-8.198-7.43c-0.807-0.797-1.955,0.39-1.231,1.231c2.508,2.913,5.203,5.843,7.985,8.728
		c-0.485,0.908-1.064,1.762-1.531,2.68c-0.592,1.164,1.099,2.176,1.762,1.03c0.424-0.732,0.918-1.397,1.352-2.12
		c2.747,2.763,5.61,5.435,8.598,7.89c-2.511,3.188-4.827,6.516-6.909,9.994c-1.212-1.145-2.418-2.301-3.542-3.593
		c-1.214-1.394-3.091,0.602-1.995,1.995c1.21,1.539,2.509,3.075,3.878,4.571c-0.524,0.962-1.117,1.885-1.602,2.869
		c-0.586,1.189,1.07,2.182,1.788,1.045c0.472-0.748,0.967-1.471,1.445-2.213c2.342,2.378,4.911,4.545,7.668,6.365
		c-2.13,2.836-4.117,5.776-5.811,8.865c-0.619,1.13,0.997,2.045,1.711,1c2.007-2.935,4.104-5.763,6.247-8.557
		c1.583,0.889,3.207,1.686,4.918,2.267c1.44,0.488,1.959-1.471,0.949-2.249c-1.236-0.953-2.466-1.854-3.701-2.772
		c2.267-2.827,4.587-5.61,7.099-8.278c0.902-0.958-0.484-2.344-1.443-1.443c-2.715,2.55-5.269,5.318-7.662,8.219
		c-2.754-2.047-5.474-4.106-8.055-6.355c2.289-3.446,4.677-6.806,7.184-10.073c2.399,1.842,4.856,3.576,7.426,5.04
		c1.348,0.768,2.958-1.138,1.71-2.216c-2.261-1.954-4.567-3.82-6.869-5.694c2.219-2.745,4.509-5.44,6.983-8.018
		c1.071-1.115-0.598-2.789-1.698-1.698c-2.567,2.546-4.991,5.246-7.333,8.018c-3.117-2.521-6.238-5.024-9.315-7.592
		c2.573-4.123,5.289-8.117,8.156-11.97c4.587,4.471,9.114,9.198,14.344,12.839c1.642,1.143,3.118-1.25,2.001-2.593
		c-4.055-4.878-9.158-9.065-14.068-13.242c2.166-2.791,4.405-5.531,6.723-8.199c1.751,1.583,3.488,3.182,5.318,4.676
		c1.536,1.255,3.492-0.655,2.186-2.186c-1.536-1.802-3.296-3.542-5.017-5.293c3.537-3.92,7.224-7.737,11.084-11.434
		c0.159,0.09,0.298,0.204,0.458,0.292c1.624,0.899,2.835-1.205,1.659-2.373c0.362-0.339,0.689-0.699,1.054-1.036
		C156.697,122.765,154.975,121.166,153.765,122.124z M129.733,147.429c-0.369-0.321-0.754-0.64-1.118-0.963
		c-2.323-2.061-4.627-4.207-6.976-6.301c2.134-2.861,4.172-5.805,6.394-8.595c0.385,0.333,0.785,0.649,1.166,0.985
		c2.43,2.143,4.794,4.359,7.176,6.554C134.054,141.801,131.841,144.565,129.733,147.429z M139.055,136.099
		c-2.695-2.596-5.54-5.118-8.482-7.522c2.956-3.629,5.992-7.199,9.096-10.718c3.227,2.831,6.687,5.353,10.33,7.629
		C146.134,128.813,142.489,132.351,139.055,136.099z"></path>
    </g>
    <g></g>
    <g></g>
    <g></g>
    <g></g>
    <g></g>
    <g></g>
    <g></g>
    <g></g>
    <g></g>
    <g></g>
    <g></g>
    <g></g>
    <g></g>
    <g></g>
    <g></g>
  </symbol>
  <symbol version="1.1" id="ice-cream-svgrepo-com (1)" xmlns="http://www.w3.org/2000/svg" xmlns:xlink="http://www.w3.org/1999/xlink" x="0px" y="0px" xml:space="preserve" viewBox="0 0 281.757 281.757">
    <g>
      <path d="M183.126,78.024c4.782,3.938,8.881,9.564,7.193,16.114c-0.924,3.576-3.416,6.028-6.59,7.314
		c4.501,9.283,4.461,20.736,0.362,30.139c9.685,7.314,9.042,25.438-3.135,29.657c0.161,0.362,0.201,0.764,0.04,1.286
		c-14.266,38.779-25.317,78.242-36.408,118.025c-0.201,0.844-1.125,1.406-1.969,1.125c-0.764-0.241-1.326-0.402-1.849-0.563
		c-0.482,0.201-1.045,0.161-1.567-0.322c-0.201-0.161-0.322-0.362-0.522-0.522c-0.121-0.08-0.201-0.201-0.322-0.362
		c-10.006-9.886-11.935-24.634-15.351-37.935c-5.144-20.053-10.247-40.266-13.141-60.761c-17.642-2.21-18.325-32.671-11.774-44.686
		c-2.773-2.21-3.135-7.595-3.335-10.81c-0.402-5.867,0.683-12.136,3.938-17.079c-1.326-0.161-2.692-0.603-4.019-1.447
		c-5.666-3.456-3.657-11.011-1.648-16.034c2.411-5.988,6.47-11.332,11.935-14.828C81.455,47.2,104.924,4.724,139.966,0.344
		C180.272-4.678,200.044,46.438,183.126,78.024z M186.662,146.5c0.241-5.144-2.612-8.76-5.023-12.98
		c-0.161-0.321-0.201-0.643-0.161-1.005c-0.161-0.241-0.201-0.563-0.121-0.884c2.893-10.368,2.451-19.128-0.723-29.295
		c-0.362,0.08-0.683,0.12-1.045,0.161c-10.247,1.085-19.932-6.39-22.826-15.954c-1.648,2.371-5.184,3.858-7.796,3.657
		c-2.09-0.121-3.978-1.165-5.385-2.652c-1.487,4.822-7.675,8.6-12.377,8.479c-5.787-0.161-10.609-4.26-12.136-9.484
		c-2.009,8.359-9.444,20.977-17.963,22.102c-1.246,4.139-2.612,8.198-2.853,12.578c-0.241,4.019-0.08,10.93,3.094,13.784
		c0.884,0.804,0.241,2.693-1.045,2.532c-0.281-0.04-0.522-0.161-0.764-0.241c-2.21,11.453-4.702,31.626,7.555,38.618
		c10.85,6.189,14.708-8.037,14.427-15.713c-0.201-6.349-2.693-11.774-5.867-17.079c-1.005-1.607,1.407-3.536,2.612-2.049
		c0.08,0.12,0.161,0.241,0.241,0.321c2.773,2.853,6.831,4.3,10.609,2.532c3.416-1.648,3.858-4.501,4.943-7.475
		c-1.567-0.322-3.014-0.844-4.139-1.527c-0.924-0.603-0.322-2.13,0.764-1.808c1.889,0.563,3.978,0.844,5.947,0.603
		c1.889-0.201,3.496-1.286,5.345-1.487c0.924-0.08,1.648,1.165,1.085,1.889c-0.844,1.165-2.13,1.889-3.576,2.25
		c0.763,3.416,4.621,5.023,7.957,4.059c3.134-0.884,4.903-3.577,7.716-4.863c0.924-0.402,2.411,0.281,1.929,1.487
		c-0.04,0.12-0.121,0.201-0.161,0.322c0,0.04,0,0.04,0,0.08c-1.567,2.974,3.898,2.893,5.264,2.532
		c1.728-0.442,2.934-1.607,4.42-2.492c1.407-0.844,2.572,0.764,2.049,2.049c-0.08,0.161-0.241,0.322-0.322,0.482
		c-0.482,3.536-1.406,7.233-0.643,10.73c1.045,4.943,5.586,7.716,10.448,6.751C183.206,156.467,186.421,151.483,186.662,146.5z
		 M184.813,95.987c2.411-3.295,1.447-8.198-0.723-11.212c-1.125-1.567-2.371-2.733-3.858-4.019
		c-0.402-0.362-0.563-0.723-0.603-1.085c-0.804-0.563-1.326-1.607-0.683-2.733c16.637-30.421-3.898-80.612-43.039-71.691
		c-33.917,7.756-43.2,42.436-28.331,70.285c0.321,0.241,0.522,0.603,0.442,1.005c0.322,0.844-0.442,1.688-1.206,1.567
		c-2.974,2.974-5.787,6.028-7.917,9.685c-1.808,3.134-4.782,8.64-4.139,12.498c2.09,11.975,14.306-1.768,16.235-4.702
		c2.532-3.818,3.697-7.917,5.264-12.136c-1.085-0.161-2.09-0.402-2.934-0.763c-1.125-0.522-0.281-2.25,0.844-1.969
		c1.447,0.362,2.893,0.522,4.38,0.201c0.121,0,0.201-0.04,0.321-0.08c0.201-0.482,0.764-0.603,1.206-0.482
		c0.643-0.281,1.326-0.563,2.049-0.683c0.884-0.12,1.929,0.764,1.286,1.688c-0.563,0.804-1.326,1.326-2.21,1.688
		c1.246,4.461,3.777,8.278,8.881,9.002c3.456,0.522,6.832-0.924,8.64-3.898c1.085-1.849,1.005-3.898,1.688-5.867
		c0.241-0.763,1.085-1.125,1.768-0.964c0.522-0.121,1.085,0.12,1.286,0.683c0.884,2.813,3.335,5.345,6.55,4.822
		c2.813-0.442,3.617-2.733,5.264-4.621c0.683-0.804,1.688-0.442,2.17,0.241c0.241,0.121,0.482,0.281,0.563,0.563
		c2.853,6.912,7.917,12.98,15.431,14.949C176.736,98.84,182.483,99.162,184.813,95.987z M177.017,162.012
		c-4.42,0.161-8.921-1.768-11.373-5.546c-2.532-4.019-2.371-9.002-0.924-13.462c-1.969,0.763-4.26,0.964-6.108,0.522
		c-1.688-0.402-3.295-1.607-3.978-3.094c-2.773,2.532-6.872,4.059-10.207,3.617c-3.135-0.402-5.827-2.411-6.912-5.184
		c-0.603,3.818-4.42,7.555-7.676,8.68c-2.652,0.965-5.546,0.764-8.037-0.321c5.305,12.377,6.59,33.475-9.122,34.158
		c-0.12,0-0.241,0-0.362,0c4.059,14.989,7.193,30.22,10.85,45.289c3.818,15.672,6.59,35.484,16.195,49.187
		c3.777-2.813,9.122-24.714,9.524-26.161c2.692-9.926,5.546-19.812,8.56-29.657C163.395,200.51,169.985,181.181,177.017,162.012z"></path>
      <path d="M181.639,133.521c2.411,4.219,5.264,7.836,5.023,12.98c-0.241,4.983-3.456,9.966-8.519,11.011
		c-4.863,0.964-9.404-1.808-10.448-6.751c-0.764-3.496,0.161-7.193,0.643-10.73c0.08-0.161,0.241-0.322,0.322-0.482
		c0.522-1.286-0.643-2.893-2.049-2.049c-1.487,0.884-2.692,2.049-4.42,2.492c-1.366,0.362-6.832,0.442-5.264-2.532
		c0-0.04,0-0.04,0-0.08c0.04-0.121,0.12-0.201,0.161-0.322c0.482-1.206-1.005-1.889-1.929-1.487
		c-2.813,1.286-4.581,3.978-7.716,4.863c-3.335,0.964-7.193-0.643-7.957-4.059c1.447-0.362,2.733-1.085,3.576-2.25
		c0.563-0.723-0.161-1.969-1.085-1.889c-1.849,0.201-3.456,1.286-5.345,1.487c-1.969,0.241-4.059-0.04-5.947-0.603
		c-1.085-0.322-1.688,1.206-0.764,1.808c1.125,0.683,2.572,1.206,4.139,1.527c-1.085,2.974-1.527,5.827-4.943,7.475
		c-3.778,1.768-7.836,0.322-10.609-2.532c-0.08-0.08-0.161-0.201-0.241-0.321c-1.205-1.487-3.617,0.442-2.612,2.049
		c3.175,5.305,5.666,10.73,5.867,17.079c0.281,7.675-3.576,21.901-14.427,15.713c-12.257-6.992-9.765-27.166-7.555-38.618
		c0.241,0.08,0.482,0.201,0.764,0.241c1.286,0.161,1.929-1.728,1.045-2.532c-3.175-2.853-3.335-9.765-3.094-13.784
		c0.241-4.38,1.607-8.439,2.853-12.578c8.519-1.125,15.954-13.743,17.963-22.102c1.527,5.224,6.349,9.323,12.136,9.484
		c4.702,0.121,10.89-3.657,12.377-8.479c1.406,1.487,3.295,2.532,5.385,2.652c2.612,0.201,6.148-1.286,7.796-3.657
		c2.893,9.564,12.578,17.039,22.826,15.954c0.362-0.04,0.683-0.08,1.045-0.161c3.175,10.167,3.617,18.927,0.723,29.295
		c-0.08,0.322-0.04,0.643,0.121,0.884C181.438,132.878,181.478,133.199,181.639,133.521z M178.665,154.096
		c3.536-0.241,6.108-3.135,5.586-6.671c-0.121-0.804-1.366-0.563-1.366,0.161c-0.08,2.371-1.768,4.581-4.219,4.742
		C177.54,152.448,177.54,154.176,178.665,154.096z M180.473,142.562c0.04-0.884-1.326-1.085-1.567-0.201
		c-0.482,2.049-1.286,4.059-2.532,5.787c-0.603,0.804,0.764,1.849,1.406,1.085C179.469,147.224,180.393,145.174,180.473,142.562z
		 M168.86,109.208c0.924-0.201,0.683-1.688-0.241-1.688c-2.331,0.04-4.621-0.201-6.791-1.005c-1.005-0.402-1.728,1.326-0.723,1.728
		C163.636,109.329,166.087,109.771,168.86,109.208z M167.614,103.462c0.844,0,1.005-1.246,0.201-1.447
		c-2.451-0.643-4.621-1.688-6.349-3.576c-0.764-0.804-1.848,0.362-1.206,1.205C162.109,101.975,164.64,103.381,167.614,103.462z
		 M131.969,116.201c0.482,1.165,2.411,0.683,1.929-0.522c-0.442-1.085-0.522-2.09-0.482-3.255c0-1.045-1.607-1.286-1.849-0.241
		C131.246,113.589,131.447,114.874,131.969,116.201z M129.237,111.097c0.322,0.844,1.648,0.522,1.366-0.362
		c-0.643-2.13-0.402-4.019-0.04-6.189c0.12-0.723-0.965-1.366-1.326-0.563C128.192,106.275,128.393,108.766,129.237,111.097z
		 M106.612,167.116c0.563,0.884,1.969,0.08,1.447-0.844c-1.527-2.612-2.331-5.425-2.853-8.399c-0.161-1.005-1.849-0.764-1.768,0.241
		C103.638,161.409,104.804,164.343,106.612,167.116z M106.773,172.541c0.603,0.241,0.965-0.683,0.402-1.005
		c-2.853-1.648-4.621-4.541-4.742-7.876c0-0.924-1.326-0.884-1.407,0C100.665,167.638,102.995,171.215,106.773,172.541z
		 M103.558,125.885c0.322,0.603,1.366,0.201,1.125-0.442c-1.045-2.692-1.005-5.546-0.161-8.278c0.201-0.603-0.723-1.045-1.045-0.442
		C101.87,119.737,102.031,122.871,103.558,125.885z"></path>
      <path d="M184.09,84.775c2.17,3.014,3.134,7.917,0.723,11.212c-2.331,3.175-8.077,2.853-11.372,1.969
		c-7.515-1.969-12.578-8.037-15.431-14.949c-0.08-0.281-0.322-0.442-0.563-0.563c-0.482-0.683-1.487-1.045-2.17-0.241
		c-1.648,1.889-2.451,4.179-5.264,4.621c-3.215,0.522-5.666-2.009-6.55-4.822c-0.201-0.563-0.764-0.804-1.286-0.683
		c-0.683-0.161-1.527,0.201-1.768,0.964c-0.683,1.969-0.603,4.019-1.688,5.867c-1.808,2.974-5.184,4.42-8.64,3.898
		c-5.104-0.723-7.635-4.541-8.881-9.002c0.884-0.362,1.648-0.884,2.21-1.688c0.643-0.924-0.402-1.808-1.286-1.688
		c-0.723,0.121-1.407,0.402-2.049,0.683c-0.442-0.121-1.005,0-1.206,0.482c-0.12,0.04-0.201,0.08-0.321,0.08
		c-1.487,0.322-2.934,0.161-4.38-0.201c-1.125-0.281-1.969,1.447-0.844,1.969c0.844,0.362,1.848,0.603,2.934,0.763
		c-1.567,4.22-2.733,8.318-5.264,12.136c-1.929,2.934-14.145,16.677-16.235,4.702c-0.643-3.858,2.331-9.363,4.139-12.498
		c2.13-3.657,4.943-6.711,7.917-9.685c0.764,0.121,1.527-0.723,1.206-1.567c0.08-0.402-0.121-0.764-0.442-1.005
		C92.71,47.68,101.993,13,135.91,5.244c39.141-8.921,59.676,41.271,43.039,71.691c-0.643,1.125-0.121,2.17,0.683,2.733
		c0.04,0.362,0.201,0.723,0.603,1.085C181.719,82.043,182.965,83.208,184.09,84.775z M183.286,90.401
		c0.844-0.723-0.241-1.808-1.085-1.407c-1.567,0.683-3.134,0.884-4.782,0.402c-1.045-0.322-1.808,1.326-0.764,1.808
		C178.987,92.25,181.317,92.089,183.286,90.401z M182.402,93.255c0.482-0.643-0.482-1.567-1.125-1.125
		c-2.09,1.527-4.38,2.25-6.872,1.286c-0.964-0.362-1.688,1.286-0.723,1.728C176.736,96.469,180.313,96.027,182.402,93.255z
		 M178.705,35.709c0.241,0.683,1.286,0.402,1.125-0.321c-0.804-2.893-2.451-5.104-4.903-6.832c-0.643-0.442-1.165,0.563-0.603,1.005
		C176.374,31.127,177.861,33.257,178.705,35.709z M177.339,43.585c0.12-2.532-0.362-4.903-1.286-7.274
		c-0.402-0.965-2.009-0.563-1.607,0.442c0.884,2.21,1.326,4.461,1.487,6.832C175.973,44.509,177.299,44.509,177.339,43.585z
		 M158.934,64.843c2.21-1.607,3.215-3.978,2.974-6.671c-0.08-1.045-1.728-1.085-1.648,0c0.121,2.13-0.723,4.019-2.21,5.505
		C157.487,64.24,158.251,65.326,158.934,64.843z M132.532,42.942c0.482-0.723-0.643-1.366-1.125-0.643
		c-0.804,1.205-0.804,2.411,0.04,3.617c0.402,0.563,1.326,0.08,0.964-0.563C131.969,44.509,132.009,43.706,132.532,42.942z
		 M129.719,38.562c0.563-0.764-0.683-1.768-1.326-1.005c-1.607,1.969-2.291,4.34-1.326,6.791c0.321,0.924,1.648,0.603,1.487-0.402
		C128.192,41.978,128.513,40.169,129.719,38.562z M127.629,18.228c0.884-0.201,0.723-1.648-0.201-1.567
		c-1.688,0.161-3.054,0.603-4.501,1.527c-0.964,0.643-0.08,2.25,0.964,1.607C125.057,19.072,126.303,18.549,127.629,18.228z
		 M126.102,14.129c0.804-0.321,0.482-1.487-0.362-1.286c-2.773,0.683-4.943,2.049-6.872,4.099c-0.643,0.683,0.362,1.688,1.005,1.045
		C121.642,16.259,123.812,14.973,126.102,14.129z M105.688,97.836c0.683,0.161,0.964-0.884,0.281-1.045
		c-1.607-0.402-2.773-1.487-3.255-3.054c-0.121-0.322-0.402-0.402-0.643-0.362c-0.08-0.482-0.522-0.924-1.085-0.563
		c-1.929,1.246-2.532,3.938-0.723,5.586c0.563,0.563,1.527-0.121,1.085-0.844c-0.643-1.085-0.723-2.572,0.442-3.376
		C102.352,96.067,103.719,97.394,105.688,97.836z"></path>
      <path d="M184.251,147.425c0.522,3.536-2.05,6.43-5.586,6.671c-1.125,0.08-1.125-1.648,0-1.768
		c2.451-0.161,4.139-2.371,4.219-4.742C182.885,146.862,184.13,146.621,184.251,147.425z"></path>
      <path d="M182.201,88.995c0.844-0.402,1.929,0.683,1.085,1.407c-1.969,1.688-4.3,1.849-6.631,0.804
		c-1.045-0.482-0.281-2.13,0.764-1.808C179.067,89.879,180.634,89.678,182.201,88.995z"></path>
      <path d="M181.277,92.129c0.643-0.442,1.607,0.482,1.125,1.125c-2.09,2.773-5.666,3.215-8.72,1.889
		c-0.965-0.442-0.241-2.09,0.723-1.728C176.897,94.38,179.187,93.656,181.277,92.129z"></path>
      <path d="M178.906,142.361c0.241-0.884,1.607-0.683,1.567,0.201c-0.08,2.612-1.005,4.662-2.693,6.671
		c-0.643,0.764-2.009-0.281-1.406-1.085C177.62,146.42,178.424,144.411,178.906,142.361z"></path>
      <path d="M179.83,35.387c0.161,0.723-0.884,1.005-1.125,0.321c-0.844-2.451-2.331-4.581-4.38-6.148
		c-0.563-0.442-0.04-1.447,0.603-1.005C177.379,30.283,179.027,32.494,179.83,35.387z"></path>
      <path d="M176.053,36.311c0.924,2.371,1.406,4.742,1.286,7.274c-0.04,0.924-1.366,0.924-1.406,0
		c-0.161-2.371-0.603-4.621-1.487-6.832C174.044,35.749,175.651,35.347,176.053,36.311z"></path>
      <path d="M165.645,156.467c2.451,3.777,6.952,5.706,11.373,5.546c-7.032,19.169-13.623,38.498-19.57,58.028
		c-3.014,9.846-5.867,19.731-8.56,29.657c-0.402,1.447-5.747,23.348-9.524,26.161c-9.604-13.703-12.377-33.515-16.195-49.187
		c-3.657-15.07-6.791-30.3-10.85-45.289c0.12,0,0.241,0,0.362,0c15.713-0.683,14.427-21.781,9.122-34.158
		c2.492,1.085,5.385,1.286,8.037,0.321c3.255-1.125,7.073-4.862,7.676-8.68c1.085,2.773,3.777,4.782,6.912,5.184
		c3.335,0.442,7.434-1.085,10.207-3.617c0.683,1.487,2.291,2.692,3.978,3.094c1.849,0.442,4.139,0.241,6.108-0.522
		C163.274,147.465,163.113,152.448,165.645,156.467z M161.305,197.818c0.04-0.804-1.286-1.005-1.406-0.201
		c-0.522,2.974-1.406,5.787-2.893,8.399c-0.442,0.723,0.643,1.326,1.125,0.643C160.059,204.006,161.144,201.113,161.305,197.818z
		 M157.728,197.215c0.442-0.884-0.723-1.567-1.286-0.764c-1.407,2.21-2.25,4.621-2.692,7.193c-0.201,0.884,1.165,1.286,1.406,0.362
		C155.759,201.635,156.683,199.425,157.728,197.215z M145.432,189.78c0.12-1.085-1.607-1.286-1.849-0.241
		c-0.522,2.13-0.884,4.3-1.206,6.47c-0.201,1.246,1.688,1.848,1.929,0.563C144.748,194.281,145.15,192.071,145.432,189.78z
		 M136.47,167.156c2.09-2.451,2.25-5.626,0.804-8.479c-0.482-0.924-1.728-0.121-1.366,0.804c0.964,2.25,0.522,4.702-0.683,6.751
		C134.822,166.955,135.867,167.839,136.47,167.156z M134.622,228.198c0.201,0.964,1.889,0.763,1.768-0.241
		c-0.321-2.291-0.563-4.541-1.085-6.751c-0.201-0.964-1.808-0.764-1.728,0.241C133.778,223.697,134.22,225.948,134.622,228.198z
		 M133.095,234.186c0.362,0.643,1.326,0.08,0.964-0.563c-1.808-3.376-2.893-7.073-3.576-10.85c-0.121-0.683-1.286-0.522-1.206,0.161
		C129.639,227.033,130.965,230.689,133.095,234.186z M130.884,163.821c0.241,0.764,1.246,0.442,1.125-0.321
		c-0.402-2.773-0.844-5.546-1.005-8.399c-0.04-0.723-1.085-0.723-1.125,0C129.759,158.074,129.96,160.967,130.884,163.821z"></path>
      <path d="M168.619,107.52c0.924,0,1.165,1.487,0.241,1.688c-2.773,0.563-5.224,0.121-7.756-0.964
		c-1.005-0.402-0.281-2.13,0.723-1.728C163.997,107.319,166.288,107.561,168.619,107.52z"></path>
      <path d="M167.815,102.015c0.804,0.201,0.643,1.447-0.201,1.447c-2.974-0.08-5.505-1.487-7.354-3.818
		c-0.643-0.844,0.442-2.009,1.206-1.205C163.194,100.327,165.364,101.372,167.815,102.015z"></path>
      <path d="M161.908,58.172c0.241,2.692-0.764,5.063-2.974,6.671c-0.683,0.482-1.447-0.603-0.884-1.165
		c1.487-1.487,2.331-3.376,2.21-5.505C160.18,57.087,161.827,57.128,161.908,58.172z"></path>
      <path d="M159.898,197.617c0.121-0.804,1.447-0.603,1.406,0.201c-0.161,3.295-1.246,6.189-3.175,8.841
		c-0.482,0.683-1.567,0.08-1.125-0.643C158.492,203.403,159.376,200.59,159.898,197.617z"></path>
      <path d="M156.442,196.451c0.563-0.804,1.728-0.12,1.286,0.764c-1.045,2.21-1.969,4.42-2.572,6.791
		c-0.241,0.924-1.607,0.522-1.406-0.362C154.192,201.073,155.036,198.661,156.442,196.451z"></path>
      <path d="M143.583,189.539c0.241-1.045,1.969-0.844,1.849,0.241c-0.281,2.291-0.683,4.501-1.125,6.791
		c-0.241,1.286-2.13,0.683-1.929-0.563C142.699,193.839,143.061,191.669,143.583,189.539z"></path>
      <path d="M137.274,158.677c1.447,2.853,1.286,6.028-0.804,8.479c-0.603,0.683-1.648-0.201-1.246-0.924
		c1.206-2.049,1.648-4.501,0.683-6.751C135.546,158.556,136.792,157.752,137.274,158.677z"></path>
      <path d="M136.39,227.957c0.121,1.005-1.567,1.205-1.768,0.241c-0.402-2.25-0.844-4.501-1.045-6.751
		c-0.08-1.005,1.527-1.206,1.728-0.241C135.827,223.416,136.068,225.666,136.39,227.957z"></path>
      <path d="M134.059,233.623c0.362,0.643-0.603,1.206-0.964,0.563c-2.13-3.496-3.456-7.153-3.818-11.252
		c-0.08-0.683,1.085-0.844,1.206-0.161C131.166,226.55,132.251,230.248,134.059,233.623z"></path>
      <path d="M133.898,115.678c0.482,1.206-1.447,1.688-1.929,0.522c-0.522-1.326-0.723-2.612-0.402-4.019
		c0.241-1.045,1.849-0.804,1.849,0.241C133.376,113.589,133.456,114.593,133.898,115.678z"></path>
      <path d="M131.407,42.299c0.482-0.723,1.607-0.08,1.125,0.643c-0.523,0.764-0.563,1.567-0.121,2.411
		c0.362,0.643-0.563,1.125-0.964,0.563C130.603,44.71,130.603,43.505,131.407,42.299z"></path>
      <path d="M132.009,163.499c0.121,0.764-0.884,1.085-1.125,0.321c-0.924-2.853-1.125-5.747-1.005-8.72
		c0.04-0.723,1.085-0.723,1.125,0C131.166,157.953,131.608,160.726,132.009,163.499z"></path>
      <path d="M130.603,110.735c0.281,0.884-1.045,1.205-1.366,0.362c-0.844-2.331-1.045-4.822,0-7.113
		c0.362-0.804,1.447-0.161,1.326,0.563C130.201,106.717,129.96,108.605,130.603,110.735z"></path>
      <path d="M128.393,37.557c0.643-0.764,1.889,0.241,1.326,1.005c-1.206,1.607-1.527,3.416-1.165,5.385
		c0.161,1.005-1.165,1.326-1.487,0.402C126.102,41.897,126.785,39.526,128.393,37.557z"></path>
      <path d="M127.428,16.661c0.924-0.08,1.085,1.366,0.201,1.567c-1.326,0.322-2.572,0.844-3.737,1.567
		c-1.045,0.643-1.929-0.965-0.964-1.607C124.374,17.263,125.741,16.821,127.428,16.661z"></path>
      <path d="M125.741,12.843c0.844-0.201,1.165,0.964,0.362,1.286c-2.291,0.844-4.461,2.13-6.229,3.858
		c-0.643,0.643-1.648-0.362-1.005-1.045C120.798,14.892,122.968,13.526,125.741,12.843z"></path>
      <path d="M108.059,166.272c0.522,0.924-0.884,1.728-1.447,0.844c-1.808-2.773-2.974-5.706-3.175-9.002
		c-0.08-1.005,1.607-1.246,1.768-0.241C105.728,160.847,106.532,163.66,108.059,166.272z"></path>
      <path d="M107.175,171.536c0.563,0.322,0.201,1.246-0.402,1.005c-3.777-1.326-6.108-4.903-5.747-8.881
		c0.08-0.884,1.407-0.924,1.407,0C102.553,166.995,104.322,169.889,107.175,171.536z"></path>
      <path d="M105.969,96.791c0.683,0.161,0.402,1.206-0.281,1.045c-1.969-0.442-3.335-1.768-3.898-3.657
		c-1.165,0.804-1.085,2.291-0.442,3.376c0.442,0.723-0.522,1.407-1.085,0.844c-1.808-1.648-1.206-4.34,0.723-5.586
		c0.563-0.362,1.005,0.08,1.085,0.563c0.241-0.04,0.522,0.04,0.643,0.362C103.196,95.304,104.362,96.389,105.969,96.791z"></path>
      <path d="M104.683,125.443c0.241,0.643-0.804,1.045-1.125,0.442c-1.527-3.014-1.688-6.148-0.08-9.162
		c0.322-0.603,1.246-0.161,1.045,0.442C103.679,119.898,103.638,122.751,104.683,125.443z"></path>
    </g>
    <g></g>
    <g></g>
    <g></g>
    <g></g>
    <g></g>
    <g></g>
    <g></g>
    <g></g>
    <g></g>
    <g></g>
    <g></g>
    <g></g>
    <g></g>
    <g></g>
    <g></g>
  </symbol>
  <symbol version="1.1" id="ice-cream-svgrepo-com" xmlns="http://www.w3.org/2000/svg" xmlns:xlink="http://www.w3.org/1999/xlink" x="0px" y="0px" xml:space="preserve" viewBox="0 0 271.794 271.794">
    <g>
      <path d="M248.986,69.664c0.362,0.683,0.402,1.487-0.281,2.049c-19.731,16.557-41.592,31.666-63.976,45.249
		c5.666,5.104,6.108,12.297,3.737,18.968c5.184,5.144,7.595,14.869,4.421,21.499c1.045,0,2.09,0,3.134,0
		c0.764,0,1.286,0.402,1.567,0.924c0.362,0.04,0.764,0.161,1.045,0.603c2.009,3.054,4.983,21.54-1.567,21.178
		c-0.322,0.764-1.085,1.366-2.09,1.246c-0.924-0.121-1.889-0.241-2.813-0.362c-5.907,28.572-13.141,56.461-17.923,85.274
		c0.964,1.165,0.482,3.335-1.407,3.215c-28.25-1.889-56.26,1.206-84.47,1.607c-7.675,0.121-37.614,3.335-43.762-5.345
		c-0.482-0.161-0.884-0.522-1.005-1.246c-4.099-28.17-8.6-56.943-8.841-85.435c-1.889-0.201-3.777-0.402-5.626-0.643
		c-0.281,0.201-0.643,0.281-0.964,0.08c-5.827-3.777-8.118-15.391-1.969-20.093c-0.161-0.683,0.121-1.447,1.005-1.487
		c0.764,0,1.487,0,2.21,0c-12.98-10.569-2.291-36.047,12.9-38.819c0.161-0.04,0.281,0,0.402,0
		c-0.924-4.501-0.764-9.323,0.522-13.784c4.26-14.949,18.405-25.438,33.716-25.96c0.08,0,0.08,0.04,0.161,0.04
		c-1.085-6.189,0.683-12.859,5.345-18.726c7.233-9.122,17.159-14.708,13.181-28.733c-3.536-12.457-8.72-7.555-13.703-15.592
		c-1.728-2.773-2.813-4.501-1.406-7.796c5.706-13.342,35.002-5.706,43.883-2.25c17.441,6.711,36.328,21.338,38.257,40.829
		c4.059-10.649,8.117-21.298,11.975-31.907c0.201-0.522,0.522-0.844,0.924-1.005c0.161-0.322,0.442-0.563,0.924-0.522
		c31.827,4.179,58.912,26.563,72.455,55.215C249.228,68.579,249.187,69.182,248.986,69.664z M245.289,69.825
		c-13.864-28.251-37.815-45.611-67.552-54.211c-0.804,2.13-1.567,4.3-2.371,6.43c-11.172,30.702-21.298,62.248-34.68,92.025
		c0.402,1.728,0.161,3.617-0.603,5.304c2.532-0.965,5.465-0.844,7.796,0.763c2.09,1.407,3.295,3.858,3.576,6.349
		c0.04,0.321,0.04,0.683,0.04,1.085c2.17-0.402,4.461,0.643,5.747,2.451c6.51-4.38,12.98-8.76,19.45-13.221
		C199.598,101.17,222.303,85.256,245.289,69.825z M197.79,170.61c0.08-3.295-0.844-6.309-1.406-9.444
		c-0.121,0-0.241,0.08-0.362,0.08c-16.798,0.08-33.635,0.12-50.473,0.12c-38.9,0-77.799-0.362-116.579-2.009
		c-1.246,3.054-2.974,5.264-2.934,8.72c0,2.853,0.964,5.506,2.451,7.876c0.04,0,0.121-0.04,0.201-0.04
		c55.697,2.773,111.877-5.947,167.253,1.929c0.161,0.04,0.281,0.08,0.402,0.161C197.107,175.553,197.75,173.303,197.79,170.61z
		 M190.315,157.108c0.362-3.777,1.165-7.153,0.362-11.011c-0.563-2.853-1.768-5.345-3.215-7.796
		c-1.246,2.652-2.893,5.184-4.863,7.354c-1.125,1.286-3.014-0.362-2.291-1.768c4.581-8.6,10.087-17.28,2.371-25.638
		c-8.117,4.862-16.315,9.564-24.473,14.025c0.04,0.322,0.121,0.603,0.121,0.924c2.934-0.482,6.028-0.08,8.238,2.13
		c2.25,2.21,2.893,5.385,1.487,8.158c-0.804,1.567-3.456,0.482-2.853-1.165c2.049-5.626-4.501-6.711-8.439-5.586
		c-1.406,0.402-2.29-1.125-1.768-2.291c1.447-3.175-1.487-4.742-3.898-3.978c-0.442,1.326-1.206,2.411-2.451,2.693
		c-0.804,0.201-1.567-0.362-1.567-1.165c-0.04-1.567,1.085-2.773,1.165-4.34c0.121-1.728-0.522-3.536-1.768-4.742
		c-2.371-2.25-5.827-1.607-8.118,0.322c0.844,0.683,1.527,1.487,1.567,2.612c0.04,0.522-0.522,1.125-1.085,1.085
		c-1.246-0.161-1.969-0.924-2.773-1.728c-0.442-0.04-0.804-0.362-0.804-0.804c-0.04-0.04-0.08-0.08-0.121-0.121
		c-1.527-1.366-3.215-2.411-4.943-3.496c-0.924-0.603-0.362-2.21,0.764-1.849c1.648,0.563,3.175,1.407,4.621,2.331
		c1.085-3.295,4.3-7.515-0.884-9.202c-3.295-1.045-6.51,0.121-9.122,2.13c-1.125,0.884-2.17-0.884-1.407-1.808
		c3.175-3.818,9.243-5.063,13.542-2.451c0.844,0.522,1.487,1.125,1.969,1.849c5.827-19.972,13.101-39.623,20.535-59.194
		c-0.241-0.241-0.402-0.563-0.402-1.005c-0.362-24.634-25.598-41.431-47.419-46.013c-4.782-1.005-28.532-5.546-22.986,10.529
		c0.764,2.21,5.586,5.184,7.153,7.836c3.335,5.666,4.501,12.819,2.893,19.289c-0.804,3.175-1.969,5.465-3.818,8.198
		C88,62.795,65.054,71.917,89.326,90.402c1.607,1.246,0.161,3.938-1.648,2.813c-5.626-3.456-9.002-8.238-10.328-13.422
		c-0.04,0.04-0.08,0.121-0.201,0.161c-11.574,2.853-22.383,8.64-28.009,19.731c-6.751,13.342-2.532,26.563,10.408,33.475
		c1.326,0.683,0.402,2.612-0.965,2.291c-7.796-1.688-12.819-7.394-15.11-14.346c-0.08,0.08-0.161,0.161-0.281,0.201
		c-7.274,2.813-12.297,7.033-14.668,14.708c-2.17,6.952-1.768,15.592,3.737,20.937c52.683-0.563,105.447,0.322,158.131,0.442
		C190.356,157.309,190.275,157.229,190.315,157.108z M182.921,202.518c2.17-7.394,4.541-14.708,7.394-21.7
		c-11.051-1.326-22.142-1.929-33.193-2.049c4.541,3.536,8.921,7.354,13.181,11.292C174.563,193.998,179.224,197.977,182.921,202.518
		z M175.567,234.064c1.688-9.363,3.777-18.767,6.269-27.929c-5.023-3.978-9.323-9.203-13.944-13.703
		c-4.742-4.541-9.645-8.921-14.346-13.502c-0.08-0.08-0.08-0.121-0.121-0.201c-9.564-0.04-19.128,0.201-28.692,0.522
		C142.575,196.048,160.779,214.493,175.567,234.064z M175.045,237.037c-0.161-0.04-0.322-0.12-0.482-0.241
		c-18.244-17.561-35.243-37.574-51.88-56.662c-0.201-0.241-0.281-0.522-0.241-0.804c-9.363,0.362-18.686,0.764-28.05,1.045
		c24.634,27.326,46.977,56.662,72.093,83.586c0.362,0.402,0.482,0.884,0.402,1.326c1.406,0.04,2.773,0.121,4.179,0.201
		C172.071,256.166,173.397,246.601,175.045,237.037z M136.868,265.127c8.72-0.281,17.441-0.402,26.201-0.04
		c-25.277-26.723-48.986-55.336-71.209-84.631c-12.779,0.402-25.598,0.563-38.377,0C81.935,207.822,110.346,235.912,136.868,265.127
		z M110.386,266.453c7.434-0.442,14.788-0.844,22.183-1.165c-28.451-27.125-55.778-56.019-82.34-84.993
		c-4.42-0.241-8.801-0.522-13.221-0.965c1.246,8.56,2.291,17.119,3.255,25.719c19.369,20.374,39.744,40.628,57.907,62.006
		C102.228,266.895,106.327,266.694,110.386,266.453z M81.01,267.498c4.38,0,8.72-0.121,13.101-0.281
		c-19.49-17.119-37.413-37.975-53.407-58.51c1.165,10.489,2.25,21.017,3.456,31.506c4.26,4.541,8.278,9.323,12.699,13.784
		c4.661,4.702,10.448,8.72,14.828,13.703C75.304,267.619,78.599,267.498,81.01,267.498z M46.852,264.926
		c4.903,2.411,13.141,2.853,20.736,2.813c-4.621-3.376-8.76-8.037-12.538-11.975c-3.657-3.818-7.314-7.836-10.488-12.176
		c0.804,6.671,1.608,13.342,2.612,19.972C47.254,264.082,47.094,264.524,46.852,264.926z"></path>
      <path d="M241.351,69.463c0.201,0.964-1.125,1.326-1.447,0.402c-0.764-2.21-1.607-4.38-2.813-6.39
		c-0.482-0.804,0.723-1.447,1.246-0.723C239.784,64.842,240.869,67.012,241.351,69.463z"></path>
      <path d="M236.047,70.91c0.241,1.045-1.206,1.447-1.567,0.442c-0.643-1.768-1.125-3.657-1.607-5.465
		c-0.281-1.125,1.366-1.567,1.688-0.482C235.122,67.213,235.685,69.061,236.047,70.91z"></path>
      <path d="M227.166,56.644c1.125-0.442,1.929,1.447,0.844,1.929c-1.527,0.643-3.054,1.326-4.541,1.969
		c1.527,2.853,2.974,5.706,4.139,8.64c0.522,1.246-1.406,1.849-2.09,0.884c-1.768-2.692-3.416-5.425-5.104-8.198
		c-4.139,1.808-8.278,3.617-12.377,5.505c1.406,2.692,2.853,5.425,4.219,8.158c0.683,1.366-1.326,2.572-2.13,1.206
		c-1.607-2.692-3.135-5.425-4.702-8.158c-4.139,1.889-8.278,3.778-12.417,5.747c2.492,5.184,4.742,10.448,6.631,15.632
		c0.482,1.326-1.608,2.17-2.25,0.964c-2.612-4.943-5.144-9.966-7.635-14.989c-4.139,1.969-8.278,3.978-12.377,5.988
		c1.648,3.778,3.175,7.555,4.581,11.373c3.054-1.246,6.148-2.411,9.202-3.576c1.005-0.362,1.648,1.286,0.723,1.688
		c-3.094,1.286-6.148,2.612-9.202,3.938c1.005,2.933,1.969,5.827,2.773,8.68c0.322,1.125-1.326,1.848-1.889,0.804
		c-1.326-2.612-2.612-5.385-3.818-8.198c-2.853,1.206-5.706,2.411-8.56,3.657c1.728,4.099,3.135,8.238,4.019,12.377
		c0.12,0.522-0.201,0.924-0.603,1.085c-0.402,0.161-0.844,0.08-1.125-0.362c-2.17-3.576-3.898-7.595-5.465-11.774
		c-3.617,1.567-7.274,3.094-10.89,4.621c1.688,3.456,3.496,6.832,5.224,10.368c0.482,0.924-0.764,1.607-1.366,0.804
		c-2.371-3.094-4.139-6.671-5.586-10.448c-0.321,0.161-0.643,0.281-0.964,0.442c-0.683,0.281-1.125-0.884-0.482-1.206
		c0.322-0.201,0.643-0.362,1.005-0.522c-1.085-2.934-1.969-5.867-2.692-8.72c-0.121-0.563,0.683-0.764,0.844-0.241
		c0.924,2.853,2.13,5.546,3.376,8.198c3.577-1.848,7.193-3.617,10.85-5.264c-1.286-3.576-2.451-7.233-3.577-10.77
		c-1.688,0.844-3.376,1.688-5.023,2.572c-0.603,0.281-1.125-0.563-0.563-0.924c1.688-1.045,3.416-2.049,5.104-3.094
		c-0.563-1.688-1.085-3.376-1.648-4.983c-0.281-0.764,0.964-1.286,1.286-0.563c0.643,1.487,1.326,3.014,2.049,4.541
		c2.934-1.728,5.867-3.456,8.881-5.104c-1.688-4.862-3.255-9.765-4.621-14.467c-0.161-0.563,0.683-0.924,0.965-0.402
		c2.13,4.3,4.26,8.801,6.269,13.422c4.019-2.21,8.037-4.3,12.096-6.349c-2.612-5.264-5.224-10.569-7.796-15.873
		c-4.38,1.808-8.68,3.858-12.819,6.309c-0.683,0.402-1.165-0.563-0.603-1.005c3.898-2.933,8.077-5.305,12.417-7.354
		c-1.527-3.134-3.054-6.269-4.581-9.403c-0.362-0.804,0.683-1.406,1.165-0.683c2.009,2.893,3.978,5.907,5.907,9.002
		c4.139-1.848,8.439-3.456,12.819-4.943c-2.09-4.019-4.179-7.997-6.229-12.015c-3.577,1.366-7.193,2.692-10.81,3.898
		c-0.683,0.201-1.165-0.884-0.522-1.165c3.456-1.567,6.912-3.054,10.448-4.501c-1.487-2.893-3.014-5.827-4.461-8.76
		c-0.08-0.161-0.12-0.281-0.12-0.442c0-0.764,1.125-1.246,1.607-0.442c1.688,2.934,3.416,5.907,5.104,8.841
		c2.049-0.804,4.099-1.648,6.189-2.371c0.964-0.322,1.607,1.246,0.683,1.648c-1.929,0.844-3.898,1.608-5.867,2.371
		c2.291,3.978,4.541,7.957,6.791,11.975c4.018-1.366,8.077-2.652,12.056-4.019c-0.924-1.487-1.849-3.014-2.813-4.501
		c-0.603-0.924,0.844-2.09,1.567-1.206c1.246,1.567,2.492,3.215,3.737,4.863c2.009-0.723,3.978-1.407,5.907-2.17
		c0.884-0.362,1.527,1.165,0.643,1.567c-1.728,0.804-3.496,1.527-5.305,2.25c3.094,4.179,6.068,8.6,8.68,13.141
		C223.951,57.89,225.558,57.247,227.166,56.644z M219.088,59.778c-2.692-4.42-5.305-8.921-7.997-13.342
		c-3.978,1.527-7.957,2.974-11.975,4.38c2.612,4.662,5.184,9.403,7.676,14.145C210.89,63.154,214.949,61.426,219.088,59.778z
		 M204.059,66.168c-2.652-4.742-5.264-9.524-7.836-14.346c-4.26,1.487-8.519,3.054-12.739,4.702
		c2.974,4.983,5.787,10.127,8.359,15.351C195.861,69.905,199.96,68.016,204.059,66.168z M178.862,94.579
		c-1.527-3.657-2.974-7.434-4.34-11.212c-2.974,1.487-5.907,3.014-8.881,4.541c1.567,3.376,3.175,6.832,4.702,10.328
		C173.156,96.99,176.009,95.744,178.862,94.579z"></path>
      <path d="M228.009,58.573c1.085-0.482,0.281-2.371-0.844-1.929c-1.607,0.603-3.215,1.246-4.822,1.889
		c-2.612-4.541-5.586-8.961-8.68-13.141c1.808-0.723,3.577-1.447,5.305-2.25c0.884-0.402,0.241-1.929-0.643-1.567
		c-1.929,0.764-3.898,1.447-5.907,2.17c-1.246-1.648-2.492-3.295-3.737-4.863c-0.723-0.884-2.17,0.281-1.567,1.206
		c0.964,1.487,1.889,3.014,2.813,4.501c-3.978,1.366-8.037,2.652-12.056,4.019c-2.25-4.019-4.501-7.997-6.791-11.975
		c1.969-0.763,3.938-1.527,5.867-2.371c0.924-0.402,0.281-1.969-0.683-1.648c-2.09,0.723-4.139,1.567-6.189,2.371
		c-1.688-2.934-3.416-5.907-5.104-8.841c-0.482-0.804-1.607-0.321-1.607,0.442l-1.768-0.804c0.321-0.683,0.643-1.326,0.964-1.969
		c0.402-0.804-0.683-1.447-1.206-0.723c-0.844,1.085-1.487,2.25-1.969,3.416l-1.406-0.08c0.08-0.08,0.12-0.161,0.12-0.241
		c0.402-1.929,1.165-3.617,2.049-5.305c0.442-0.804-0.683-1.768-1.286-1.005c-0.723,0.884-1.246,1.808-1.648,2.853l-1.848-0.683
		c0.804-2.13,1.567-4.3,2.371-6.43c29.737,8.6,53.688,25.96,67.552,54.211c-22.986,15.431-45.691,31.345-68.597,46.977l-2.09-3.054
		c0.402-0.161,0.723-0.563,0.603-1.085c-0.884-4.139-2.291-8.278-4.019-12.377c2.853-1.246,5.706-2.451,8.56-3.657
		c1.206,2.813,2.492,5.586,3.818,8.198c0.563,1.045,2.21,0.322,1.889-0.804c-0.804-2.853-1.768-5.747-2.773-8.68
		c3.054-1.326,6.108-2.652,9.202-3.938c0.924-0.402,0.281-2.049-0.723-1.688c-3.054,1.165-6.148,2.331-9.202,3.576
		c-1.406-3.818-2.934-7.595-4.581-11.373c4.099-2.009,8.238-4.019,12.377-5.988c2.492,5.023,5.023,10.046,7.635,14.989
		c0.643,1.206,2.733,0.362,2.25-0.964c-1.889-5.184-4.139-10.448-6.631-15.632c4.139-1.969,8.278-3.858,12.417-5.747
		c1.567,2.733,3.094,5.465,4.702,8.158c0.804,1.366,2.813,0.161,2.13-1.206c-1.366-2.733-2.813-5.465-4.219-8.158
		c4.099-1.889,8.238-3.697,12.377-5.505c1.688,2.773,3.335,5.505,5.104,8.198c0.683,0.964,2.612,0.362,2.09-0.884
		c-1.165-2.934-2.612-5.787-4.139-8.64C224.955,59.899,226.482,59.216,228.009,58.573z M239.904,69.865
		c0.321,0.924,1.648,0.563,1.447-0.402c-0.482-2.451-1.567-4.621-3.014-6.711c-0.522-0.723-1.728-0.08-1.246,0.723
		C238.297,65.485,239.141,67.655,239.904,69.865z M234.479,71.352c0.362,1.005,1.808,0.603,1.567-0.442
		c-0.362-1.849-0.924-3.697-1.487-5.506c-0.322-1.085-1.969-0.643-1.688,0.482C233.354,67.695,233.836,69.584,234.479,71.352z
		 M209.645,88.833c0.764-0.643-0.241-1.969-1.045-1.366c-2.492,1.808-4.863,3.697-7.193,5.666c-0.603,0.522,0.201,1.648,0.924,1.165
		C204.822,92.53,207.274,90.761,209.645,88.833z"></path>
      <path d="M211.091,46.437c2.692,4.42,5.305,8.921,7.997,13.342c-4.139,1.648-8.198,3.376-12.297,5.184
		c-2.492-4.742-5.063-9.484-7.676-14.145C203.135,49.41,207.113,47.964,211.091,46.437z"></path>
      <path d="M208.6,87.466c0.804-0.603,1.808,0.723,1.045,1.366c-2.371,1.929-4.822,3.697-7.314,5.465
		c-0.723,0.482-1.527-0.643-0.924-1.165C203.737,91.163,206.108,89.275,208.6,87.466z"></path>
      <path d="M196.223,51.822c2.572,4.822,5.184,9.604,7.836,14.346c-4.099,1.849-8.198,3.737-12.216,5.706
		c-2.572-5.224-5.385-10.368-8.359-15.351C187.703,54.876,191.963,53.308,196.223,51.822z"></path>
      <path d="M196.383,161.167c0.563,3.135,1.487,6.148,1.406,9.444c-0.04,2.693-0.683,4.943-1.447,7.394
		c-0.12-0.08-0.241-0.121-0.402-0.161c-55.376-7.876-111.556,0.844-167.253-1.929c-0.08,0-0.161,0.04-0.201,0.04
		c-1.487-2.371-2.451-5.023-2.451-7.876c-0.04-3.456,1.688-5.666,2.934-8.72c38.779,1.648,77.679,2.009,116.579,2.009
		c16.838,0,33.676-0.04,50.473-0.12C196.142,161.247,196.263,161.167,196.383,161.167z M183.966,169.244
		c0.764-0.04,0.764-1.206,0-1.246c-1.366-0.08-2.692-0.121-4.018-0.08c-0.924,0-0.924,1.406,0,1.406
		C181.274,169.365,182.6,169.324,183.966,169.244z M183.444,166.311c0.683-0.08,0.964-1.085,0.161-1.286
		c-3.255-0.804-6.832-0.603-10.207-0.723c-1.045-0.04-1.045,1.527,0,1.607C176.692,166.15,180.148,166.753,183.444,166.311z
		 M96.562,169.244c0.723,0.08,0.884-1.125,0.161-1.286c-2.009-0.362-4.018-0.643-6.028-0.924c-0.965-0.121-1.366,1.326-0.402,1.487
		C92.383,168.802,94.432,169.083,96.562,169.244z M45.325,169.324c0.804,0.04,1.005-1.326,0.161-1.447
		c-3.054-0.402-6.148-0.723-9.202-1.045c-0.924-0.08-0.884,1.326,0,1.447C39.298,168.641,42.271,169.043,45.325,169.324z
		 M39.78,172.7c0.764,0,0.764-1.125,0-1.165c-2.532-0.121-4.983-0.643-7.434-1.326c-0.522-0.201-0.924,0.683-0.402,0.924
		C34.475,172.218,37.047,172.7,39.78,172.7z"></path>
      <path d="M188.828,37.556c2.049,4.019,4.139,7.997,6.229,12.015c-4.38,1.487-8.68,3.094-12.819,4.943
		c-1.929-3.094-3.898-6.108-5.907-9.002c-0.482-0.723-1.527-0.12-1.165,0.683c1.527,3.135,3.054,6.269,4.581,9.403
		c-4.34,2.049-8.519,4.421-12.417,7.354c-0.563,0.442-0.08,1.407,0.603,1.005c4.139-2.451,8.439-4.501,12.819-6.309
		c2.572,5.305,5.184,10.609,7.796,15.873c-4.059,2.049-8.077,4.139-12.096,6.349c-2.009-4.621-4.139-9.122-6.269-13.422
		c-0.281-0.522-1.125-0.161-0.965,0.402c1.366,4.702,2.934,9.604,4.621,14.467c-3.014,1.648-5.947,3.376-8.881,5.104
		c-0.723-1.527-1.407-3.054-2.049-4.541c-0.321-0.723-1.567-0.201-1.286,0.563c0.563,1.607,1.085,3.295,1.648,4.983
		c-1.688,1.045-3.416,2.049-5.104,3.094c-0.563,0.362-0.04,1.206,0.563,0.924c1.648-0.884,3.335-1.728,5.023-2.572
		c1.125,3.536,2.291,7.193,3.577,10.77c-3.657,1.648-7.274,3.416-10.85,5.264c-1.246-2.652-2.451-5.345-3.376-8.198
		c-0.161-0.522-0.964-0.321-0.844,0.241c0.723,2.853,1.607,5.787,2.692,8.72c-0.362,0.161-0.683,0.322-1.005,0.522
		c-0.643,0.322-0.201,1.487,0.482,1.206c0.322-0.161,0.643-0.281,0.964-0.442c1.447,3.777,3.215,7.354,5.586,10.448
		c0.603,0.804,1.849,0.121,1.366-0.804c-1.728-3.536-3.536-6.912-5.224-10.368c3.617-1.527,7.274-3.054,10.89-4.621
		c1.567,4.179,3.295,8.198,5.465,11.774c0.281,0.442,0.723,0.522,1.125,0.362l2.09,3.054c-6.47,4.461-12.94,8.841-19.45,13.221
		c-1.286-1.808-3.577-2.853-5.747-2.451c0-0.402,0-0.764-0.04-1.085c-0.281-2.492-1.487-4.943-3.576-6.349
		c-2.331-1.607-5.264-1.728-7.796-0.763c0.764-1.688,1.005-3.576,0.603-5.304c13.382-29.778,23.509-61.323,34.68-92.025l1.848,0.683
		c-0.362,1.005-0.563,2.09-0.643,3.215c-0.08,0.804,1.085,1.045,1.407,0.482l1.406,0.08c-0.522,1.206-0.884,2.451-1.206,3.778
		c-0.201,0.964,1.165,1.326,1.487,0.402c0.522-1.688,1.206-3.335,1.929-4.903l1.768,0.804c0,0.161,0.04,0.281,0.12,0.442
		c1.447,2.934,2.974,5.867,4.461,8.76c-3.536,1.447-6.992,2.934-10.448,4.501c-0.643,0.281-0.161,1.366,0.522,1.165
		C181.635,40.248,185.252,38.922,188.828,37.556z"></path>
      <path d="M190.677,146.097c0.804,3.858,0,7.233-0.362,11.011c-0.04,0.121,0.04,0.201,0.08,0.281
		c-52.683-0.12-105.447-1.005-158.131-0.442c-5.505-5.345-5.907-13.985-3.737-20.937c2.371-7.675,7.394-11.895,14.668-14.708
		c0.121-0.04,0.201-0.121,0.281-0.201c2.291,6.952,7.314,12.659,15.11,14.346c1.366,0.321,2.291-1.607,0.965-2.291
		c-12.94-6.912-17.159-20.133-10.408-33.475C54.769,88.59,65.579,82.803,77.152,79.95c0.121-0.04,0.161-0.12,0.201-0.161
		c1.326,5.184,4.702,9.966,10.328,13.422c1.808,1.125,3.255-1.567,1.648-2.813c-24.272-18.485-1.326-27.608,6.309-38.98
		c1.849-2.733,3.014-5.023,3.818-8.198c1.607-6.47,0.442-13.623-2.893-19.289c-1.567-2.652-6.389-5.626-7.153-7.836
		C83.863,0.022,107.613,4.563,112.395,5.568c21.821,4.581,47.057,21.379,47.419,46.013c0,0.442,0.161,0.764,0.402,1.005
		c-7.434,19.57-14.708,39.221-20.535,59.194c-0.482-0.723-1.125-1.326-1.969-1.849c-4.3-2.612-10.368-1.366-13.542,2.451
		c-0.764,0.924,0.281,2.692,1.407,1.808c2.612-2.009,5.827-3.175,9.122-2.13c5.184,1.688,1.969,5.907,0.884,9.202
		c-1.447-0.924-2.974-1.768-4.621-2.331c-1.125-0.362-1.688,1.246-0.764,1.849c1.728,1.085,3.416,2.13,4.943,3.496
		c0.04,0.04,0.08,0.08,0.121,0.121c0,0.442,0.362,0.763,0.804,0.804c0.804,0.804,1.527,1.567,2.773,1.728
		c0.563,0.04,1.125-0.563,1.085-1.085c-0.04-1.125-0.723-1.929-1.567-2.612c2.291-1.929,5.747-2.572,8.118-0.322
		c1.246,1.206,1.889,3.014,1.768,4.742c-0.08,1.567-1.206,2.773-1.165,4.34c0,0.804,0.763,1.366,1.567,1.165
		c1.246-0.281,2.009-1.366,2.451-2.693c2.411-0.763,5.345,0.804,3.898,3.978c-0.522,1.165,0.362,2.692,1.768,2.291
		c3.938-1.125,10.488-0.04,8.439,5.586c-0.603,1.648,2.049,2.733,2.853,1.165c1.406-2.773,0.763-5.947-1.487-8.158
		c-2.21-2.21-5.304-2.612-8.238-2.13c0-0.322-0.08-0.603-0.121-0.924c8.158-4.461,16.356-9.162,24.473-14.025
		c7.716,8.359,2.21,17.039-2.371,25.638c-0.723,1.407,1.165,3.054,2.291,1.768c1.969-2.17,3.617-4.702,4.863-7.354
		C188.909,140.752,190.114,143.244,190.677,146.097z M181.635,137.658c0.442-2.17,0.241-4.3-0.522-6.389
		c-0.322-0.884-1.688-0.522-1.406,0.362c0.643,1.969,0.763,3.858,0.522,5.867C180.148,138.261,181.474,138.462,181.635,137.658z
		 M174.964,143.847c2.411-3.215,3.376-6.912,3.094-10.89c-0.04-0.844-1.326-0.844-1.286,0c0.08,3.657-0.964,7.113-2.934,10.207
		C173.397,143.887,174.482,144.49,174.964,143.847z M152.621,65.364c0.241-0.884-1.125-1.527-1.527-0.643
		c-1.889,3.898-3.215,8.158-4.461,12.297c-0.201,0.683,0.884,1.165,1.206,0.482C149.607,73.602,151.456,69.543,152.621,65.364z
		 M149.728,58.894c0.362-1.206-1.406-1.648-1.808-0.522c-1.206,3.295-2.291,6.59-3.215,9.966c-0.281,1.085,1.246,1.447,1.648,0.482
		C147.638,65.565,148.723,62.23,149.728,58.894z M138.034,28.152c0.844,0.924,2.13-0.402,1.366-1.326
		c-2.692-3.094-6.43-5.425-10.488-6.229c-0.964-0.201-1.326,1.125-0.402,1.447C132.247,23.33,135.382,25.259,138.034,28.152z
		 M135.301,20.678c0.763,0.603,1.808-0.723,1.045-1.366c-3.576-3.094-7.756-4.983-12.417-5.787
		c-1.165-0.201-1.688,1.527-0.522,1.768C127.746,16.217,131.725,18.106,135.301,20.678z M119.95,76.897
		c1.045-2.773,0.964-5.666-0.121-8.439c-0.281-0.723-1.447-0.442-1.206,0.321c0.804,2.612,0.643,5.144-0.362,7.676
		C117.861,77.5,119.548,77.942,119.95,76.897z M100.38,149.151c0.804,0.161,1.165-1.005,0.362-1.246
		c-2.692-0.804-5.425-1.045-8.238-1.005c-0.763,0-0.763,1.246,0,1.246C95.196,148.187,97.808,148.589,100.38,149.151z
		 M97.044,152.768c0.924-0.04,0.965-1.406,0-1.447c-3.014-0.241-6.028-0.201-9.042-0.161c-1.125,0-1.125,1.768,0,1.768
		C91.017,152.969,94.03,153.009,97.044,152.768z M92.905,118.329c0.603,0.12,0.844-0.764,0.241-0.924
		c-2.291-0.603-4.3-1.889-5.706-3.777c-0.402-0.522-1.286-0.04-0.884,0.522C88.163,116.36,90.213,117.726,92.905,118.329z
		 M91.017,65.645c0.563-0.522-0.161-1.487-0.844-1.085c-2.934,1.969-4.42,5.104-4.42,8.6c0,0.924,1.326,0.884,1.407,0
		C87.4,70.186,88.847,67.695,91.017,65.645z M69.156,86.622c0.764-0.482,0.281-1.808-0.603-1.487
		c-4.621,1.688-8.359,5.304-10.287,9.765c-0.442,1.005,0.884,1.849,1.487,0.884C62.123,91.887,65.298,88.953,69.156,86.622z
		 M66.182,94.217c0.844-0.523,0.121-1.608-0.723-1.246c-3.416,1.407-5.827,4.501-6.309,8.118c-0.161,1.045,1.286,1.527,1.608,0.442
		C61.641,98.437,63.409,95.945,66.182,94.217z M36.927,136.854c0.402-0.884-0.844-1.688-1.366-0.804
		c-1.487,2.652-2.291,5.465-2.652,8.479c-0.121,0.924,1.527,1.165,1.688,0.201C34.998,141.998,35.842,139.386,36.927,136.854z
		 M32.185,140.109c0.241-0.643-0.804-1.085-1.085-0.482c-1.607,3.536-1.487,7.193,0.08,10.73c0.241,0.522,1.206,0.121,0.964-0.402
		C30.979,146.7,31.1,143.364,32.185,140.109z"></path>
      <path d="M185.413,184.354c0.442-0.924,1.768-0.12,1.366,0.804c-1.165,2.693-2.25,5.425-3.617,7.997
		c-0.402,0.804-1.808,0.241-1.487-0.603C182.76,189.739,184.127,187.046,185.413,184.354z"></path>
      <path d="M190.315,180.818c-2.853,6.992-5.224,14.306-7.394,21.7c-3.697-4.541-8.359-8.519-12.618-12.457
		c-4.26-3.938-8.64-7.756-13.181-11.292C168.173,178.889,179.264,179.491,190.315,180.818z M186.779,185.158
		c0.402-0.924-0.924-1.728-1.366-0.804c-1.286,2.693-2.652,5.385-3.737,8.198c-0.322,0.844,1.085,1.407,1.487,0.603
		C184.529,190.583,185.614,187.85,186.779,185.158z"></path>
      <path d="M183.966,167.998c0.764,0.04,0.764,1.205,0,1.246c-1.366,0.08-2.692,0.121-4.018,0.08
		c-0.924,0-0.924-1.406,0-1.406C181.274,167.878,182.6,167.918,183.966,167.998z"></path>
      <path d="M183.604,165.025c0.804,0.201,0.522,1.206-0.161,1.286c-3.295,0.442-6.751-0.161-10.046-0.402
		c-1.045-0.08-1.045-1.648,0-1.607C176.773,164.422,180.349,164.221,183.604,165.025z"></path>
      <path d="M181.354,23.089c0.522-0.723,1.607-0.08,1.206,0.723c-0.321,0.643-0.643,1.286-0.964,1.969
		c-0.723,1.567-1.407,3.215-1.929,4.903c-0.322,0.924-1.688,0.563-1.487-0.402c0.322-1.326,0.683-2.572,1.206-3.778
		C179.867,25.339,180.51,24.174,181.354,23.089z"></path>
      <path d="M181.113,131.269c0.764,2.09,0.964,4.219,0.522,6.389c-0.161,0.804-1.487,0.603-1.406-0.161
		c0.241-2.009,0.12-3.898-0.522-5.867C179.425,130.746,180.791,130.385,181.113,131.269z"></path>
      <path d="M178.862,19.874c0.603-0.764,1.728,0.201,1.286,1.005c-0.884,1.688-1.648,3.376-2.049,5.305
		c0,0.08-0.04,0.161-0.12,0.241c-0.322,0.563-1.487,0.321-1.407-0.482c0.08-1.125,0.281-2.21,0.643-3.215
		C177.617,21.682,178.139,20.758,178.862,19.874z"></path>
      <path d="M178.059,132.956c0.281,3.978-0.683,7.676-3.094,10.89c-0.482,0.643-1.567,0.04-1.125-0.683
		c1.969-3.094,3.014-6.55,2.934-10.207C176.733,132.112,178.019,132.112,178.059,132.956z"></path>
      <path d="M181.836,206.135c-2.492,9.162-4.581,18.566-6.269,27.929
		c-14.788-19.57-32.992-38.016-50.835-54.813c9.564-0.321,19.128-0.563,28.692-0.522c0.04,0.08,0.04,0.121,0.121,0.201
		c4.702,4.581,9.604,8.961,14.346,13.502C172.513,196.932,176.813,202.156,181.836,206.135z M170.504,218.994
		c0.844,0.402,1.527-0.723,0.723-1.246c-2.693-1.889-5.224-3.978-7.314-6.51c-0.563-0.643-1.768,0.241-1.206,0.964
		C164.838,215.056,167.329,217.386,170.504,218.994z M169.459,213.529c0.844,0.522,1.567-0.723,0.764-1.286
		c-2.893-2.13-5.546-4.501-7.675-7.394c-0.563-0.764-1.889-0.04-1.326,0.804C163.431,208.827,166.124,211.56,169.459,213.529z"></path>
      <path d="M174.522,83.367c1.366,3.778,2.813,7.555,4.34,11.212c-2.853,1.165-5.706,2.411-8.519,3.657
		c-1.527-3.496-3.135-6.952-4.702-10.328C168.615,86.381,171.549,84.854,174.522,83.367z"></path>
      <path d="M174.563,236.796c0.161,0.121,0.321,0.201,0.482,0.241c-1.648,9.564-2.974,19.128-3.978,28.451
		c-1.407-0.08-2.773-0.161-4.179-0.201c0.08-0.442-0.04-0.924-0.402-1.326c-25.116-26.924-47.459-56.26-72.093-83.586
		c9.363-0.281,18.686-0.683,28.05-1.045c-0.04,0.281,0.04,0.563,0.241,0.804C139.32,199.223,156.318,219.235,174.563,236.796z
		 M117.298,199.866c0.764,0.522,1.447-0.683,0.723-1.206c-3.014-2.17-5.706-4.782-7.836-7.756c-0.522-0.723-1.688-0.08-1.205,0.683
		C111.23,194.923,113.922,197.655,117.298,199.866z M110.185,197.012c0.201,0.482,1.085,0.121,0.884-0.402
		c-1.165-2.813-2.733-5.345-4.661-7.716c-0.281-0.322-0.844,0.121-0.603,0.482C107.533,191.748,108.939,194.32,110.185,197.012z"></path>
      <path d="M171.227,217.748c0.804,0.522,0.12,1.648-0.723,1.246c-3.175-1.607-5.666-3.938-7.796-6.791
		c-0.563-0.723,0.643-1.607,1.206-0.964C166.003,213.77,168.535,215.859,171.227,217.748z"></path>
      <path d="M170.222,212.243c0.804,0.563,0.08,1.808-0.764,1.286c-3.335-1.969-6.028-4.702-8.238-7.876
		c-0.563-0.844,0.764-1.567,1.326-0.804C164.677,207.742,167.329,210.113,170.222,212.243z"></path>
      <path d="M163.069,265.087c-8.761-0.362-17.481-0.241-26.201,0.04
		c-26.523-29.215-54.934-57.305-83.385-84.671c12.779,0.563,25.598,0.402,38.377,0C114.083,209.751,137.793,238.363,163.069,265.087
		z M132.85,251.625c0.804,0.442,1.447-0.723,0.723-1.246c-2.733-1.889-5.224-4.179-7.233-6.791c-0.563-0.723-1.808-0.04-1.246,0.723
		C127.184,247.325,129.675,249.736,132.85,251.625z M132.368,257.894c0.442,0.442,1.125-0.241,0.683-0.723
		c-1.125-1.206-2.291-2.371-3.456-3.536c-0.522-0.522-1.286,0.281-0.804,0.764C129.997,255.563,131.122,256.768,132.368,257.894z
		 M80.809,196.651c0.563,0.764,1.889,0.04,1.326-0.764c-0.844-1.206-1.688-2.371-2.492-3.536c-0.603-0.844-1.969-0.04-1.366,0.804
		C79.081,194.32,79.925,195.485,80.809,196.651z"></path>
      <path d="M151.094,64.721c0.402-0.884,1.768-0.241,1.527,0.643c-1.165,4.179-3.014,8.238-4.782,12.136
		c-0.321,0.683-1.406,0.201-1.206-0.482C147.879,72.879,149.205,68.619,151.094,64.721z"></path>
      <path d="M147.919,58.372c0.402-1.125,2.17-0.683,1.808,0.522c-1.005,3.335-2.09,6.671-3.376,9.926
		c-0.402,0.964-1.929,0.603-1.648-0.482C145.629,64.962,146.714,61.667,147.919,58.372z"></path>
      <path d="M139.4,26.826c0.764,0.924-0.522,2.25-1.366,1.326c-2.652-2.893-5.787-4.822-9.524-6.108
		c-0.924-0.321-0.563-1.648,0.402-1.447C132.97,21.401,136.708,23.732,139.4,26.826z"></path>
      <path d="M136.346,19.311c0.764,0.643-0.281,1.969-1.045,1.366c-3.577-2.572-7.555-4.461-11.895-5.385
		c-1.165-0.241-0.643-1.969,0.522-1.768C128.59,14.328,132.769,16.217,136.346,19.311z"></path>
      <path d="M133.573,250.379c0.723,0.522,0.08,1.688-0.723,1.246c-3.175-1.889-5.666-4.3-7.756-7.314
		c-0.563-0.764,0.683-1.447,1.246-0.723C128.349,246.2,130.841,248.49,133.573,250.379z"></path>
      <path d="M133.051,257.17c0.442,0.482-0.241,1.165-0.683,0.723c-1.246-1.125-2.371-2.331-3.576-3.496
		c-0.482-0.482,0.281-1.286,0.804-0.764C130.76,254.799,131.926,255.965,133.051,257.17z"></path>
      <path d="M132.569,265.288c-7.394,0.322-14.748,0.723-22.183,1.165c-4.059,0.241-8.158,0.442-12.216,0.603
		c-18.164-21.379-38.538-41.632-57.907-62.006c-0.965-8.6-2.009-17.159-3.255-25.719c4.421,0.442,8.801,0.723,13.221,0.965
		C76.791,209.269,104.117,238.162,132.569,265.288z M95.517,260.586c0.603,0.522,1.688-0.201,1.165-0.924
		c-1.929-2.773-4.42-5.144-6.711-7.635c-0.683-0.723-1.728,0.362-1.085,1.125C91.017,255.643,93.026,258.376,95.517,260.586z
		 M94.03,253.031c0.603,0.563,1.808-0.201,1.246-0.964c-1.567-2.009-3.376-3.858-5.144-5.706c-0.764-0.844-2.009,0.402-1.246,1.246
		C90.574,249.455,92.182,251.343,94.03,253.031z M58.426,194.682c0.563,0.523,1.366-0.281,0.844-0.844
		c-2.773-3.054-5.666-6.028-8.6-9.001c-0.442-0.442-1.165,0.241-0.723,0.723C52.76,188.654,55.533,191.708,58.426,194.682z
		 M57.341,199.584c0.442,0.563,1.447,0.04,1.005-0.603c-1.688-2.492-3.737-4.581-6.148-6.349c-0.683-0.442-1.326,0.643-0.643,1.125
		C53.805,195.365,55.734,197.294,57.341,199.584z"></path>
      <path d="M119.83,68.458c1.085,2.773,1.165,5.666,0.121,8.439c-0.402,1.045-2.09,0.603-1.688-0.442
		c1.005-2.532,1.165-5.063,0.362-7.676C118.383,68.016,119.548,67.735,119.83,68.458z"></path>
      <path d="M118.021,198.66c0.723,0.522,0.04,1.728-0.723,1.206c-3.376-2.21-6.068-4.943-8.318-8.278
		c-0.482-0.764,0.683-1.406,1.205-0.683C112.315,193.878,115.007,196.49,118.021,198.66z"></path>
      <path d="M111.069,196.611c0.201,0.522-0.683,0.884-0.884,0.402c-1.246-2.692-2.652-5.264-4.38-7.635
		c-0.241-0.362,0.322-0.804,0.603-0.482C108.337,191.266,109.904,193.798,111.069,196.611z"></path>
      <path d="M100.741,147.905c0.804,0.241,0.442,1.406-0.362,1.246c-2.572-0.563-5.184-0.964-7.876-1.005
		c-0.763,0-0.763-1.246,0-1.246C95.316,146.861,98.049,147.102,100.741,147.905z"></path>
      <path d="M97.044,151.321c0.965,0.04,0.924,1.407,0,1.447c-3.014,0.241-6.028,0.201-9.042,0.161
		c-1.125,0-1.125-1.768,0-1.768C91.017,151.12,94.03,151.08,97.044,151.321z"></path>
      <path d="M96.723,167.958c0.723,0.161,0.563,1.366-0.161,1.286c-2.13-0.161-4.179-0.442-6.269-0.723
		c-0.964-0.161-0.563-1.607,0.402-1.487C92.704,167.315,94.714,167.596,96.723,167.958z"></path>
      <path d="M96.683,259.662c0.522,0.723-0.563,1.447-1.165,0.924c-2.492-2.21-4.501-4.943-6.631-7.434
		c-0.643-0.764,0.402-1.848,1.085-1.125C92.262,254.518,94.754,256.889,96.683,259.662z"></path>
      <path d="M95.276,252.067c0.563,0.764-0.643,1.527-1.246,0.964c-1.849-1.688-3.456-3.576-5.144-5.425
		c-0.763-0.844,0.482-2.09,1.246-1.246C91.901,248.209,93.709,250.057,95.276,252.067z"></path>
      <path d="M93.146,117.405c0.603,0.161,0.362,1.045-0.241,0.924c-2.692-0.603-4.742-1.969-6.349-4.179
		c-0.402-0.563,0.482-1.045,0.884-0.522C88.847,115.516,90.856,116.802,93.146,117.405z"></path>
      <path d="M90.173,64.56c0.683-0.402,1.406,0.563,0.844,1.085c-2.17,2.049-3.617,4.541-3.858,7.515
		c-0.08,0.884-1.407,0.924-1.407,0C85.752,69.664,87.239,66.529,90.173,64.56z"></path>
      <path d="M94.111,267.217c-4.38,0.161-8.72,0.281-13.101,0.281c-2.411,0-5.706,0.121-9.323,0.201
		c-4.38-4.983-10.167-9.002-14.828-13.703c-4.421-4.461-8.439-9.243-12.699-13.784c-1.206-10.488-2.291-21.017-3.456-31.506
		C56.698,229.241,74.621,250.098,94.111,267.217z M60.315,245.034c0.764,0.603,1.808-0.362,1.085-1.085
		c-2.652-2.612-5.224-5.345-7.354-8.399c-0.603-0.844-1.929-0.08-1.366,0.764C54.849,239.569,57.301,242.543,60.315,245.034z"></path>
      <path d="M82.135,195.887c0.563,0.804-0.764,1.527-1.326,0.764c-0.884-1.165-1.728-2.331-2.532-3.496
		c-0.603-0.844,0.764-1.648,1.366-0.804C80.448,193.516,81.292,194.682,82.135,195.887z"></path>
      <path d="M68.553,85.135c0.884-0.322,1.366,1.005,0.603,1.487c-3.858,2.331-7.032,5.264-9.403,9.162
		c-0.603,0.965-1.929,0.121-1.487-0.884C60.194,90.44,63.931,86.823,68.553,85.135z"></path>
      <path d="M67.588,267.739c-7.595,0.04-15.833-0.402-20.736-2.813c0.241-0.402,0.402-0.844,0.321-1.366
		c-1.005-6.631-1.808-13.301-2.612-19.972c3.175,4.34,6.832,8.359,10.488,12.176C58.828,259.702,62.967,264.364,67.588,267.739z
		 M54.97,263.962c0.522,0.442,1.326-0.321,0.764-0.804c-1.286-1.206-2.652-2.371-3.978-3.536c-0.563-0.442-1.366,0.322-0.844,0.844
		C52.237,261.631,53.604,262.796,54.97,263.962z"></path>
      <path d="M65.458,92.972c0.844-0.362,1.567,0.723,0.723,1.246c-2.773,1.728-4.541,4.219-5.425,7.314
		c-0.322,1.085-1.768,0.603-1.608-0.442C59.632,97.472,62.043,94.378,65.458,92.972z"></path>
      <path d="M61.4,243.949c0.723,0.723-0.321,1.688-1.085,1.085c-3.014-2.492-5.465-5.465-7.635-8.72
		c-0.563-0.844,0.764-1.607,1.366-0.764C56.176,238.605,58.747,241.337,61.4,243.949z"></path>
      <path d="M59.27,193.838c0.522,0.563-0.281,1.366-0.844,0.844c-2.893-2.974-5.666-6.028-8.479-9.122
		c-0.442-0.482,0.281-1.165,0.723-0.723C53.604,187.81,56.497,190.784,59.27,193.838z"></path>
      <path d="M58.346,198.981c0.442,0.643-0.563,1.165-1.005,0.603c-1.607-2.291-3.536-4.219-5.787-5.827
		c-0.683-0.482-0.04-1.567,0.643-1.125C54.608,194.4,56.658,196.49,58.346,198.981z"></path>
      <path d="M55.734,263.158c0.563,0.482-0.241,1.246-0.764,0.804c-1.366-1.165-2.733-2.331-4.059-3.496
		c-0.522-0.522,0.281-1.286,0.844-0.844C53.081,260.787,54.448,261.952,55.734,263.158z"></path>
      <path d="M45.486,167.878c0.844,0.121,0.643,1.487-0.161,1.447c-3.054-0.281-6.028-0.683-9.042-1.045
		c-0.884-0.121-0.924-1.527,0-1.447C39.338,167.154,42.432,167.476,45.486,167.878z"></path>
      <path d="M39.78,171.535c0.764,0.04,0.764,1.165,0,1.165c-2.733,0-5.305-0.482-7.836-1.567
		c-0.522-0.241-0.121-1.125,0.402-0.924C34.797,170.892,37.248,171.414,39.78,171.535z"></path>
      <path d="M35.56,136.051c0.522-0.884,1.768-0.08,1.366,0.804c-1.085,2.532-1.929,5.144-2.331,7.876
		c-0.161,0.964-1.808,0.723-1.688-0.201C33.27,141.516,34.073,138.703,35.56,136.051z"></path>
      <path d="M31.1,139.627c0.281-0.603,1.326-0.161,1.085,0.482c-1.085,3.255-1.206,6.59-0.04,9.846
		c0.241,0.522-0.723,0.924-0.964,0.402C29.613,146.82,29.492,143.164,31.1,139.627z"></path>
    </g>
    <g></g>
    <g></g>
    <g></g>
    <g></g>
    <g></g>
    <g></g>
    <g></g>
    <g></g>
    <g></g>
    <g></g>
    <g></g>
    <g></g>
    <g></g>
    <g></g>
    <g></g>
  </symbol>
  <symbol id="hamburger-menu-mobile-svgrepo-com" version="1.1" xmlns="http://www.w3.org/2000/svg" xmlnsCc="http://creativecommons.org/ns#" xmlnsDc="http://purl.org/dc/elements/1.1/" xmlnsRdf="http://www.w3.org/1999/02/22-rdf-syntax-ns#" xmlnsSvg="http://www.w3.org/2000/svg" viewBox="0 0 6.3499998 6.3499998">
    <defs id="defs2"></defs>
    <path d="m 1.2968523,0.52929701 a 0.2649528,0.2649528 0 0 0 0.025391,0.52929689 h 3.7050782 a 0.26464847,0.26464847 0 1 0 0,-0.52929689 H 1.3222429 a 0.26460978,0.26460978 0 0 0 -0.025391,0 z" id="path1723"></path>
    <path d="m 1.3222429,2.9101563 a 0.2646485,0.2646485 0 1 0 0,0.529297 h 3.7050783 a 0.2646485,0.2646485 0 1 0 0,-0.529297 z" id="path1725"></path>
    <path d="m 1.3222429,5.2910156 a 0.26464855,0.26464855 0 1 0 0,0.5292971 h 3.7050783 a 0.26464855,0.26464855 0 1 0 0,-0.5292971 z" id="path1727"></path>
  </symbol>
  <symbol version="1.1" id="two-balls-ice-cream-cone-svgrepo-com" xmlns="http://www.w3.org/2000/svg" xmlns:xlink="http://www.w3.org/1999/xlink" x="0px" y="0px" xml:space="preserve" viewBox="0 0 55.658 55.658">
    <g>
      <path d="M37.247,25.3c-0.197-0.657-0.806-1.088-1.459-0.974c0.063-0.035,0.118-0.09,0.148-0.177
		c0.697-2.053,0.716-4.066,0.184-5.784c0.013,0.004,0.019,0.017,0.034,0.019c0.747,0.093,1.187-0.596,1.256-1.266
		c0.104-1.015-0.736-1.794-0.915-2.753c0.459-0.924,0.759-2.207-0.175-2.898c-0.419-0.31-0.965-0.392-1.396-0.197
		c0.049-0.377,0.098-0.755,0.138-1.133c0.037,0.253,0.457,0.312,0.506,0.031c0.865-4.992-3.769-10.822-9.009-10.108
		c-5.214,0.711-8.103,6.314-5.93,10.986c0.022,0.047,0.059,0.071,0.1,0.08c0.13,0.39,0.27,0.778,0.41,1.166
		c-0.35-0.02-0.687,0.142-0.967,0.456c-0.774,0.87-0.235,2.04-0.483,3.064c-0.692,0.531-1.351,1.171-1.441,2.074
		c-0.072,0.719,0.33,1.899,1.213,1.848c0.126-0.007,0.236-0.184,0.116-0.279c-0.641-0.509-1.063-1.017-0.783-1.893
		c0.174-0.543,0.58-0.99,1.009-1.387c0.12,0.051,0.276,0.025,0.328-0.137c0.015-0.046,0.026-0.114,0.036-0.191
		c0.052-0.046,0.106-0.094,0.157-0.138c0.108-0.094-0.001-0.26-0.121-0.246c0.076-1.114,0.114-3.184,1.212-2.568
		c0.236,0.133,0.44-0.124,0.344-0.344c-0.269-0.618-0.563-1.221-0.86-1.823c-1.303-4.646,1.13-9.954,6.479-10.117
		c4.493-0.137,7.471,4.576,7.667,8.669c-0.037,0.003-0.073,0.019-0.083,0.061c-0.199,0.82-0.417,1.632-0.575,2.461
		c-0.047,0.246,0.291,0.424,0.425,0.179c0.259-0.338,0.565-0.435,0.917-0.292c0.5,0.18,0.739,0.563,0.715,1.149
		c0.02,0.575-0.286,1.164-0.463,1.697c-0.065,0.197,0.211,0.31,0.327,0.158c0.071,0.394,0.219,0.759,0.38,1.139
		c0.251,0.593,0.672,2.232-0.535,2.137c-0.062-0.005-0.105,0.017-0.138,0.047c-1.089-3.008-3.967-4.988-8.051-4.387
		c-6.179,0.909-9.793,4.975-7.593,11.158c-0.017,0.013-0.033,0.027-0.049,0.04c-0.039-0.019-0.083-0.027-0.127,0.002
		c-1.313,0.847-0.586,2.59-1.049,3.848c-0.266,0.723-0.57,1.104-0.224,1.866c0.237,0.521,0.703,0.936,1.203,1.223
		c0.129,1.136,0.003,2.428,1.039,3.172c0.396,0.284,1.242,0.523,1.741,0.263c1.544,6.811,3.283,13.623,5.299,20.258
		c0.081,0.267,0.457,0.264,0.539,0c1.775-5.693,3.257-11.439,4.448-17.253c1.079,0.201,2.162-0.315,2.421-1.478
		c0.114-0.514-0.071-0.802-0.085-1.287c-0.033-1.177,0.144-2.251,0.427-3.394c0.304-1.229,0.46-2.408,0.408-3.683
		c-0.001-0.024-0.015-0.035-0.023-0.053C36.715,27.312,37.579,26.403,37.247,25.3z M36.425,27.096
		c-0.103,0.223-0.222,0.438-0.313,0.667c-0.21,0.528-0.267,1.013-0.155,1.554c-0.183,1.291-0.461,2.42-0.892,3.728
		c-0.394,1.193,0.459,5.074-1.806,4.843c0.756-3.725,1.392-7.476,1.901-11.261c0.052-0.389-0.56-0.385-0.612,0
		c0,0.003-0.001,0.006-0.001,0.01c-0.2-0.456-0.953-0.333-1.325-0.1c-0.607,0.381-0.641,1.122-0.949,1.683
		c-0.077-0.034-0.171-0.02-0.193,0.087c-0.021,0.075-0.032,0.152-0.046,0.229c-0.04,0.041-0.078,0.083-0.126,0.119
		c-0.181-0.099-0.361-0.198-0.542-0.296c-0.168-0.296,0.067-0.883,0.108-1.228c0.037-0.311,0.069-0.624-0.055-0.92
		c-0.204-0.487-0.806-0.924-1.318-0.615c-0.266,0.161-0.252,0.458-0.438,0.66c-0.512,0.56-0.719-0.389-1.003-0.687
		c-0.327-0.343-0.788-0.479-1.086-0.062c-0.1,0.14,0.121,0.307,0.237,0.183c0.374-0.399,0.865,0.842,1.015,1.007
		c0.133,0.147,0.288,0.291,0.497,0.315c0.701,0.08,0.519-0.623,0.886-0.914l0.632,0.018c0.217,0.294,0.285,0.604,0.205,0.929
		c-0.011,0.268-0.097,0.53-0.12,0.797c-0.025,0.307-0.013,0.575,0.129,0.856c0.241,0.476,0.669,0.731,1.184,0.564
		c0.091-0.03,0.147-0.105,0.152-0.199c0.016-0.123-0.004-0.245-0.007-0.368c0.252-0.27,0.395-0.616,0.547-0.973
		c0.233-0.546,0.738-1.247,1.351-0.721c0.059,0.051,0.142,0.058,0.209,0.031c-0.64,4.712-1.436,9.395-2.462,14.038
		c-0.323,1.463-2.392,12.496-3.537,12.487c-1.04-0.008-3.563-11.134-5.243-18.796c0.008-0.028,0.025-0.047,0.031-0.078
		c0.017-0.089-0.027-0.165-0.093-0.205c-0.7-3.195-1.241-5.728-1.455-6.529c0.035-0.546,0.453-1.112,1.032-1.052
		c0.483,0.05,0.727,0.429,0.789,0.85c-0.032,0.018-0.058,0.045-0.056,0.089c0.005,0.148,0.02,0.294,0.043,0.44
		c-0.015,0.078-0.035,0.154-0.062,0.224c-0.044,0.117,0.053,0.198,0.156,0.207c0.243,0.874,0.786,1.673,1.471,2.27
		c0.498,0.434,1.233,0.685,1.568-0.04c0.451-0.979-0.672-1.944-0.424-2.921c0.2-0.789,1.958-1.49,0.998-2.459
		c-0.153-0.155-0.38,0.041-0.29,0.224c0.419,0.854-0.795,1.248-1.079,1.888c-0.21,0.474-0.098,0.949,0.038,1.425
		c0.081,0.282,0.245,0.569,0.284,0.86c0.238,0.517-0.013,0.743-0.751,0.68c-0.104-0.098-0.2-0.202-0.29-0.313
		c-0.502-0.459-0.974-1.156-1.244-1.85c0.529-0.801-0.234-2.053-1.172-2.085c-0.795-0.027-1.326,0.672-1.344,1.387
		c-0.049,0.042-0.085,0.1-0.068,0.182c0.461,2.213,0.942,4.433,1.442,6.653c-0.213,0.124-0.405,0.219-0.708,0.166
		c-0.412-0.072-0.794-0.355-1.009-0.705c-0.37-0.601-0.452-1.409-0.591-2.146c0.156,0.015,0.296-0.156,0.157-0.29
		c-0.085-0.082-0.182-0.159-0.278-0.236c-0.009-0.031-0.013-0.067-0.022-0.098c-0.027-0.09-0.108-0.104-0.172-0.076
		c-0.03-0.028-0.065-0.053-0.092-0.083c-0.382-0.414-0.705-1.335-0.619-1.909c0.052-0.344,0.339-0.7,0.401-1.074
		c0.127-0.77-0.144-1.79,0.156-2.548c0.057,0.005,0.114-0.014,0.161-0.07c0.135-0.163,0.258-0.336,0.383-0.507
		c0.104,0.024,0.225-0.046,0.193-0.186c-0.004-0.017-0.007-0.034-0.011-0.051c0.028-0.035,0.054-0.074,0.083-0.108
		c0.083-0.096-0.043-0.225-0.138-0.143c-0.438-1.979-0.687-3.97,0.073-5.899c0.988-2.507,3.458-3.527,5.896-4.079
		c2.603-0.59,5.212-0.664,7.371,1.224c2.304,2.014,2.052,5.549,1.324,8.19c-0.063,0.229,0.109,0.373,0.29,0.382
		c-0.287,0.097-0.168,0.545,0.131,0.462C37.357,24.377,36.693,26.519,36.425,27.096z"></path>
      <path d="M31.049,3.681c-0.168-0.077-0.316,0.163-0.147,0.252c0.655,0.347,0.59,0.994,0.348,1.573
		c-0.066,0.158,0.155,0.237,0.259,0.15C32.162,5.109,31.713,3.987,31.049,3.681z"></path>
      <path d="M31.829,6.234c-0.348,0.39-1.158,0.202-1.08-0.404c0.015-0.119-0.188-0.147-0.211-0.029
		c-0.152,0.782,1.133,1.377,1.497,0.593C32.095,6.267,31.936,6.114,31.829,6.234z"></path>
      <path d="M30.327,3.312c-0.04-0.129-0.241-0.142-0.275,0c-0.022,0.133-0.073,0.255-0.155,0.366
		c-0.497,0.056-0.667-0.1-0.509-0.469c0.088-0.168-0.159-0.314-0.255-0.149c-0.219,0.377-0.078,0.933,0.383,1.052
		C29.983,4.232,30.47,3.775,30.327,3.312z"></path>
      <path d="M32.845,17.74c-0.2,0.199-0.547,0.364-0.821,0.186c-0.354-0.23-0.244-0.728,0.039-0.949
		c0.091-0.072-0.027-0.221-0.123-0.16c-0.433,0.273-0.584,0.909-0.211,1.306c0.379,0.404,1.118,0.296,1.335-0.214
		C33.121,17.773,32.966,17.62,32.845,17.74z"></path>
      <path d="M33.923,17.883c-0.031-0.196-0.055-0.322-0.209-0.431c-0.303-0.216-0.868-0.303-1.202-0.446
		c-0.122-0.052-0.231,0.123-0.107,0.182c0.263,0.125,0.964,0.362,1.096,0.655c0.169,0.378-0.139,0.855-0.188,1.217
		c-0.022,0.162,0.14,0.27,0.273,0.159C33.944,18.92,33.992,18.318,33.923,17.883z"></path>
      <path d="M34.14,20.155c-0.433,0.148-1.007,0.519-1.46,0.252c-0.276-0.163-0.458-0.888,0.061-0.891
		c0.119-0.001,0.111-0.164,0-0.179c-0.559-0.075-0.749,0.615-0.579,1.044c0.338,0.852,1.563,0.492,2.12,0.111
		C34.445,20.381,34.35,20.083,34.14,20.155z"></path>
      <path d="M34.56,22.06c-0.257-0.388-0.817-0.804-1.291-0.515c-0.317,0.193-0.447,0.637-0.162,0.907
		c0.133,0.125,0.317-0.063,0.199-0.199c-0.083-0.205-0.018-0.344,0.196-0.419c0.183-0.005,0.34,0.047,0.471,0.157
		c0.135,0.077,0.253,0.187,0.385,0.271C34.481,22.339,34.642,22.183,34.56,22.06z"></path>
    </g>
    <g></g>
    <g></g>
    <g></g>
    <g></g>
    <g></g>
    <g></g>
    <g></g>
    <g></g>
    <g></g>
    <g></g>
    <g></g>
    <g></g>
    <g></g>
    <g></g>
    <g></g>
  </symbol>
  <symbol xmlns="http://www.w3.org/2000/svg" viewBox="0 0 1440 320" id="wave">
    <path fill="#94d0da" fill-opacity="1" d="M0,256L20,245.3C40,235,80,213,120,170.7C160,128,200,64,240,42.7C280,21,320,43,360,80C400,117,440,171,480,197.3C520,224,560,224,600,213.3C640,203,680,181,720,149.3C760,117,800,75,840,53.3C880,32,920,32,960,37.3C1000,43,1040,53,1080,64C1120,75,1160,85,1200,117.3C1240,149,1280,203,1320,202.7C1360,203,1400,149,1420,122.7L1440,96L1440,0L1420,0C1400,0,1360,0,1320,0C1280,0,1240,0,1200,0C1160,0,1120,0,1080,0C1040,0,1000,0,960,0C920,0,880,0,840,0C800,0,760,0,720,0C680,0,640,0,600,0C560,0,520,0,480,0C440,0,400,0,360,0C320,0,280,0,240,0C200,0,160,0,120,0C80,0,40,0,20,0L0,0Z"></path>
  </symbol>
</svg>