<?xml version="1.0" encoding="utf-8"?>
<!-- Generator: Adobe Illustrator 24.1.2, SVG Export Plug-In . SVG Version: 6.00 Build 0)  -->
<svg version="1.1" id="Layer_1" xmlns="http://www.w3.org/2000/svg" xmlns:xlink="http://www.w3.org/1999/xlink" x="0px" y="0px"
	 viewBox="0 0 595.28 841.89" style="enable-background:new 0 0 595.28 841.89;" xml:space="preserve">
<style type="text/css">
	.st0{fill:#FFFFFF;}
</style>
<g>
	<g>
		<path class="st0" d="M149.63,391.65c-1.67-1.32-3.56-2.18-5.39-2.43c-2.69-0.36-5.32,0.55-7.3,2.89
			c-1.74,2.05-2.83,4.92-2.93,7.88c-0.18,5.85,2.46,10.55,7.08,12.59c2.86,1.26,6.33,1.14,9.02-0.6c3.06-1.98,4.77-6.12,4.69-10.31
			C154.72,397.54,152.5,393.92,149.63,391.65z"/>
		<path class="st0" d="M614.22,463.09c-3.26-4.31-8.59-4.06-12.72-1.98c-2.63,1.33-4.82,3.5-6.9,5.82
			c-2.18,2.42-4.25,4.97-6.19,7.68c-3.69,5.18-7.23,8.77-11.14,11.31c-3.4,2.2-9.29,2.86-11.04-2.42c-0.66-2.01-0.95-4.12-0.85-6.27
			c0.6-12.91,7.5-23.52,13.08-33.81c1.86-3.42,4.23-8.07,4.36-13.91c0.07-3.48-1.96-10.65-8.19-10.65c-5.76,0-8.09,5.43-8.45,8.48
			c-2.3,19.5-13.25,39.03-16.92,44.55c-3.07,4.62-6.42,8.23-10.26,11.04c-3.42,2.5-8.62,4.95-12.17,1.29
			c-1.41-1.45-2.31-3.21-2.67-5.23c-1.03-5.76-0.23-11.42,0.64-17.15c1.45-9.55,4.15-18.85,6.74-28.04
			c2.91-10.29,6.31-20.39,9.38-30.58c1.88-6.25,3.89-17.64,10.08-19.49c3.46-1.04,7.08-1.32,10.6-1.93
			c3.69-0.64,7.37-1.34,11.04-2.13c5.99-1.28,11.2-3.26,15.93-6.03c1.87-1.1,3.3-2.29,4.5-3.76c1.37-1.66,2.09-3.72,2.2-6.27
			c0.09-1.95-0.32-3.83-1.25-5.75c-2.79-5.78-7.87-4.88-12.28-2.73l-0.14,0.07c-6.41,3.14-12.91,6.43-19.71,8.07
			c-1.88,0.45-6.18,1.92-7.68-0.2c-0.41-0.58-0.57-1.37-0.49-2.42c0.1-1.24,0.24-2.23,0.44-3.11c2.09-9.09,4.22-18.12,5.98-27.3
			c0.58-3.03,0.45-6.64-0.68-9.46c-1.46-3.66-5.21-5.19-8.34-4.59c-7.3,1.39-8.01,12.7-8.72,19.8c-0.89,8.86-2.28,17.66-3.98,26.34
			c-0.51,2.59-1.96,4.42-4.2,5.27c-2.03,0.78-4.27,0.73-6.38,0.63c-2.24-0.11-4.44-0.42-6.64-0.8c-2.47-0.43-7.83-0.33-6.82-5.11
			c1.38-6.55,3.19-12.94,4.49-19.52c1.39-7.04,4.01-15.66,1.74-22.88c-1.26-4.02-4.94-5.59-8.19-4.71c-3.44,0.94-6.06,4.16-6.77,8.4
			c-1.36,8.08-2.24,16.29-3.29,24.44c-0.46,3.47-0.75,7.11-1.81,10.4c-1.26,3.9-5.09,3.96-7.91,3.3c-4.8-1.12-9.56-2.46-14.35-3.59
			c-5.68-1.33-11.4-2.37-17.15-3.12c-11.56-1.5-23.13-1.65-34.71-0.33c-5.27,0.6-10.41,1.71-15.59,3.04
			c-4.14,1.06-8.26,2.48-12.08,4.72c-4.7,2.76-9.56,6.96-8.3,14.17c0.77,4.41,4.1,7.69,7.73,8.04c2.23,0.21,4.01-0.92,5.99-2.03
			c5.06-3.09,10.09-5.68,15.59-7.36c11.24-3.44,22.83-4.24,34.38-3.52c9.37,0.58,18.72,2.15,27.99,3.7
			c3.14,0.52,6.58,0.95,9.59,2.19c1.01,0.42,1.98,1.09,2.65,2.09c1.49,2.23,0.92,5.39,0.29,7.89c-0.77,3.06-1.52,6.1-2.39,9.15
			c-1.96,6.88-3.92,13.76-5.87,20.64c-0.58,2.02-1.27,3.99-1.85,5.97c-4.26,14.55-9.49,29.47-15.53,44.37
			c-1.34,3.29-3.1,6.63-5.55,10.51c-1.73,2.73-3.98,4.84-6.36,6.65c-2.38,1.8-5.36,3.38-7.93,1.78c-4.08-2.55-1.61-11.73-0.2-16.1
			c3.51-10.91,9.17-20.52,12.8-31.33c1.85-5.53,3.32-12.46,2.61-18.26c-0.49-3.98-2.96-7.23-6.73-7.23c-3.89,0-6.52,2.34-8.27,6.92
			c-1.53,4.03-1.85,8.67-2.45,13.01c-1.47,10.57-2.6,17.1-5.97,25.35c-3.01,7.36-6.35,11.29-10.66,15.66
			c-4.13,4.18-8.13,7.26-12.25,9.39c-3.32,1.72-6.85,2.93-10.49,2.87c-2.71-0.05-5.49-0.39-7.59-2.64
			c-3.02-3.23-4.02-8.28-3.97-13.03c0.06-5.15,1.41-10.19,3.23-14.79c1.08-2.72,2.35-5.34,3.75-7.83
			c3.01-5.37,7.12-10.99,12.02-13.76c2.26-1.28,4.35-1.9,6.4-1.9c2.43,0,4.4,0.93,6.35,2.63c0.67,0.59,1.37,1.19,2.03,1.85
			c2.38,2.37,5.96,2.82,8.73,1.26c3.39-1.91,4.74-6.55,4.16-10.93c-0.67-5.08-3.46-9.18-7.15-11.48c-7.09-4.4-15.1-2.66-21.66,2.27
			c-4.16,3.13-8.05,7.14-11.57,11.92c-2.91,3.95-5.59,8.61-8.43,14.66c-2.2,4.69-4.19,8.91-6.37,13.15
			c-3.85,7.51-7.52,13.23-11.56,17.99c-3.62,4.26-7.36,7.61-11.45,10.24c-2.52,1.62-5.77,2.65-8.52,1.27
			c-2.33-1.17-3.79-3.87-4.09-6.88c-0.32-3.17-0.14-6.44,0.51-9.71c0.94-4.72,2.62-9.57,5.26-15.25
			c3.03-6.52,11.32-17.4,11.32-25.67c0-3.53-1.2-11.78-7.91-11.78c-5.46,0-7.52,4.66-8.13,7.74c-0.64,3.23-1.12,6.62-1.91,9.84
			c-0.83,3.37-2.17,6.32-3.62,9.34c-3.26,6.76-7.29,12.98-11.93,18.41c-4.48,5.24-9.69,9.34-15.01,13.2
			c-5.89,4.28-12.3,6.72-17.23,8.36c-6.12,2.04-14.08,3.19-20.16-0.3c-5.44-3.13-7.62-9.04-7.85-15.84
			c-0.13-3.97,0.46-8.07,1.93-13.29c1.65-5.86,4.54-11.17,9.08-16.7c2.17-2.64,4.44-4.59,6.95-5.97c4.56-2.5,11.16-3.74,15.09,1.03
			c1.59,1.93,2.82,4.4,3.65,7.32c1.33,4.65,3.79,7.95,8.04,8.15c3.5,0.16,7.45-1.64,9.51-5.24c3.1-5.42,1.36-13.73-1.42-18.81
			c-2.61-4.77-6.07-8.08-10.56-10.12c-5.77-2.62-12.02-2.44-17.9-0.46c-5.69,1.91-11.43,6.46-15.72,11.35
			c-3.37,3.84-6.7,8.3-10.48,14.05c-5.31,8.07-10.77,16.09-16.58,23.62c-2.2,2.85-4.31,5.82-6.67,8.46
			c-2.51,2.8-5.06,5.75-7.77,8.26c-2.37,2.2-4.85,4.52-7.68,5.77c-2.09,0.92-5,1.6-6.53-0.95c-1.22-2.04-1.4-5.02-1.17-7.45
			c0.44-4.7,2.45-9.22,4.3-13.09c1.5-3.14,3.37-6.24,5.35-9.52c6.3-10.44,12.81-21.23,7.21-33.69c-3.32-7.37-9.98-8.47-13.66-8.47
			c-1.37,0-2.77,0.15-4.16,0.44c-6.26,1.31-11.71,6.28-16.15,11.61c-1.74,2.09-3.39,4.25-5.16,6.3c-0.65,0.75-2.2,2.33-3.3,2.36
			c-0.58,0.02-1.48-0.1-1.93-4.63c-0.79-8.02-6.3-10.24-12.45-10.15c-2.55,0.04-5.1,0.75-7.79,2.29c-3.5,2.01-6.6,5.21-9.75,10.07
			c-1.44,2.22-2.68,4.72-3.88,7.14c-2.76,5.57-5.31,11.36-8.26,16.76c-4.6,9.22-9.6,16.89-15.28,23.46
			c-3.4,3.93-9.5,10.1-14.37,6.96c-2.21-1.42-2.97-4.59-2.99-6.99c-0.07-7.1,2.9-13.59,5.91-19.41c2.84-5.49,6.17-10.48,9.18-15.81
			c2.41-4.27,4.35-8.98,4.68-14.23c0.35-5.54-2.39-11.17-8.53-11.19c-3.39-0.01-5.9,1.76-7.45,4.7c-1.57,2.99-1.83,7.05-2.09,10.98
			c-0.22,3.45-0.69,6.97-1.58,10.3c-0.96,3.55-2.55,6.53-4.12,9.7c-1.34,2.71-2.78,5.41-4.14,7.91c-3.4,6.29-5.5,12.49-6.41,18.95
			c-0.43,3.04-0.79,6.65-0.23,10.41c0.74,4.96,2.43,9.21,4.88,12.28c2.62,3.28,6.02,5.05,9.83,5.01c4.65-0.04,8.49-1.89,12.08-4.71
			c2.37-1.86,4.7-4.25,7.34-7.51c4.36-5.39,8.29-11.72,12.36-19.93c4.8-9.68,9.42-17.81,14.14-24.85c1.15-1.72,2.22-3.49,3.59-4.99
			c2.08-2.27,5.22-5.26,8.17-3.9c3.22,1.47,2.95,5.8,2.12,9.12c-0.88,3.49-2.02,6.75-3.59,9.88c-1.91,3.8-3.81,7.59-5.72,11.39
			c-1.09,2.17-2.37,4.24-3.58,6.31c-2.9,4.94-5.9,10.06-7.09,15.48c-0.86,3.94-0.44,9.19,2.44,12.05c4.44,4.4,11.09,1.19,14.49-3.46
			c2.03-2.78,2.99-6.24,4.03-9.68c2.38-7.88,4.64-15.83,7.76-23.33c0.26-0.64,0.54-1.27,0.81-1.9c1.76-4,3.87-8.06,6.84-13.14
			c3.49-5.98,7.61-11.25,12.25-15.67c1.69-1.61,3.45-3.14,5.39-4.24c1.94-1.1,4.24-2.03,6.36-1.29c2.84,0.99,4.33,4.24,3.69,8.1
			c-0.4,2.42-1.04,4.9-1.99,7.09c-1.74,4.04-4.05,7.81-6.25,11.49c-3.43,5.72-6.24,11.35-8.6,17.23c-3.29,8.2-3.36,16.89-0.2,23.26
			c1.02,2.04,2.35,3.87,4.04,5.11c3.56,2.61,8.36,2.34,12.18,0.85c3.91-1.53,7.39-4.38,10.59-7.46c2.48-2.39,4.83-4.98,7.23-7.48
			c3.34-3.47,6.75-8.47,11.52-8.47c2.45,0,4.36,1.41,5.52,4.08c2.24,5.14,5.07,10.11,8.62,14c1.96,2.15,3.89,3.63,5.9,4.52
			c2.09,0.92,4.26,1.59,6.48,1.83c6.74,0.73,13.88-1.2,20.11-4.26c3.72-1.82,7.29-4.05,10.85-6.3c3.46-2.19,6.9-4.62,10.66-5.93
			c3.18-1.11,6.94-1.32,9.34,1.9c1.56,2.1,2.75,4.55,4.05,6.87c1.51,2.7,3.36,5.18,5.75,6.74c4.58,2.98,10.84,2.31,15.59,0.27
			c3.34-1.43,6.63-3.76,10.06-7.12c1.87-1.83,3.85-3.67,6.04-5.61c1.06-0.94,2.26-1.88,3.61-1.92c2.03-0.05,3.52,1.9,4.68,3.7
			c1.43,2.22,2.73,4.54,4.28,6.64c4.24,5.75,11.21,6.69,17.08,4.93c1.87-0.56,3.79-1.21,5.58-2.06c3.96-1.87,7.53-4.72,11.16-7.37
			c2.15-1.57,4.28-3.3,6.57-4.54c1.67-0.91,3.49-1.06,4.57,0.95c0.88,1.64,1.13,3.41,1.87,5c2,4.32,3.79,8.5,9.45,8.64
			c4.93,0.12,8.47-2.06,11.58-4.51c1.52-1.2,2.98-2.52,4.43-3.84c1.34-1.22,2.63-2.51,4.31-2.93c1.35-0.34,2.41,0.46,3.34,1.64
			c1.08,1.37,2.13,2.82,3.14,4.22c1.69,2.33,3.66,4.19,6.19,4.86c4.16,1.11,8.65-0.52,12.27-3.01c2.15-1.48,4.21-3.43,5.95-5.55
			c1.33-1.62,2.7-3.18,4.02-4.8c1.35-1.65,3.12-3.35,5.13-3.35c1.19,0,2.12,0.77,2.83,2.34c0.93,2.05,1.51,4.29,2.26,6.43
			c1.43,4.06,3.92,7.72,7.71,8.16c2.81,0.33,5.7,0.03,8.36-1.19c3.12-1.43,5.98-3.67,8.87-5.66c2.28-1.57,4.47-3.32,6.77-4.86
			c1.44-0.97,3.18-2,4.87-1.65c1.72,0.35,2.86,2.44,3.8,4.04c1.22,2.07,2.63,4.06,4.19,5.75c3.6,3.9,8.84,4.45,13.46,3.24
			c4.99-1.31,9.15-6.03,12.9-9.94c1.87-1.94,3.71-3.91,5.55-5.9c6.45-6.98,12.86-11.72,19.59-14.5c1.89-0.78,3.82-1.51,5.59-2.67
			c1.33-0.87,2.77-1.96,3.53-3.6C616.79,469.1,615.83,465.22,614.22,463.09z M515.55,446.87c-1.93,5.54-3.91,11.06-6.23,16.36
			c-2.94,6.73-6.54,13.18-11.38,18.09c-1.2,1.22-2.49,2.33-3.87,3.24c-2.5,1.65-6.25,3.29-8.9,1.36c-2.2-1.6-3.24-4.9-3.65-7.84
			c-0.53-3.77-0.22-7.56,0.45-11.27c0.73-4.02,1.72-8.26,3.13-13.33c3.04-10.95,6.84-21.56,10.57-32.18
			c2.81-7.99,5.58-15.99,8-24.17c0.89-3.02,1.89-6.04,2.85-8.97c0.69-2.09,1.36-4.35,2.65-6.02c1.64-2.13,4.31-1.93,6.48-1.59
			c3.77,0.6,7.55,1.07,11.34,1.43c1.6,0.15,3.78-0.02,4.79,1.82c0.96,1.75,0.61,4.31,0.23,6.22c-1.82,9.02-4.31,17.84-6.68,26.65
			c-2.24,8.29-4.94,16.38-7.74,24.41C516.89,443,516.22,444.94,515.55,446.87z"/>
		<path class="st0" d="M374.61,391.44c-1.67-1.32-3.56-2.18-5.39-2.43c-2.69-0.36-5.32,0.55-7.3,2.89
			c-1.74,2.05-2.83,4.92-2.93,7.88c-0.18,5.85,2.46,10.55,7.08,12.59c2.86,1.26,6.33,1.14,9.02-0.6c3.06-1.98,4.77-6.12,4.69-10.31
			C379.7,397.34,377.48,393.72,374.61,391.44z"/>
		<path class="st0" d="M588.32,391.86c-1.67-1.32-3.56-2.18-5.39-2.43c-2.69-0.36-5.32,0.55-7.3,2.89
			c-1.74,2.05-2.83,4.92-2.93,7.88c-0.18,5.85,2.46,10.55,7.08,12.59c2.86,1.26,6.33,1.14,9.02-0.6c3.06-1.98,4.77-6.12,4.69-10.31
			C593.41,397.75,591.2,394.13,588.32,391.86z"/>
	</g>
	<path class="st0" d="M32.54,530.57c-3.48-0.26-6.87-1.44-9.99-3.95c-5.63-4.52-9.13-11.01-10.72-19.86
		c-3.09-17.17,5.72-32.57,12.71-46.42c12.35-24.47,26.45-50.54,30.86-79.18c0.82-5.34,1.59-11.7-0.77-16.65
		c-2.89-6.05-8.9-6.31-13.68-3.7c-5.78,3.15-9.84,9.46-13.1,15.86c-3.86,7.56-7.46,16.52-10.71,24.45
		c-3.72,9.23-8.08,18.65-14.09,25.94c-4.97,6.01-12.38,11.95-19.42,7.38c-3.18-2.07-5.11-6.07-5.29-10.44
		c-0.39-9.4,5.26-14.81,10.71-20.02c6.13-5.86,11.85-12.43,16.74-19.85c5.02-7.62,9.37-16.91,12.65-25.79
		c2.85-7.73,6.44-14.38,11.72-20.01c9.7-10.35,23.14-14.19,33.92-3.85c9.75,9.35,10.24,26.43,8.45,40.17
		c-3.63,27.86-19.28,51.64-29.77,76.03c-4.52,10.5-9.37,21.84-10.26,33.85c-0.32,4.35-0.55,9.26,2.34,12.44
		c7.76,8.55,19.74-5.71,24.25-12.68c16-24.73,28.19-53.25,41.41-80.24c6.13-12.51,12.28-24.82,18.93-36.89
		c3.84-6.96,7.65-12.82,11.65-17.92c4.97-6.32,10.62-11.74,16.24-17.17c5.38-5.2,11.67-8.72,18.04-11.83
		c7.04-3.44,13.73-5.78,20.44-7.16c10.21-2.09,21.34-2.76,31.12,1.98c3,1.46,5.66,4.42,6.39,8.37c0.76,4.1-0.71,8.61-3.55,10.97
		c-3.33,2.76-7.5,1.62-11.23,1.25c-5.36-0.54-10.88-0.43-16.2,0.29c-10.38,1.4-21.03,5.42-32.56,12.29
		c-6.43,3.83-12.67,8.87-19.07,15.4c-15.56,15.88-26.19,37.69-36.65,58.59c-4.47,8.94-9,17.95-12.85,27.32
		c-3.91,9.53-7.39,19.32-11.29,28.85c-3.39,8.65-6.91,17.24-10.88,25.52C61.57,519.4,49.56,531.85,32.54,530.57z"/>
</g>
</svg>
