<?xml version="1.0" standalone="no"?><svg xmlns="http://www.w3.org/2000/svg" viewBox="0 0 1440 320"><path fill="#b6efda" fill-opacity="1" d="M0,64L11.4,53.3C22.9,43,46,21,69,32C91.4,43,114,85,137,106.7C160,128,183,128,206,128C228.6,128,251,128,274,112C297.1,96,320,64,343,64C365.7,64,389,96,411,117.3C434.3,139,457,149,480,144C502.9,139,526,117,549,122.7C571.4,128,594,160,617,170.7C640,181,663,171,686,192C708.6,213,731,267,754,282.7C777.1,299,800,277,823,234.7C845.7,192,869,128,891,112C914.3,96,937,128,960,138.7C982.9,149,1006,139,1029,133.3C1051.4,128,1074,128,1097,112C1120,96,1143,64,1166,64C1188.6,64,1211,96,1234,133.3C1257.1,171,1280,213,1303,208C1325.7,203,1349,149,1371,106.7C1394.3,64,1417,32,1429,16L1440,0L1440,320L1428.6,320C1417.1,320,1394,320,1371,320C1348.6,320,1326,320,1303,320C1280,320,1257,320,1234,320C1211.4,320,1189,320,1166,320C1142.9,320,1120,320,1097,320C1074.3,320,1051,320,1029,320C1005.7,320,983,320,960,320C937.1,320,914,320,891,320C868.6,320,846,320,823,320C800,320,777,320,754,320C731.4,320,709,320,686,320C662.9,320,640,320,617,320C594.3,320,571,320,549,320C525.7,320,503,320,480,320C457.1,320,434,320,411,320C388.6,320,366,320,343,320C320,320,297,320,274,320C251.4,320,229,320,206,320C182.9,320,160,320,137,320C114.3,320,91,320,69,320C45.7,320,23,320,11,320L0,320Z"></path></svg>