<?xml version="1.0" standalone="no"?><svg xmlns="http://www.w3.org/2000/svg" viewBox="0 0 1440 320"><path fill="#b6efda" fill-opacity="1" d="M0,128L16,112C32,96,64,64,96,85.3C128,107,160,181,192,208C224,235,256,213,288,192C320,171,352,149,384,128C416,107,448,85,480,69.3C512,53,544,43,576,80C608,117,640,203,672,240C704,277,736,267,768,256C800,245,832,235,864,229.3C896,224,928,224,960,234.7C992,245,1024,267,1056,250.7C1088,235,1120,181,1152,154.7C1184,128,1216,128,1248,149.3C1280,171,1312,213,1344,229.3C1376,245,1408,235,1424,229.3L1440,224L1440,320L1424,320C1408,320,1376,320,1344,320C1312,320,1280,320,1248,320C1216,320,1184,320,1152,320C1120,320,1088,320,1056,320C1024,320,992,320,960,320C928,320,896,320,864,320C832,320,800,320,768,320C736,320,704,320,672,320C640,320,608,320,576,320C544,320,512,320,480,320C448,320,416,320,384,320C352,320,320,320,288,320C256,320,224,320,192,320C160,320,128,320,96,320C64,320,32,320,16,320L0,320Z"></path></svg>