<?xml version="1.0" standalone="no"?><svg xmlns="http://www.w3.org/2000/svg" viewBox="0 0 1440 320"><path fill="#eeeeee" fill-opacity="1" d="M0,64L34.3,80C68.6,96,137,128,206,133.3C274.3,139,343,117,411,96C480,75,549,53,617,85.3C685.7,117,754,203,823,224C891.4,245,960,203,1029,181.3C1097.1,160,1166,160,1234,149.3C1302.9,139,1371,117,1406,106.7L1440,96L1440,320L1405.7,320C1371.4,320,1303,320,1234,320C1165.7,320,1097,320,1029,320C960,320,891,320,823,320C754.3,320,686,320,617,320C548.6,320,480,320,411,320C342.9,320,274,320,206,320C137.1,320,69,320,34,320L0,320Z"></path></svg>